Russolo-10ptSemiBold.ufo
<glyph name="exclam" format="2">
  <advance width="522.2456140350878"/>
  <unicode hex="0021"/>
  <note>
exclam
</note>
  <outline>
    <contour>
      <point x="205.59649122807016" y="353.8771929824561" type="curve"/>
      <point x="317.64912280701753" y="353.8771929824561" type="line"/>
      <point x="308.42105263157896" y="749.3333333333334"/>
      <point x="389.1929824561404" y="1041.3684210526317"/>
      <point x="389.1929824561404" y="1191.842105263158" type="curve" smooth="yes"/>
      <point x="389.1929824561404" y="1314.877192982456"/>
      <point x="299.35087719298247" y="1277.5438596491229"/>
      <point x="335.42105263157896" y="1463.7368421052631" type="curve"/>
      <point x="188.57894736842104" y="1463.7368421052631" type="line"/>
      <point x="224.64912280701753" y="1277.7894736842104"/>
      <point x="133.05263157894737" y="1314.877192982456"/>
      <point x="133.05263157894737" y="1191.842105263158" type="curve" smooth="yes"/>
      <point x="133.05263157894737" y="1041.122807017544"/>
      <point x="214.0701754385965" y="749.3333333333334"/>
    </contour>
    <contour>
      <point x="261.2456140350877" y="-22.473684210526315" type="curve" smooth="yes"/>
      <point x="341.5438596491228" y="-22.473684210526315"/>
      <point x="397.64912280701753" y="42.68421052631579"/>
      <point x="397.64912280701753" y="128.26315789473685" type="curve" smooth="yes"/>
      <point x="397.64912280701753" y="213.08771929824562"/>
      <point x="341.5438596491228" y="277.49122807017545"/>
      <point x="261.2456140350877" y="277.49122807017545" type="curve" smooth="yes"/>
      <point x="180.94736842105263" y="277.49122807017545"/>
      <point x="124.84210526315789" y="213.08771929824562"/>
      <point x="124.84210526315789" y="128.26315789473685" type="curve" smooth="yes"/>
      <point x="124.84210526315789" y="42.68421052631579"/>
      <point x="180.94736842105263" y="-22.473684210526315"/>
    </contour>
  </outline>
</glyph>
<glyph name="quotedbl" format="2">
  <advance width="719.4912280701755"/>
  <unicode hex="0022"/>
  <note>
quotedbl
</note>
  <outline>
    <contour>
      <point x="430.59649122807014" y="785.6666666666666" type="line"/>
      <point x="577.4912280701755" y="785.6666666666666" type="line"/>
      <point x="601.2280701754386" y="1363.4736842105262" type="line"/>
      <point x="411.35087719298247" y="1363.4736842105262" type="line"/>
    </contour>
    <contour>
      <point x="138.75438596491227" y="785.6666666666666" type="line"/>
      <point x="283.64912280701753" y="785.6666666666666" type="line"/>
      <point x="308.3859649122807" y="1363.4736842105262" type="line"/>
      <point x="119.26315789473685" y="1363.4736842105262" type="line"/>
    </contour>
  </outline>
</glyph>
<glyph name="numbersign" format="2">
  <advance width="1489.7894736842104"/>
  <unicode hex="0023"/>
  <note>
numbersign
</note>
  <outline>
    <contour>
      <point x="770.8070175438596" y="-0.24561403508771928" type="line"/>
      <point x="966.1228070175439" y="-0.24561403508771928" type="line"/>
      <point x="1277.4912280701753" y="1433.982456140351" type="line"/>
      <point x="1082.1754385964912" y="1433.982456140351" type="line"/>
    </contour>
    <contour>
      <point x="122.75438596491227" y="445.4035087719298" type="line"/>
      <point x="1301.7719298245613" y="445.4035087719298" type="line"/>
      <point x="1301.7719298245613" y="589.5964912280701" type="line"/>
      <point x="122.75438596491227" y="589.5964912280701" type="line"/>
    </contour>
    <contour>
      <point x="211.4035087719298" y="-0.24561403508771928" type="line"/>
      <point x="406.96491228070175" y="-0.24561403508771928" type="line"/>
      <point x="720.578947368421" y="1433.982456140351" type="line"/>
      <point x="525.0175438596491" y="1433.982456140351" type="line"/>
    </contour>
    <contour>
      <point x="187.01754385964912" y="854.1228070175439" type="line"/>
      <point x="1367.0350877192982" y="854.1228070175439" type="line"/>
      <point x="1367.0350877192982" y="999.561403508772" type="line"/>
      <point x="187.01754385964912" y="999.561403508772" type="line"/>
    </contour>
  </outline>
</glyph>
<glyph name="percent" format="2">
  <advance width="1657.1754385964912"/>
  <unicode hex="0025"/>
  <note>
percent
</note>
  <outline>
    <contour>
      <point x="215.03508771929825" y="-20.29824561403509" type="line"/>
      <point x="410.0" y="-20.29824561403509" type="line"/>
      <point x="1427.3333333333333" y="1439.280701754386" type="line"/>
      <point x="1233.122807017544" y="1439.280701754386" type="line"/>
    </contour>
    <contour>
      <point x="1198.8245614035088" y="-28.45614035087719" type="curve" smooth="yes"/>
      <point x="1390.2105263157894" y="-28.45614035087719"/>
      <point x="1519.157894736842" y="140.80701754385964"/>
      <point x="1519.157894736842" y="382.5263157894737" type="curve" smooth="yes"/>
      <point x="1519.157894736842" y="619.2631578947369"/>
      <point x="1384.2280701754387" y="794.7543859649123"/>
      <point x="1198.8245614035088" y="794.7543859649123" type="curve" smooth="yes"/>
      <point x="1016.421052631579" y="794.7543859649123"/>
      <point x="879.2456140350878" y="616.7719298245614"/>
      <point x="879.2456140350878" y="382.5263157894737" type="curve" smooth="yes"/>
      <point x="879.2456140350878" y="140.80701754385964"/>
      <point x="1009.1929824561404" y="-28.45614035087719"/>
    </contour>
    <contour>
      <point x="1198.8245614035088" y="110.73684210526315" type="curve" smooth="yes"/>
      <point x="1111.0877192982457" y="110.73684210526315"/>
      <point x="1068.719298245614" y="213.10526315789474"/>
      <point x="1068.719298245614" y="382.5263157894737" type="curve" smooth="yes"/>
      <point x="1068.719298245614" y="554.1929824561404"/>
      <point x="1111.0877192982457" y="655.8245614035088"/>
      <point x="1198.8245614035088" y="655.8245614035088" type="curve" smooth="yes"/>
      <point x="1287.3157894736842" y="655.8245614035088"/>
      <point x="1330.6842105263158" y="552.7017543859649"/>
      <point x="1330.6842105263158" y="382.5263157894737" type="curve" smooth="yes"/>
      <point x="1330.6842105263158" y="213.35087719298247"/>
      <point x="1288.3157894736842" y="110.73684210526315"/>
    </contour>
    <contour>
      <point x="459.0877192982456" y="633.8245614035088" type="curve" smooth="yes"/>
      <point x="649.719298245614" y="633.8245614035088"/>
      <point x="779.421052631579" y="802.3333333333334"/>
      <point x="779.421052631579" y="1045.8070175438597" type="curve" smooth="yes"/>
      <point x="779.421052631579" y="1280.298245614035"/>
      <point x="643.4912280701755" y="1456.7894736842106"/>
      <point x="459.0877192982456" y="1456.7894736842106" type="curve" smooth="yes"/>
      <point x="274.6842105263158" y="1456.7894736842106"/>
      <point x="138.26315789473685" y="1279.0526315789473"/>
      <point x="138.26315789473685" y="1045.8070175438597" type="curve" smooth="yes"/>
      <point x="138.26315789473685" y="803.3333333333334"/>
      <point x="268.2105263157895" y="633.8245614035088"/>
    </contour>
    <contour>
      <point x="459.0877192982456" y="773.2631578947369" type="curve" smooth="yes"/>
      <point x="371.10526315789474" y="773.2631578947369"/>
      <point x="328.9824561403509" y="874.140350877193"/>
      <point x="328.9824561403509" y="1045.8070175438597" type="curve" smooth="yes"/>
      <point x="328.9824561403509" y="1218.719298245614"/>
      <point x="371.10526315789474" y="1317.5964912280701"/>
      <point x="459.0877192982456" y="1317.5964912280701" type="curve" smooth="yes"/>
      <point x="546.578947368421" y="1317.5964912280701"/>
      <point x="589.9473684210526" y="1214.7368421052631"/>
      <point x="589.9473684210526" y="1045.8070175438597" type="curve" smooth="yes"/>
      <point x="589.9473684210526" y="877.1228070175439"/>
      <point x="546.578947368421" y="773.2631578947369"/>
    </contour>
  </outline>
</glyph>
<glyph name="ampersand" format="2">
  <advance width="1470.3157894736842"/>
  <unicode hex="0026"/>
  <note>
ampersand
</note>
  <outline>
    <contour>
      <point x="645.8421052631579" y="-30.982456140350877" type="curve" smooth="yes"/>
      <point x="787.9473684210526" y="-30.982456140350877"/>
      <point x="927.8245614035088" y="-4.508771929824562"/>
      <point x="1008.9824561403509" y="51.666666666666664" type="curve"/>
      <point x="911.7894736842105" y="174.42105263157896" type="line"/>
      <point x="883.4736842105264" y="147.42105263157896"/>
      <point x="713.4912280701755" y="112.22807017543859"/>
      <point x="639.8421052631579" y="112.22807017543859" type="curve" smooth="yes"/>
      <point x="455.10526315789474" y="112.22807017543859"/>
      <point x="396.2631578947369" y="243.05263157894737"/>
      <point x="396.2631578947369" y="410.6842105263158" type="curve" smooth="yes"/>
      <point x="396.2631578947369" y="614.140350877193"/>
      <point x="493.140350877193" y="703.6666666666666"/>
      <point x="662.8070175438596" y="701.6842105263158" type="curve"/>
      <point x="672.561403508772" y="848.3859649122807" type="line"/>
      <point x="549.140350877193" y="841.1578947368421"/>
      <point x="476.2631578947369" y="925.4912280701755"/>
      <point x="476.2631578947369" y="1071.0701754385964" type="curve" smooth="yes"/>
      <point x="476.2631578947369" y="1218.9473684210527"/>
      <point x="559.6666666666667" y="1318.5263157894738"/>
      <point x="684.3859649122807" y="1318.5263157894738" type="curve" smooth="yes"/>
      <point x="880.421052631579" y="1318.5263157894738" type="line"/>
      <point x="880.421052631579" y="1461.7368421052631" type="line"/>
      <point x="680.3859649122807" y="1461.7368421052631" type="line" smooth="yes"/>
      <point x="388.70175438596493" y="1461.7368421052631"/>
      <point x="234.49122807017545" y="1323.6666666666667"/>
      <point x="234.49122807017545" y="1071.0701754385964" type="curve" smooth="yes"/>
      <point x="234.49122807017545" y="946.2456140350877"/>
      <point x="278.3157894736842" y="848.2280701754386"/>
      <point x="351.6842105263158" y="787.7543859649123" type="curve"/>
      <point x="228.6140350877193" y="719.3157894736842"/>
      <point x="137.01754385964912" y="585.6140350877193"/>
      <point x="137.01754385964912" y="404.6842105263158" type="curve" smooth="yes"/>
      <point x="137.01754385964912" y="137.75438596491227"/>
      <point x="307.70175438596493" y="-30.982456140350877"/>
    </contour>
    <contour>
      <point x="1102.6491228070176" y="-28.982456140350877" type="curve" smooth="yes"/>
      <point x="1193.421052631579" y="-28.982456140350877"/>
      <point x="1272.6491228070176" y="-14.24561403508772"/>
      <point x="1334.561403508772" y="18.70175438596491" type="curve"/>
      <point x="1334.561403508772" y="196.5438596491228" type="line"/>
      <point x="1230.421052631579" y="133.49122807017545"/>
      <point x="1200.578947368421" y="120.71929824561403"/>
      <point x="1151.280701754386" y="120.71929824561403" type="curve" smooth="yes"/>
      <point x="1133.6666666666667" y="120.71929824561403"/>
      <point x="1135.3333333333333" y="304.4561403508772"/>
      <point x="1135.3333333333333" y="395.5263157894737" type="curve" smooth="yes"/>
      <point x="1135.3333333333333" y="701.6842105263158" type="line"/>
      <point x="1280.3333333333333" y="701.6842105263158" type="line"/>
      <point x="1280.3333333333333" y="847.3859649122807" type="line"/>
      <point x="1135.3333333333333" y="847.3859649122807" type="line"/>
      <point x="1135.3333333333333" y="1135.578947368421" type="line"/>
      <point x="994.561403508772" y="1135.578947368421" type="line"/>
      <point x="1018.4561403508771" y="929.4035087719299"/>
      <point x="941.4912280701755" y="847.3859649122807"/>
      <point x="757.1228070175439" y="847.3859649122807" type="curve" smooth="yes"/>
      <point x="647.3684210526316" y="847.3859649122807" type="line"/>
      <point x="628.6315789473684" y="701.6842105263158" type="line"/>
      <point x="885.3508771929825" y="701.6842105263158" type="line"/>
      <point x="885.3508771929825" y="230.4035087719298" type="line" smooth="yes"/>
      <point x="885.3508771929825" y="77.26315789473685"/>
      <point x="944.5438596491229" y="-28.982456140350877"/>
    </contour>
  </outline>
</glyph>
<glyph name="quotesingle" format="2">
  <advance width="425.89473684210526"/>
  <unicode hex="0027"/>
  <note>
quotesingle
</note>
  <outline>
    <contour>
      <point x="138.75438596491227" y="785.6666666666666" type="line"/>
      <point x="283.64912280701753" y="785.6666666666666" type="line"/>
      <point x="308.3859649122807" y="1363.4736842105262" type="line"/>
      <point x="119.26315789473685" y="1363.4736842105262" type="line"/>
    </contour>
  </outline>
</glyph>
<glyph name="parenleft" format="2">
  <advance width="672.859649122807"/>
  <unicode hex="0028"/>
  <note>
parenleft
</note>
  <outline>
    <contour>
      <point x="483.1578947368421" y="-393.03508771929825" type="curve"/>
      <point x="574.0877192982456" y="-331.7719298245614" type="line"/>
      <point x="399.36842105263156" y="-33.26315789473685"/>
      <point x="301.56140350877195" y="280.42105263157896"/>
      <point x="301.56140350877195" y="582.3859649122807" type="curve" smooth="yes"/>
      <point x="301.56140350877195" y="884.3684210526316"/>
      <point x="401.64912280701753" y="1198.4035087719299"/>
      <point x="576.1052631578948" y="1514.017543859649" type="curve"/>
      <point x="479.64912280701753" y="1560.7894736842106" type="line"/>
      <point x="222.68421052631578" y="1246.3859649122808"/>
      <point x="104.26315789473685" y="944.280701754386"/>
      <point x="104.26315789473685" y="589.1052631578948" type="curve" smooth="yes"/>
      <point x="104.26315789473685" y="236.87719298245614"/>
      <point x="221.21052631578948" y="-64.28070175438596"/>
    </contour>
  </outline>
</glyph>
<glyph name="parenright" format="2">
  <advance width="673.1052631578948"/>
  <unicode hex="0029"/>
  <note>
parenright
</note>
  <outline>
    <contour>
      <point x="190.7017543859649" y="-393.03508771929825" type="line"/>
      <point x="452.89473684210526" y="-64.28070175438597"/>
      <point x="568.8421052631579" y="236.87719298245614"/>
      <point x="568.8421052631579" y="589.1052631578948" type="curve" smooth="yes"/>
      <point x="568.8421052631579" y="943.280701754386"/>
      <point x="450.9298245614035" y="1246.3859649122808"/>
      <point x="193.21052631578948" y="1561.5438596491229" type="curve"/>
      <point x="96.75438596491227" y="1514.017543859649" type="line"/>
      <point x="272.96491228070175" y="1197.6491228070176"/>
      <point x="372.05263157894734" y="883.3859649122807"/>
      <point x="372.05263157894734" y="582.3859649122807" type="curve" smooth="yes"/>
      <point x="372.05263157894734" y="279.17543859649123"/>
      <point x="273.2456140350877" y="-34.75438596491229"/>
      <point x="98.7719298245614" y="-331.7719298245614" type="curve"/>
    </contour>
  </outline>
</glyph>
<glyph name="asterisk" format="2">
  <advance width="893.1578947368421"/>
  <unicode hex="002A"/>
  <note>
asterisk
</note>
  <outline>
    <contour>
      <point x="459.7894736842105" y="1112.6491228070176" type="line"/>
      <point x="597.6491228070175" y="1185.5263157894738"/>
      <point x="665.7017543859649" y="1181.6140350877192"/>
      <point x="709.1578947368421" y="1206.842105263158" type="curve" smooth="yes"/>
      <point x="730.8421052631579" y="1219.8070175438597"/>
      <point x="722.719298245614" y="1254.298245614035"/>
      <point x="769.6491228070175" y="1281.5087719298247" type="curve"/>
      <point x="734.421052631579" y="1342.2105263157894" type="line"/>
      <point x="687.4912280701755" y="1315.0"/>
      <point x="661.9298245614035" y="1337.140350877193"/>
      <point x="641.0" y="1324.6842105263158" type="curve" smooth="yes"/>
      <point x="597.5438596491229" y="1299.4561403508771"/>
      <point x="564.438596491228" y="1241.4561403508771"/>
      <point x="433.6140350877193" y="1158.2631578947369" type="curve"/>
    </contour>
    <contour>
      <point x="158.98245614035088" y="928.7017543859649" type="line"/>
      <point x="205.1578947368421" y="955.1578947368421"/>
      <point x="231.71929824561403" y="931.5263157894736"/>
      <point x="253.4035087719298" y="943.9824561403509" type="curve" smooth="yes"/>
      <point x="296.859649122807" y="969.2105263157895"/>
      <point x="327.96491228070175" y="1029.4561403508771"/>
      <point x="459.7894736842105" y="1112.6491228070176" type="curve"/>
      <point x="433.6140350877193" y="1158.2631578947369" type="line"/>
      <point x="295.7543859649123" y="1086.140350877193"/>
      <point x="229.4561403508772" y="1086.298245614035"/>
      <point x="185.24561403508773" y="1061.8245614035088" type="curve" smooth="yes"/>
      <point x="165.0701754385965" y="1049.6140350877192"/>
      <point x="170.43859649122808" y="1016.6140350877193"/>
      <point x="123.50877192982456" y="989.4035087719299" type="curve"/>
    </contour>
    <contour>
      <point x="411.10526315789474" y="781.5263157894736" type="curve"/>
      <point x="481.0526315789474" y="781.5263157894736" type="line"/>
      <point x="481.0526315789474" y="835.1929824561404"/>
      <point x="514.9824561403509" y="846.0526315789474"/>
      <point x="514.9824561403509" y="871.4736842105264" type="curve" smooth="yes"/>
      <point x="514.9824561403509" y="922.6842105263158"/>
      <point x="478.7894736842105" y="978.2631578947369"/>
      <point x="472.7543859649123" y="1134.3333333333333" type="curve"/>
      <point x="419.4035087719298" y="1134.3333333333333" type="line"/>
      <point x="413.36842105263156" y="979.0175438596491"/>
      <point x="379.42105263157896" y="921.9298245614035"/>
      <point x="379.42105263157896" y="871.4736842105264" type="curve" smooth="yes"/>
      <point x="379.42105263157896" y="845.2982456140351"/>
      <point x="411.10526315789474" y="835.1929824561404"/>
    </contour>
    <contour>
      <point x="432.6140350877193" y="1112.6491228070176" type="curve"/>
      <point x="459.7894736842105" y="1158.017543859649" type="line"/>
      <point x="328.719298245614" y="1241.4561403508771"/>
      <point x="295.6140350877193" y="1299.4561403508771"/>
      <point x="252.4035087719298" y="1324.6842105263158" type="curve" smooth="yes"/>
      <point x="231.2280701754386" y="1337.140350877193"/>
      <point x="204.91228070175438" y="1314.7543859649122"/>
      <point x="157.98245614035088" y="1341.2105263157894" type="curve"/>
      <point x="123.50877192982456" y="1281.5087719298247" type="line"/>
      <point x="169.68421052631578" y="1254.298245614035"/>
      <point x="162.31578947368422" y="1219.8070175438597"/>
      <point x="184.24561403508773" y="1206.842105263158" type="curve" smooth="yes"/>
      <point x="227.4561403508772" y="1181.6140350877192"/>
      <point x="294.7543859649123" y="1184.5263157894738"/>
    </contour>
    <contour>
      <point x="639.7543859649123" y="943.9824561403509" type="curve" smooth="yes"/>
      <point x="661.6842105263158" y="931.5263157894736"/>
      <point x="688.2456140350877" y="955.1578947368421"/>
      <point x="734.1754385964912" y="928.7017543859649" type="curve"/>
      <point x="769.6491228070175" y="988.4035087719299" type="line"/>
      <point x="722.719298245614" y="1015.6140350877193"/>
      <point x="728.3333333333334" y="1049.6140350877192"/>
      <point x="707.9122807017544" y="1061.8245614035088" type="curve" smooth="yes"/>
      <point x="663.9473684210526" y="1086.298245614035"/>
      <point x="596.8947368421052" y="1086.140350877193"/>
      <point x="459.7894736842105" y="1158.017543859649" type="curve"/>
      <point x="432.6140350877193" y="1112.6491228070176" type="line"/>
      <point x="565.1929824561404" y="1028.4561403508771"/>
      <point x="596.5438596491229" y="969.2105263157895"/>
    </contour>
    <contour>
      <point x="419.4035087719298" y="1134.3333333333333" type="curve"/>
      <point x="472.7543859649123" y="1134.3333333333333" type="line"/>
      <point x="478.7894736842105" y="1290.4035087719299"/>
      <point x="514.9824561403509" y="1345.2280701754387"/>
      <point x="514.9824561403509" y="1397.1929824561403" type="curve" smooth="yes"/>
      <point x="514.9824561403509" y="1422.6140350877192"/>
      <point x="481.0526315789474" y="1433.4736842105262"/>
      <point x="481.0526315789474" y="1487.140350877193" type="curve"/>
      <point x="411.10526315789474" y="1487.140350877193" type="line"/>
      <point x="411.10526315789474" y="1432.719298245614"/>
      <point x="379.42105263157896" y="1422.6140350877192"/>
      <point x="379.42105263157896" y="1397.1929824561403" type="curve" smooth="yes"/>
      <point x="379.42105263157896" y="1346.7368421052631"/>
      <point x="413.36842105263156" y="1289.6491228070176"/>
    </contour>
  </outline>
</glyph>
<glyph name="plus" format="2">
  <advance width="1141.982456140351"/>
  <unicode hex="002B"/>
  <note>
plus
</note>
  <outline>
    <contour>
      <point x="140.49122807017545" y="551.5964912280701" type="line"/>
      <point x="1001.4912280701755" y="551.5964912280701" type="line"/>
      <point x="1001.4912280701755" y="784.6666666666666" type="line"/>
      <point x="140.49122807017545" y="784.6666666666666" type="line"/>
    </contour>
    <contour>
      <point x="483.57894736842104" y="237.63157894736844" type="line"/>
      <point x="658.1578947368421" y="237.63157894736844" type="line"/>
      <point x="658.1578947368421" y="1098.6315789473683" type="line"/>
      <point x="483.57894736842104" y="1098.6315789473683" type="line"/>
    </contour>
  </outline>
</glyph>
<glyph name="comma" format="2">
  <advance width="603.8947368421052"/>
  <unicode hex="002C"/>
  <note>
comma
</note>
  <outline>
    <contour>
      <point x="127.01754385964912" y="-166.57894736842104" type="curve"/>
      <point x="319.8421052631579" y="-166.57894736842104" type="line"/>
      <point x="383.0175438596491" y="-57.666666666666664"/>
      <point x="447.64912280701753" y="98.33333333333333"/>
      <point x="479.63157894736844" y="227.28070175438597" type="curve"/>
      <point x="243.10526315789474" y="227.28070175438597" type="line"/>
      <point x="201.17543859649123" y="143.66666666666666"/>
      <point x="145.71929824561403" y="-38.80701754385965"/>
    </contour>
  </outline>
</glyph>
<glyph name="hyphen" format="2">
  <advance width="774.6491228070175"/>
  <unicode hex="002D"/>
  <note>
hyphen
</note>
  <outline>
    <contour>
      <point x="79.52631578947368" y="429.43859649122805" type="line"/>
      <point x="628.6666666666666" y="429.43859649122805" type="line"/>
      <point x="695.8771929824561" y="644.140350877193" type="line"/>
      <point x="144.73684210526315" y="644.140350877193" type="line"/>
    </contour>
  </outline>
</glyph>
<glyph name="period" format="2">
  <advance width="598.561403508772"/>
  <unicode hex="002E"/>
  <note>
period
</note>
  <outline>
    <contour>
      <point x="299.280701754386" y="-12.666666666666666" type="curve" smooth="yes"/>
      <point x="387.1228070175439" y="-12.666666666666666"/>
      <point x="455.29824561403507" y="49.473684210526315"/>
      <point x="455.29824561403507" y="144.10526315789474" type="curve" smooth="yes"/>
      <point x="455.29824561403507" y="238.73684210526315"/>
      <point x="387.1228070175439" y="300.8771929824561"/>
      <point x="299.280701754386" y="300.8771929824561" type="curve" smooth="yes"/>
      <point x="211.43859649122805" y="300.8771929824561"/>
      <point x="143.26315789473685" y="238.73684210526315"/>
      <point x="143.26315789473685" y="144.10526315789474" type="curve" smooth="yes"/>
      <point x="143.26315789473685" y="50.228070175438596"/>
      <point x="210.68421052631578" y="-12.666666666666666"/>
    </contour>
  </outline>
</glyph>
<glyph name="slash" format="2">
  <advance width="828.8771929824561"/>
  <unicode hex="002F"/>
  <note>
slash
</note>
  <outline>
    <contour>
      <point x="72.26315789473685" y="-386.7719298245614" type="line"/>
      <point x="238.4561403508772" y="-386.7719298245614" type="line"/>
      <point x="756.6140350877192" y="1495.2456140350878" type="line"/>
      <point x="591.1754385964912" y="1495.2456140350878" type="line"/>
    </contour>
  </outline>
</glyph>
<glyph name="zero" format="2">
  <advance width="1436.5263157894738"/>
  <unicode hex="0030"/>
  <note>
zero
</note>
  <anchor x="708.140350877193" y="714.7543859649123" name="center"/>
  <outline>
    <contour>
      <point x="718.140350877193" y="-29.982456140350877" type="curve" smooth="yes"/>
      <point x="1071.2105263157896" y="-29.982456140350877"/>
      <point x="1331.5087719298244" y="286.2105263157895"/>
      <point x="1331.5087719298244" y="714.7543859649123" type="curve" smooth="yes"/>
      <point x="1331.5087719298244" y="1126.6140350877192"/>
      <point x="1055.5263157894738" y="1460.4736842105262"/>
      <point x="718.140350877193" y="1460.4736842105262" type="curve" smooth="yes"/>
      <point x="377.50877192982455" y="1460.4736842105262"/>
      <point x="105.01754385964912" y="1129.1052631578948"/>
      <point x="105.01754385964912" y="714.7543859649123" type="curve" smooth="yes"/>
      <point x="105.01754385964912" y="291.43859649122805"/>
      <point x="369.29824561403507" y="-29.982456140350877"/>
    </contour>
    <contour>
      <point x="718.140350877193" y="115.47368421052632" type="curve" smooth="yes"/>
      <point x="512.1578947368421" y="115.47368421052632"/>
      <point x="369.8070175438597" y="358.50877192982455"/>
      <point x="369.8070175438597" y="714.7543859649123" type="curve" smooth="yes"/>
      <point x="369.8070175438597" y="1070.2456140350878"/>
      <point x="512.1578947368421" y="1315.5263157894738"/>
      <point x="718.140350877193" y="1315.5263157894738" type="curve" smooth="yes"/>
      <point x="924.1228070175439" y="1315.5263157894738"/>
      <point x="1066.2105263157894" y="1068.2456140350878"/>
      <point x="1066.2105263157894" y="714.7543859649123" type="curve" smooth="yes"/>
      <point x="1066.2105263157894" y="360.7543859649123"/>
      <point x="925.1228070175439" y="115.47368421052632"/>
    </contour>
  </outline>
</glyph>
<glyph name="one" format="2">
  <advance width="714.9824561403509"/>
  <unicode hex="0031"/>
  <note>
one
</note>
  <outline>
    <contour>
      <point x="333.42105263157896" y="-0.7543859649122807" type="line"/>
      <point x="580.719298245614" y="-0.7543859649122807" type="line"/>
      <point x="580.719298245614" y="1424.5263157894738" type="line"/>
      <point x="466.0877192982456" y="1424.5263157894738" type="line"/>
      <point x="95.26315789473685" y="926.1578947368421" type="line"/>
      <point x="177.91228070175438" y="858.7719298245614" type="line"/>
      <point x="396.9473684210526" y="1118.859649122807" type="line"/>
      <point x="333.42105263157896" y="1157.4736842105262" type="line"/>
    </contour>
  </outline>
</glyph>
<glyph name="two" format="2">
  <advance width="1245.6140350877192"/>
  <unicode hex="0032"/>
  <note>
two
</note>
  <outline>
    <contour>
      <point x="95.26315789473685" y="0.0" type="line"/>
      <point x="1142.859649122807" y="0.0" type="line"/>
      <point x="1142.859649122807" y="194.75438596491227" type="line"/>
      <point x="380.719298245614" y="194.75438596491227" type="line"/>
      <point x="344.96491228070175" y="104.68421052631578" type="line"/>
      <point x="594.6140350877192" y="293.6140350877193"/>
      <point x="825.280701754386" y="522.9649122807018"/>
      <point x="882.3508771929825" y="579.3157894736842" type="curve" smooth="yes"/>
      <point x="1034.3333333333333" y="736.3859649122808"/>
      <point x="1114.9122807017543" y="850.421052631579"/>
      <point x="1114.9122807017543" y="1023.0" type="curve" smooth="yes"/>
      <point x="1114.9122807017543" y="1285.9122807017543"/>
      <point x="934.3859649122808" y="1461.7368421052631"/>
      <point x="641.6666666666666" y="1461.7368421052631" type="curve" smooth="yes"/>
      <point x="347.8421052631579" y="1461.7368421052631"/>
      <point x="165.96491228070175" y="1286.7894736842106"/>
      <point x="165.96491228070175" y="1080.7894736842106" type="curve" smooth="yes"/>
      <point x="165.96491228070175" y="1062.298245614035"/>
      <point x="167.21052631578948" y="1031.2456140350878"/>
      <point x="175.19298245614036" y="975.8245614035088" type="curve"/>
      <point x="395.64912280701753" y="979.8070175438596" type="line"/>
      <point x="395.64912280701753" y="1057.7894736842106" type="line" smooth="yes"/>
      <point x="395.64912280701753" y="1180.8070175438597"/>
      <point x="464.35087719298247" y="1326.7368421052631"/>
      <point x="629.9649122807018" y="1326.7368421052631" type="curve" smooth="yes"/>
      <point x="743.7543859649123" y="1326.7368421052631"/>
      <point x="870.5438596491229" y="1270.017543859649"/>
      <point x="870.5438596491229" y="1077.7543859649122" type="curve" smooth="yes"/>
      <point x="870.5438596491229" y="915.6666666666666"/>
      <point x="762.8771929824561" y="687.6140350877193"/>
      <point x="531.1754385964912" y="448.0701754385965" type="curve" smooth="yes"/>
    </contour>
  </outline>
</glyph>
<glyph name="three" format="2">
  <advance width="1190.842105263158"/>
  <unicode hex="0033"/>
  <note>
three
</note>
  <outline>
    <contour>
      <point x="571.7017543859649" y="-26.280701754385966" type="curve" smooth="yes"/>
      <point x="889.438596491228" y="-26.280701754385966"/>
      <point x="1087.8245614035088" y="141.73684210526315"/>
      <point x="1087.8245614035088" y="404.4561403508772" type="curve" smooth="yes"/>
      <point x="1087.8245614035088" y="614.4912280701755"/>
      <point x="955.7894736842105" y="755.0"/>
      <point x="733.4035087719299" y="800.3684210526316" type="curve"/>
      <point x="646.6491228070175" y="689.8245614035088" type="line"/>
      <point x="903.2631578947369" y="714.2105263157895"/>
      <point x="1056.877192982456" y="862.2280701754386"/>
      <point x="1056.877192982456" y="1075.0526315789473" type="curve" smooth="yes"/>
      <point x="1056.877192982456" y="1305.5263157894738"/>
      <point x="886.7017543859649" y="1460.4736842105262"/>
      <point x="606.7017543859649" y="1460.4736842105262" type="curve" smooth="yes"/>
      <point x="300.96491228070175" y="1460.4736842105262"/>
      <point x="134.49122807017545" y="1281.561403508772"/>
      <point x="128.75438596491227" y="1054.701754385965" type="curve"/>
      <point x="345.1929824561404" y="1053.4561403508771" type="line"/>
      <point x="339.6666666666667" y="1159.1929824561403"/>
      <point x="411.70175438596493" y="1326.2280701754387"/>
      <point x="601.7017543859649" y="1326.2280701754387" type="curve" smooth="yes"/>
      <point x="753.0701754385965" y="1326.2280701754387"/>
      <point x="829.2105263157895" y="1219.2280701754387"/>
      <point x="829.2105263157895" y="1065.8245614035088" type="curve" smooth="yes"/>
      <point x="829.2105263157895" y="896.5087719298245"/>
      <point x="733.8771929824561" y="801.421052631579"/>
      <point x="557.4561403508771" y="801.421052631579" type="curve" smooth="yes"/>
      <point x="337.17543859649123" y="801.421052631579" type="line"/>
      <point x="337.17543859649123" y="689.8245614035088" type="line"/>
      <point x="561.4561403508771" y="689.8245614035088" type="line" smooth="yes"/>
      <point x="726.6491228070175" y="689.8245614035088"/>
      <point x="838.719298245614" y="588.2982456140351"/>
      <point x="838.719298245614" y="406.6842105263158" type="curve" smooth="yes"/>
      <point x="838.719298245614" y="238.26315789473685"/>
      <point x="741.578947368421" y="103.49122807017544"/>
      <point x="577.7017543859649" y="103.49122807017544" type="curve" smooth="yes"/>
      <point x="429.29824561403507" y="103.49122807017544"/>
      <point x="334.64912280701753" y="215.82456140350877"/>
      <point x="334.64912280701753" y="366.719298245614" type="curve" smooth="yes"/>
      <point x="334.64912280701753" y="396.2456140350877" type="line"/>
      <point x="100.26315789473685" y="396.2456140350877" type="line"/>
      <point x="100.26315789473685" y="361.1929824561403" type="line" smooth="yes"/>
      <point x="100.26315789473685" y="121.2280701754386"/>
      <point x="272.1929824561403" y="-26.280701754385966"/>
    </contour>
  </outline>
</glyph>
<glyph name="four" format="2">
  <advance width="1243.2280701754385"/>
  <unicode hex="0034"/>
  <note>
four
</note>
  <outline>
    <contour>
      <point x="748.2982456140351" y="0.0" type="line"/>
      <point x="957.2631578947369" y="0.0" type="line"/>
      <point x="957.2631578947369" y="473.719298245614" type="line"/>
      <point x="776.1754385964912" y="336.4035087719298" type="line"/>
      <point x="1143.4736842105262" y="336.4035087719298" type="line"/>
      <point x="1143.4736842105262" y="503.7543859649123" type="line"/>
      <point x="776.1754385964912" y="503.7543859649123" type="line"/>
      <point x="957.2631578947369" y="367.17543859649123" type="line"/>
      <point x="957.2631578947369" y="844.3684210526316" type="line"/>
      <point x="748.2982456140351" y="844.3684210526316" type="line"/>
      <point x="748.2982456140351" y="367.17543859649123" type="line"/>
      <point x="887.1228070175439" y="503.7543859649123" type="line"/>
      <point x="256.140350877193" y="503.7543859649123" type="line"/>
      <point x="347.719298245614" y="429.2456140350877" type="line"/>
      <point x="490.8070175438596" y="761.421052631579"/>
      <point x="598.6842105263158" y="1060.157894736842"/>
      <point x="703.2982456140351" y="1449.6666666666667" type="curve"/>
      <point x="509.280701754386" y="1449.6666666666667" type="line"/>
      <point x="390.719298245614" y="1039.7719298245613"/>
      <point x="269.140350877193" y="715.3684210526316"/>
      <point x="95.50877192982456" y="336.4035087719298" type="curve"/>
      <point x="887.1228070175439" y="336.4035087719298" type="line"/>
      <point x="748.2982456140351" y="473.719298245614" type="line"/>
    </contour>
  </outline>
</glyph>
<glyph name="five" format="2">
  <advance width="1144.701754385965"/>
  <unicode hex="0035"/>
  <note>
five
</note>
  <outline>
    <contour>
      <point x="502.5263157894737" y="-33.719298245614034" type="curve" smooth="yes"/>
      <point x="812.6140350877192" y="-33.719298245614034"/>
      <point x="1043.438596491228" y="188.17543859649123"/>
      <point x="1043.438596491228" y="465.2456140350877" type="curve" smooth="yes"/>
      <point x="1043.438596491228" y="726.4561403508771"/>
      <point x="825.6666666666666" y="890.7017543859649"/>
      <point x="558.1578947368421" y="890.7017543859649" type="curve" smooth="yes"/>
      <point x="414.0701754385965" y="890.7017543859649"/>
      <point x="325.0175438596491" y="836.8245614035088"/>
      <point x="245.26315789473685" y="766.1754385964912" type="curve"/>
      <point x="315.4035087719298" y="755.6315789473684" type="line"/>
      <point x="423.49122807017545" y="1327.7719298245613" type="line"/>
      <point x="276.12280701754383" y="1234.4561403508771" type="line"/>
      <point x="945.8070175438596" y="1234.4561403508771" type="line"/>
      <point x="945.8070175438596" y="1430.0" type="line"/>
      <point x="297.3157894736842" y="1430.0" type="line"/>
      <point x="164.26315789473685" y="718.5964912280701" type="line"/>
      <point x="250.43859649122805" y="667.8070175438596" type="line"/>
      <point x="320.43859649122805" y="715.2631578947369"/>
      <point x="433.140350877193" y="735.7894736842105"/>
      <point x="502.2631578947368" y="735.7894736842105" type="curve" smooth="yes"/>
      <point x="709.3157894736842" y="735.7894736842105"/>
      <point x="808.5438596491229" y="631.421052631579"/>
      <point x="808.5438596491229" y="446.3333333333333" type="curve" smooth="yes"/>
      <point x="808.5438596491229" y="237.49122807017545"/>
      <point x="671.0175438596491" y="119.94736842105263"/>
      <point x="497.3157894736842" y="119.94736842105263" type="curve" smooth="yes"/>
      <point x="362.66666666666663" y="119.94736842105263"/>
      <point x="227.140350877193" y="185.36842105263156"/>
      <point x="155.4561403508772" y="236.6140350877193" type="curve"/>
      <point x="95.50877192982456" y="118.36842105263158" type="line"/>
      <point x="200.75438596491227" y="37.10526315789474"/>
      <point x="331.0526315789474" y="-33.719298245614034"/>
    </contour>
  </outline>
</glyph>
<glyph name="six" format="2">
  <advance width="1213.3157894736842"/>
  <unicode hex="0036"/>
  <note>
six
</note>
  <outline>
    <contour>
      <point x="602.7017543859649" y="-32.75438596491228" type="curve" smooth="yes"/>
      <point x="943.8421052631579" y="-34.26315789473684"/>
      <point x="1110.8070175438597" y="162.78947368421052"/>
      <point x="1110.8070175438597" y="447.7368421052632" type="curve" smooth="yes"/>
      <point x="1110.8070175438597" y="730.421052631579"/>
      <point x="934.5438596491229" y="922.140350877193"/>
      <point x="633.719298245614" y="922.140350877193" type="curve" smooth="yes"/>
      <point x="493.719298245614" y="922.140350877193"/>
      <point x="317.49122807017545" y="861.438596491228"/>
      <point x="224.26315789473685" y="653.6140350877192" type="curve"/>
      <point x="321.9824561403509" y="678.8421052631579" type="line"/>
      <point x="326.70175438596493" y="816.7894736842105"/>
      <point x="349.9824561403509" y="911.6842105263158"/>
      <point x="436.2280701754386" y="1033.842105263158" type="curve" smooth="yes"/>
      <point x="497.2105263157895" y="1140.4035087719299"/>
      <point x="630.7894736842105" y="1269.4561403508771"/>
      <point x="858.3508771929825" y="1294.5438596491229" type="curve"/>
      <point x="855.859649122807" y="1464.3684210526317" type="line"/>
      <point x="532.0175438596491" y="1446.5964912280701"/>
      <point x="354.50877192982455" y="1246.8245614035088"/>
      <point x="280.7719298245614" y="1133.017543859649" type="curve" smooth="yes"/>
      <point x="111.21052631578948" y="905.4912280701755"/>
      <point x="106.26315789473685" y="619.7719298245614"/>
      <point x="106.26315789473685" y="522.5438596491229" type="curve" smooth="yes"/>
      <point x="106.26315789473685" y="98.63157894736842"/>
      <point x="325.4561403508772" y="-31.24561403508772"/>
    </contour>
    <contour>
      <point x="612.9824561403509" y="126.3859649122807" type="curve" smooth="yes"/>
      <point x="435.719298245614" y="127.89473684210526"/>
      <point x="343.140350877193" y="276.64912280701753"/>
      <point x="344.64912280701753" y="459.50877192982455" type="curve" smooth="yes"/>
      <point x="346.1578947368421" y="676.9122807017544"/>
      <point x="491.82456140350877" y="755.5263157894736"/>
      <point x="632.0175438596491" y="755.5263157894736" type="curve" smooth="yes"/>
      <point x="826.8771929824561" y="755.5263157894736"/>
      <point x="881.140350877193" y="599.1578947368421"/>
      <point x="881.140350877193" y="443.6842105263158" type="curve" smooth="yes"/>
      <point x="881.140350877193" y="231.80701754385964"/>
      <point x="763.4561403508771" y="125.63157894736841"/>
    </contour>
  </outline>
</glyph>
<glyph name="seven" format="2">
  <advance width="1184.298245614035"/>
  <unicode hex="0037"/>
  <note>
seven
</note>
  <outline>
    <contour>
      <point x="333.0701754385965" y="0.0" type="curve"/>
      <point x="558.9824561403509" y="0.0" type="line"/>
      <point x="662.6140350877192" y="568.4912280701755"/>
      <point x="842.5438596491229" y="1037.3333333333333"/>
      <point x="1089.0350877192982" y="1420.2280701754387" type="curve"/>
      <point x="101.0" y="1420.2280701754387" type="line"/>
      <point x="101.0" y="1210.1929824561403" type="line"/>
      <point x="888.7017543859649" y="1210.1929824561403" type="line"/>
      <point x="817.1052631578948" y="1307.1754385964912" type="line"/>
      <point x="647.6140350877192" y="1040.4736842105262"/>
      <point x="464.36842105263156" y="590.3508771929825"/>
    </contour>
  </outline>
</glyph>
<glyph name="eight" format="2">
  <advance width="1188.1754385964912"/>
  <unicode hex="0038"/>
  <note>
eight
</note>
  <outline>
    <contour>
      <point x="585.0526315789474" y="-31.24561403508772" type="curve" smooth="yes"/>
      <point x="893.8070175438596" y="-31.24561403508772"/>
      <point x="1086.9122807017543" y="132.98245614035088"/>
      <point x="1086.9122807017543" y="393.1578947368421" type="curve" smooth="yes"/>
      <point x="1086.9122807017543" y="620.8771929824561"/>
      <point x="923.9824561403509" y="773.6315789473684"/>
      <point x="629.421052631579" y="865.3333333333334" type="curve" smooth="yes"/>
      <point x="440.33333333333337" y="925.7017543859649"/>
      <point x="379.1929824561403" y="1002.7543859649123"/>
      <point x="379.1929824561403" y="1107.7543859649122" type="curve" smooth="yes"/>
      <point x="379.1929824561403" y="1235.140350877193"/>
      <point x="468.7719298245614" y="1319.4561403508771"/>
      <point x="623.3508771929825" y="1319.4561403508771" type="curve" smooth="yes"/>
      <point x="770.140350877193" y="1319.4561403508771"/>
      <point x="853.0877192982456" y="1222.1754385964912"/>
      <point x="853.0877192982456" y="1101.7719298245613" type="curve" smooth="yes"/>
      <point x="853.0877192982456" y="1013.9473684210526"/>
      <point x="818.4035087719299" y="901.438596491228"/>
      <point x="485.0701754385965" y="802.1929824561404" type="curve"/>
      <point x="726.1052631578948" y="747.5964912280701" type="line"/>
      <point x="885.9824561403509" y="808.8947368421052"/>
      <point x="1013.0" y="945.438596491228"/>
      <point x="1013.0" y="1105.5964912280701" type="curve" smooth="yes"/>
      <point x="1013.0" y="1316.8245614035088"/>
      <point x="817.0175438596491" y="1448.4736842105262"/>
      <point x="592.438596491228" y="1448.2280701754387" type="curve" smooth="yes"/>
      <point x="338.63157894736844" y="1447.2280701754387"/>
      <point x="167.50877192982455" y="1302.7894736842106"/>
      <point x="167.50877192982455" y="1079.859649122807" type="curve" smooth="yes"/>
      <point x="167.50877192982455" y="888.2105263157895"/>
      <point x="326.2456140350877" y="751.0701754385965"/>
      <point x="527.578947368421" y="685.859649122807" type="curve" smooth="yes"/>
      <point x="789.2982456140351" y="598.5087719298245"/>
      <point x="864.0" y="515.0877192982456"/>
      <point x="864.0" y="384.2456140350877" type="curve" smooth="yes"/>
      <point x="864.0" y="206.64912280701753"/>
      <point x="755.4561403508771" y="107.01754385964912"/>
      <point x="564.1052631578948" y="107.01754385964912" type="curve" smooth="yes"/>
      <point x="371.7719298245614" y="107.01754385964912"/>
      <point x="276.1228070175439" y="222.82456140350877"/>
      <point x="275.8771929824561" y="379.03508771929825" type="curve" smooth="yes"/>
      <point x="274.8771929824561" y="500.64912280701753"/>
      <point x="316.56140350877195" y="618.1754385964912"/>
      <point x="575.1228070175439" y="749.578947368421" type="curve"/>
      <point x="422.7368421052632" y="801.7368421052631" type="line"/>
      <point x="219.50877192982455" y="721.1754385964912"/>
      <point x="101.26315789473685" y="564.6666666666666"/>
      <point x="101.26315789473685" y="368.70175438596493" type="curve" smooth="yes"/>
      <point x="101.26315789473685" y="119.52631578947368"/>
      <point x="293.7894736842105" y="-31.24561403508772"/>
    </contour>
  </outline>
</glyph>
<glyph name="nine" format="2">
  <advance width="1213.3157894736842"/>
  <unicode hex="0039"/>
  <note>
nine
</note>
  <outline>
    <contour>
      <point x="288.7543859649123" y="-43.70175438596491" type="line"/>
      <point x="574.0175438596491" y="-29.157894736842103"/>
      <point x="728.1228070175439" y="60.59649122807018"/>
      <point x="819.0350877192982" y="139.05263157894737" type="curve" smooth="yes"/>
      <point x="896.2105263157895" y="205.50877192982455"/>
      <point x="953.4035087719299" y="293.4035087719298"/>
      <point x="990.6315789473684" y="361.3859649122807" type="curve" smooth="yes"/>
      <point x="1107.3157894736842" y="573.3333333333334"/>
      <point x="1107.0526315789473" y="810.7017543859649"/>
      <point x="1107.0526315789473" y="898.1228070175439" type="curve" smooth="yes"/>
      <point x="1107.0526315789473" y="1322.0350877192982"/>
      <point x="887.1052631578948" y="1451.9122807017543"/>
      <point x="610.6140350877193" y="1453.421052631579" type="curve" smooth="yes"/>
      <point x="288.140350877193" y="1454.9298245614036"/>
      <point x="102.50877192982456" y="1257.3859649122808"/>
      <point x="102.50877192982456" y="967.4561403508771" type="curve" smooth="yes"/>
      <point x="102.50877192982456" y="673.0701754385965"/>
      <point x="290.719298245614" y="481.35087719298247"/>
      <point x="578.8421052631579" y="481.35087719298247" type="curve" smooth="yes"/>
      <point x="719.5964912280701" y="481.35087719298247"/>
      <point x="878.6491228070175" y="551.2631578947369"/>
      <point x="989.0526315789474" y="767.8070175438596" type="curve"/>
      <point x="885.1052631578947" y="741.8245614035088" type="line"/>
      <point x="886.859649122807" y="628.7719298245614"/>
      <point x="884.4912280701755" y="529.140350877193"/>
      <point x="798.4912280701755" y="407.7368421052631" type="curve" smooth="yes"/>
      <point x="737.7543859649123" y="301.17543859649123"/>
      <point x="607.421052631579" y="172.6140350877193"/>
      <point x="311.1578947368421" y="153.75438596491227" type="curve"/>
    </contour>
    <contour>
      <point x="581.5438596491229" y="657.1754385964912" type="curve" smooth="yes"/>
      <point x="387.9298245614035" y="657.1754385964912"/>
      <point x="337.64912280701753" y="821.5087719298245"/>
      <point x="337.64912280701753" y="971.5087719298245" type="curve" smooth="yes"/>
      <point x="337.64912280701753" y="1185.877192982456"/>
      <point x="453.0877192982456" y="1292.0526315789473"/>
      <point x="600.578947368421" y="1290.5438596491229" type="curve" smooth="yes"/>
      <point x="775.1052631578947" y="1289.7894736842104"/>
      <point x="863.9473684210526" y="1132.0701754385964"/>
      <point x="862.438596491228" y="955.6842105263158" type="curve" smooth="yes"/>
      <point x="860.9298245614035" y="735.7894736842105"/>
      <point x="716.2631578947369" y="657.1754385964912"/>
    </contour>
  </outline>
</glyph>
<glyph name="greater" format="2">
  <advance width="1141.982456140351"/>
  <unicode hex="003E"/>
  <note>
greater
</note>
  <outline>
    <contour>
      <point x="140.49122807017545" y="227.28070175438597" type="line"/>
      <point x="1007.1754385964912" y="595.2456140350877" type="line"/>
      <point x="1007.1754385964912" y="769.5263157894736" type="line"/>
      <point x="140.49122807017545" y="1136.4912280701753" type="line"/>
      <point x="140.49122807017545" y="933.2456140350877" type="line"/>
      <point x="739.0175438596491" y="682.7543859649123" type="line"/>
      <point x="140.49122807017545" y="430.7719298245614" type="line"/>
    </contour>
  </outline>
</glyph>
<glyph name="question" format="2">
  <advance width="1134.157894736842"/>
  <unicode hex="003F"/>
  <note>
question
</note>
  <outline>
    <contour>
      <point x="464.70175438596493" y="466.66666666666663" type="curve"/>
      <point x="591.7368421052631" y="466.66666666666663" type="line"/>
      <point x="586.7894736842105" y="498.2280701754386"/>
      <point x="575.7894736842105" y="581.5438596491229"/>
      <point x="575.7894736842105" y="618.8070175438596" type="curve" smooth="yes"/>
      <point x="575.7894736842105" y="854.859649122807"/>
      <point x="1013.1578947368421" y="818.8245614035088"/>
      <point x="1013.1578947368421" y="1147.859649122807" type="curve" smooth="yes"/>
      <point x="1013.1578947368421" y="1351.578947368421"/>
      <point x="839.8070175438596" y="1462.2456140350878"/>
      <point x="535.561403508772" y="1462.2456140350878" type="curve" smooth="yes"/>
      <point x="249.94736842105263" y="1462.2456140350878"/>
      <point x="119.0" y="1364.2456140350878"/>
      <point x="119.0" y="1153.298245614035" type="curve" smooth="yes"/>
      <point x="119.0" y="1135.561403508772"/>
      <point x="119.0" y="1120.5438596491229"/>
      <point x="119.0" y="1079.4912280701753" type="curve"/>
      <point x="324.9122807017544" y="1079.4912280701753" type="line"/>
      <point x="312.4035087719298" y="1119.1754385964912"/>
      <point x="311.1578947368421" y="1156.982456140351"/>
      <point x="311.1578947368421" y="1168.2456140350878" type="curve" smooth="yes"/>
      <point x="311.1578947368421" y="1268.4736842105262"/>
      <point x="404.140350877193" y="1318.298245614035"/>
      <point x="533.8070175438596" y="1318.298245614035" type="curve" smooth="yes"/>
      <point x="682.719298245614" y="1318.298245614035"/>
      <point x="778.0526315789474" y="1259.9298245614036"/>
      <point x="778.0526315789474" y="1133.5438596491229" type="curve" smooth="yes"/>
      <point x="778.0526315789474" y="895.7719298245614"/>
      <point x="443.2280701754386" y="970.6666666666666"/>
      <point x="443.2280701754386" y="607.8070175438596" type="curve" smooth="yes"/>
      <point x="443.2280701754386" y="548.561403508772"/>
      <point x="452.4561403508772" y="506.9122807017544"/>
    </contour>
    <contour>
      <point x="530.3684210526316" y="-22.473684210526315" type="curve" smooth="yes"/>
      <point x="610.6666666666666" y="-22.473684210526315"/>
      <point x="666.7719298245614" y="42.68421052631579"/>
      <point x="666.7719298245614" y="128.26315789473685" type="curve" smooth="yes"/>
      <point x="666.7719298245614" y="213.08771929824562"/>
      <point x="610.6666666666666" y="277.49122807017545"/>
      <point x="530.3684210526316" y="277.49122807017545" type="curve" smooth="yes"/>
      <point x="450.0701754385965" y="277.49122807017545"/>
      <point x="393.96491228070175" y="213.08771929824562"/>
      <point x="393.96491228070175" y="128.26315789473685" type="curve" smooth="yes"/>
      <point x="393.96491228070175" y="42.68421052631579"/>
      <point x="450.0701754385965" y="-22.473684210526315"/>
    </contour>
  </outline>
</glyph>
<glyph name="at" format="2">
  <advance width="1817.859649122807"/>
  <unicode hex="0040"/>
  <note>
at
</note>
  <outline>
    <contour>
      <point x="946.2456140350877" y="-37.96491228070175" type="curve" smooth="yes"/>
      <point x="1261.561403508772" y="-37.96491228070175"/>
      <point x="1544.140350877193" y="134.43859649122805"/>
      <point x="1684.3333333333333" y="408.4561403508772" type="curve"/>
      <point x="1517.4912280701753" y="413.0175438596491" type="line"/>
      <point x="1399.982456140351" y="220.7719298245614"/>
      <point x="1187.982456140351" y="100.73684210526315"/>
      <point x="944.7368421052631" y="100.73684210526315" type="curve" smooth="yes"/>
      <point x="581.9473684210526" y="100.73684210526315"/>
      <point x="285.42105263157896" y="376.10526315789474"/>
      <point x="285.42105263157896" y="712.2631578947369" type="curve" smooth="yes"/>
      <point x="285.42105263157896" y="1048.421052631579"/>
      <point x="581.9473684210526" y="1323.5438596491229"/>
      <point x="944.7368421052631" y="1323.5438596491229" type="curve" smooth="yes"/>
      <point x="1264.0350877192982" y="1323.5438596491229"/>
      <point x="1498.578947368421" y="1114.6842105263158"/>
      <point x="1498.578947368421" y="829.5263157894736" type="curve" smooth="yes"/>
      <point x="1498.578947368421" y="737.280701754386"/>
      <point x="1472.578947368421" y="650.4912280701755"/>
      <point x="1425.5964912280701" y="585.2105263157895" type="curve" smooth="yes"/>
      <point x="1394.5087719298247" y="538.5438596491229"/>
      <point x="1340.9298245614036" y="464.82456140350877"/>
      <point x="1279.017543859649" y="425.2456140350877" type="curve" smooth="yes"/>
      <point x="1250.2105263157896" y="431.4736842105263"/>
      <point x="1216.842105263158" y="444.7719298245614"/>
      <point x="1216.8947368421052" y="484.7368421052632" type="curve"/>
      <point x="1379.2631578947369" y="1101.877192982456" type="line"/>
      <point x="1151.719298245614" y="1101.877192982456" type="line"/>
      <point x="1135.3859649122808" y="1051.2280701754387" type="line"/>
      <point x="1103.701754385965" y="1101.5263157894738"/>
      <point x="1047.9649122807018" y="1121.877192982456"/>
      <point x="964.8947368421053" y="1121.877192982456" type="curve" smooth="yes"/>
      <point x="681.280701754386" y="1121.877192982456"/>
      <point x="453.50877192982455" y="849.6315789473684"/>
      <point x="453.50877192982455" y="576.3859649122807" type="curve" smooth="yes"/>
      <point x="453.50877192982455" y="389.280701754386"/>
      <point x="572.140350877193" y="271.10526315789474"/>
      <point x="769.2105263157895" y="271.10526315789474" type="curve" smooth="yes"/>
      <point x="875.9473684210526" y="271.10526315789474"/>
      <point x="956.3157894736842" y="299.66666666666663"/>
      <point x="1027.701754385965" y="380.280701754386" type="curve"/>
      <point x="1062.578947368421" y="317.4736842105263"/>
      <point x="1102.3333333333333" y="284.10526315789474"/>
      <point x="1198.122807017544" y="284.10526315789474" type="curve" smooth="yes"/>
      <point x="1274.0877192982457" y="284.10526315789474"/>
      <point x="1346.7894736842106" y="312.0877192982456"/>
      <point x="1416.4561403508771" y="364.03508771929825" type="curve" smooth="yes"/>
      <point x="1490.122807017544" y="418.2280701754386"/>
      <point x="1536.1052631578948" y="473.2456140350877"/>
      <point x="1579.0526315789473" y="553.1929824561404" type="curve" smooth="yes"/>
      <point x="1624.0" y="638.6491228070175"/>
      <point x="1645.982456140351" y="728.8771929824561"/>
      <point x="1645.982456140351" y="827.5438596491229" type="curve" smooth="yes"/>
      <point x="1645.982456140351" y="1207.5263157894738"/>
      <point x="1358.8245614035088" y="1461.4912280701753"/>
      <point x="946.2456140350877" y="1461.4912280701753" type="curve" smooth="yes"/>
      <point x="498.4035087719298" y="1461.4912280701753"/>
      <point x="139.01754385964912" y="1128.4912280701753"/>
      <point x="139.01754385964912" y="712.2631578947369" type="curve" smooth="yes"/>
      <point x="139.01754385964912" y="294.7894736842105"/>
      <point x="497.1578947368421" y="-37.96491228070175"/>
    </contour>
    <contour>
      <point x="806.7017543859649" y="409.2631578947368" type="curve" smooth="yes"/>
      <point x="729.7368421052631" y="409.2631578947368"/>
      <point x="685.7894736842105" y="460.87719298245617"/>
      <point x="685.7894736842105" y="562.1578947368421" type="curve" smooth="yes"/>
      <point x="685.7894736842105" y="771.2982456140351"/>
      <point x="828.8947368421052" y="985.7017543859649"/>
      <point x="979.859649122807" y="985.7017543859649" type="curve" smooth="yes"/>
      <point x="1039.4561403508771" y="985.7017543859649"/>
      <point x="1056.7543859649122" y="939.0701754385965"/>
      <point x="1056.7543859649122" y="848.2982456140351" type="curve" smooth="yes"/>
      <point x="1056.7543859649122" y="670.1929824561404"/>
      <point x="944.8421052631579" y="409.2631578947368"/>
    </contour>
  </outline>
</glyph>
<glyph name="A" format="2">
  <advance width="1598.719298245614"/>
  <unicode hex="0041"/>
  <note>
A
</note>
  <anchor x="798.7368421052631" y="19.824561403508767" name="bottom"/>
  <anchor x="1285.1929824561403" y="0.0" name="ogonek"/>
  <anchor x="798.7368421052631" y="1430.0" name="top"/>
  <outline>
    <contour>
      <point x="101.26315789473685" y="0.0" type="line"/>
      <point x="251.22807017543857" y="0.0" type="line"/>
      <point x="760.0" y="1104.1929824561403" type="line"/>
      <point x="718.9122807017544" y="1125.7368421052631" type="line"/>
      <point x="1224.5087719298247" y="0.0" type="line"/>
      <point x="1497.4561403508771" y="0.0" type="line"/>
      <point x="797.4912280701755" y="1473.719298245614" type="line"/>
    </contour>
    <contour>
      <point x="330.05263157894734" y="397.49122807017545" type="line"/>
      <point x="1151.6842105263158" y="397.49122807017545" type="line"/>
      <point x="1092.8070175438597" y="548.421052631579" type="line"/>
      <point x="394.1578947368421" y="548.421052631579" type="line"/>
    </contour>
  </outline>
</glyph>
<glyph name="B" format="2">
  <advance width="1320.0701754385964"/>
  <unicode hex="0042"/>
  <note>
B
</note>
  <anchor x="644.2280701754386" y="19.824561403508767" name="bottom"/>
  <anchor x="644.2280701754386" y="1430.0" name="top"/>
  <outline>
    <contour>
      <point x="140.26315789473685" y="0.0" type="line"/>
      <point x="598.0701754385965" y="0.0" type="line" smooth="yes"/>
      <point x="1010.3859649122808" y="0.0"/>
      <point x="1212.8070175438597" y="138.78947368421052"/>
      <point x="1212.8070175438597" y="424.64912280701753" type="curve" smooth="yes"/>
      <point x="1212.8070175438597" y="632.8947368421053"/>
      <point x="1088.017543859649" y="769.4912280701755"/>
      <point x="870.8245614035088" y="802.6666666666666" type="curve"/>
      <point x="862.8947368421052" y="712.3157894736842" type="line"/>
      <point x="1053.578947368421" y="764.2456140350877"/>
      <point x="1149.877192982456" y="872.578947368421"/>
      <point x="1149.877192982456" y="1035.5964912280701" type="curve" smooth="yes"/>
      <point x="1149.877192982456" y="1288.2105263157894"/>
      <point x="951.4736842105262" y="1433.982456140351"/>
      <point x="605.6140350877193" y="1433.982456140351" type="curve" smooth="yes"/>
      <point x="140.26315789473685" y="1433.982456140351" type="line"/>
    </contour>
    <contour>
      <point x="396.7543859649123" y="11.75438596491228" type="line"/>
      <point x="396.7543859649123" y="797.1578947368421" type="line"/>
      <point x="301.4736842105263" y="685.6491228070175" type="line"/>
      <point x="642.5263157894736" y="685.6491228070175" type="line" smooth="yes"/>
      <point x="820.4912280701755" y="685.6491228070175"/>
      <point x="933.6315789473684" y="585.3157894736842"/>
      <point x="933.6315789473684" y="427.42105263157896" type="curve" smooth="yes"/>
      <point x="933.6315789473684" y="252.26315789473685"/>
      <point x="798.5087719298245" y="143.21052631578948"/>
      <point x="581.4736842105264" y="143.21052631578948" type="curve" smooth="yes"/>
      <point x="190.49122807017545" y="143.21052631578948" type="line"/>
    </contour>
    <contour>
      <point x="396.7543859649123" y="714.8421052631579" type="line"/>
      <point x="396.7543859649123" y="1414.2631578947369" type="line"/>
      <point x="174.140350877193" y="1290.7719298245613" type="line"/>
      <point x="598.0701754385965" y="1290.7719298245613" type="line" smooth="yes"/>
      <point x="802.9122807017544" y="1290.7719298245613"/>
      <point x="876.421052631579" y="1157.6315789473683"/>
      <point x="876.421052631579" y="1021.8771929824561" type="curve" smooth="yes"/>
      <point x="876.421052631579" y="877.438596491228"/>
      <point x="788.7017543859649" y="827.5964912280701"/>
      <point x="605.6140350877193" y="827.5964912280701" type="curve" smooth="yes"/>
      <point x="320.8421052631579" y="827.5964912280701" type="line"/>
    </contour>
  </outline>
</glyph>
<glyph name="C" format="2">
  <advance width="1610.3508771929824"/>
  <unicode hex="0043"/>
  <note>
C
</note>
  <anchor x="784.0175438596491" y="19.824561403508767" name="bottom"/>
  <anchor x="834.01" y="1430.0" name="top"/>
  <outline>
    <contour>
      <point x="847.0175438596491" y="-29.666666666666664" type="curve" smooth="yes"/>
      <point x="1146.0701754385964" y="-29.666666666666664"/>
      <point x="1378.298245614035" y="119.66666666666666"/>
      <point x="1507.0877192982457" y="402.2631578947368" type="curve"/>
      <point x="1249.8070175438597" y="402.2631578947368" type="line"/>
      <point x="1168.2456140350878" y="217.78947368421052"/>
      <point x="1027.140350877193" y="118.03508771929825"/>
      <point x="845.7894736842105" y="118.03508771929825" type="curve" smooth="yes"/>
      <point x="557.0350877192982" y="118.03508771929825"/>
      <point x="364.33333333333337" y="354.1578947368421"/>
      <point x="364.33333333333337" y="712.7719298245614" type="curve" smooth="yes"/>
      <point x="364.33333333333337" y="1071.6315789473683"/>
      <point x="556.5263157894736" y="1309.4912280701753"/>
      <point x="843.5263157894736" y="1309.4912280701753" type="curve" smooth="yes"/>
      <point x="1028.140350877193" y="1309.4912280701753"/>
      <point x="1176.5438596491229" y="1208.2280701754387"/>
      <point x="1247.8245614035088" y="1026.2631578947369" type="curve"/>
      <point x="1496.3859649122808" y="1026.2631578947369" type="line"/>
      <point x="1410.7894736842104" y="1288.157894736842"/>
      <point x="1140.859649122807" y="1456.1929824561403"/>
      <point x="843.0350877192982" y="1456.1929824561403" type="curve" smooth="yes"/>
      <point x="421.36842105263156" y="1456.1929824561403"/>
      <point x="110.01754385964912" y="1135.7894736842106"/>
      <point x="110.01754385964912" y="713.5087719298245" type="curve" smooth="yes"/>
      <point x="110.01754385964912" y="286.96491228070175"/>
      <point x="418.35087719298247" y="-29.666666666666664"/>
    </contour>
  </outline>
</glyph>
<glyph name="D" format="2">
  <advance width="1495.157894736842"/>
  <unicode hex="0044"/>
  <note>
D
</note>
  <anchor x="755.6666666666666" y="-8.298245614035089" name="bottom"/>
  <anchor x="271.140350877193" y="715.0" name="center"/>
  <anchor x="755.6666666666666" y="1430.0" name="top"/>
  <outline>
    <contour>
      <point x="140.26315789473685" y="0.24561403508771928" type="line"/>
      <point x="562.1578947368421" y="0.24561403508771928" type="line" smooth="yes"/>
      <point x="848.6315789473684" y="0.24561403508771928"/>
      <point x="956.280701754386" y="20.789473684210527"/>
      <point x="1113.6491228070176" y="123.40350877192982" type="curve" smooth="yes"/>
      <point x="1264.2631578947369" y="219.9298245614035"/>
      <point x="1384.140350877193" y="421.2105263157895"/>
      <point x="1384.140350877193" y="716.4912280701755" type="curve" smooth="yes"/>
      <point x="1384.140350877193" y="965.3157894736842"/>
      <point x="1294.719298245614" y="1169.280701754386"/>
      <point x="1160.4561403508771" y="1277.5263157894738" type="curve" smooth="yes"/>
      <point x="995.8245614035088" y="1410.6666666666667"/>
      <point x="874.3508771929825" y="1433.7368421052631"/>
      <point x="498.9122807017544" y="1433.7368421052631" type="curve" smooth="yes"/>
      <point x="140.26315789473685" y="1433.7368421052631" type="line"/>
    </contour>
    <contour>
      <point x="405.50877192982455" y="6.789473684210527" type="line"/>
      <point x="405.50877192982455" y="1427.1929824561403" type="line"/>
      <point x="193.96491228070175" y="1290.5263157894738" type="line"/>
      <point x="536.3508771929825" y="1290.5263157894738" type="line" smooth="yes"/>
      <point x="946.0350877192982" y="1290.5263157894738"/>
      <point x="1129.3508771929824" y="1129.3684210526317"/>
      <point x="1129.3508771929824" y="722.7368421052631" type="curve" smooth="yes"/>
      <point x="1129.3508771929824" y="310.8421052631579"/>
      <point x="941.2982456140351" y="143.4561403508772"/>
      <point x="533.578947368421" y="143.4561403508772" type="curve" smooth="yes"/>
      <point x="193.96491228070175" y="143.4561403508772" type="line"/>
    </contour>
  </outline>
</glyph>
<glyph name="E" format="2">
  <advance width="1202.157894736842"/>
  <unicode hex="0045"/>
  <note>
E
</note>
  <anchor x="585.5263157894736" y="19.824561403508767" name="bottom"/>
  <anchor x="973.1578947368421" y="0.0" name="ogonek"/>
  <anchor x="631.0" y="1430.0" name="top"/>
  <anchor x="12.421052631578945" y="1430.0" name="topleft"/>
  <outline>
    <contour>
      <point x="140.26315789473685" y="0.0" type="line"/>
      <point x="1087.421052631579" y="0.0" type="line"/>
      <point x="1087.421052631579" y="143.21052631578948" type="line"/>
      <point x="248.6140350877193" y="143.21052631578948" type="line"/>
      <point x="396.7543859649123" y="10.771929824561404" type="line"/>
      <point x="396.7543859649123" y="795.3333333333334" type="line"/>
      <point x="218.12280701754386" y="658.3859649122807" type="line"/>
      <point x="1087.421052631579" y="658.3859649122807" type="line"/>
      <point x="1087.421052631579" y="801.5964912280701" type="line"/>
      <point x="248.6140350877193" y="801.5964912280701" type="line"/>
      <point x="396.7543859649123" y="669.1578947368421" type="line"/>
      <point x="396.7543859649123" y="1422.982456140351" type="line"/>
      <point x="186.71929824561403" y="1290.7719298245613" type="line"/>
      <point x="1087.421052631579" y="1290.7719298245613" type="line"/>
      <point x="1087.421052631579" y="1433.982456140351" type="line"/>
      <point x="140.26315789473685" y="1433.982456140351" type="line"/>
    </contour>
  </outline>
</glyph>
<glyph name="F" format="2">
  <advance width="1154.5263157894738"/>
  <unicode hex="0046"/>
  <note>
F
</note>
  <anchor x="558.5964912280701" y="19.824561403508767" name="bottom"/>
  <anchor x="558.5964912280701" y="1430.0" name="top"/>
  <outline>
    <contour>
      <point x="140.26315789473685" y="0.0" type="line"/>
      <point x="396.7543859649123" y="0.0" type="line"/>
      <point x="396.7543859649123" y="781.6491228070175" type="line"/>
      <point x="192.75438596491227" y="647.9298245614035" type="line"/>
      <point x="1043.5263157894738" y="647.9298245614035" type="line"/>
      <point x="1043.5263157894738" y="789.8947368421053" type="line"/>
      <point x="182.19298245614036" y="789.8947368421053" type="line"/>
      <point x="396.7543859649123" y="653.9649122807018" type="line"/>
      <point x="396.7543859649123" y="1415.017543859649" type="line"/>
      <point x="186.71929824561403" y="1290.7719298245613" type="line"/>
      <point x="1043.5263157894738" y="1290.7719298245613" type="line"/>
      <point x="1043.5263157894738" y="1433.982456140351" type="line"/>
      <point x="140.26315789473685" y="1433.982456140351" type="line"/>
    </contour>
  </outline>
</glyph>
<glyph name="G" format="2">
  <advance width="1681.6842105263158"/>
  <unicode hex="0047"/>
  <note>
G
</note>
  <anchor x="835.4912280701755" y="19.824561403508767" name="bottom"/>
  <anchor x="835.4912280701755" y="1430.0" name="top"/>
  <outline>
    <contour>
      <point x="846.2105263157895" y="-29.666666666666664" type="curve" smooth="yes"/>
      <point x="1254.3333333333333" y="-29.666666666666664"/>
      <point x="1551.1754385964912" y="252.01754385964912"/>
      <point x="1576.6666666666667" y="657.7368421052631" type="curve"/>
      <point x="1315.6315789473683" y="657.7368421052631" type="line"/>
      <point x="1298.1052631578948" y="327.6666666666667"/>
      <point x="1113.9473684210527" y="115.08771929824562"/>
      <point x="844.719298245614" y="111.3157894736842" type="curve"/>
      <point x="559.4736842105264" y="115.84210526315789"/>
      <point x="370.8070175438596" y="353.9298245614035"/>
      <point x="370.8070175438596" y="711.7719298245614" type="curve" smooth="yes"/>
      <point x="370.8070175438596" y="1070.6140350877192"/>
      <point x="561.2280701754386" y="1312.9473684210527"/>
      <point x="844.9649122807018" y="1315.2105263157894" type="curve"/>
      <point x="1029.578947368421" y="1313.701754385965"/>
      <point x="1171.701754385965" y="1213.438596491228"/>
      <point x="1250.5263157894738" y="1033.982456140351" type="curve"/>
      <point x="1513.5964912280701" y="1033.982456140351" type="line"/>
      <point x="1412.3157894736842" y="1286.5964912280701"/>
      <point x="1139.842105263158" y="1456.1929824561403"/>
      <point x="844.719298245614" y="1456.1929824561403" type="curve" smooth="yes"/>
      <point x="424.82456140350877" y="1456.1929824561403"/>
      <point x="110.26315789473685" y="1135.7894736842106"/>
      <point x="110.26315789473685" y="713.7543859649123" type="curve" smooth="yes"/>
      <point x="110.26315789473685" y="279.2631578947368"/>
      <point x="413.6140350877193" y="-29.666666666666664"/>
    </contour>
    <contour>
      <point x="960.4912280701755" y="513.7719298245614" type="line"/>
      <point x="1472.5087719298247" y="513.7719298245614" type="line"/>
      <point x="1472.5087719298247" y="656.9824561403509" type="line"/>
      <point x="960.4912280701755" y="656.9824561403509" type="line"/>
    </contour>
  </outline>
</glyph>
<glyph name="H" format="2">
  <advance width="1562.859649122807"/>
  <unicode hex="0048"/>
  <note>
H
</note>
  <anchor x="781.8070175438596" y="19.824561403508767" name="bottom"/>
  <anchor x="781.8070175438596" y="715.0" name="center"/>
  <anchor x="781.8070175438596" y="1430.0" name="top"/>
  <anchor x="12.421052631578945" y="1430.0" name="topleft"/>
  <outline>
    <contour>
      <point x="140.26315789473685" y="0.0" type="line"/>
      <point x="392.5438596491228" y="0.0" type="line"/>
      <point x="392.5438596491228" y="807.0" type="line"/>
      <point x="178.19298245614036" y="662.3859649122807" type="line"/>
      <point x="1377.3684210526317" y="662.3859649122807" type="line"/>
      <point x="1170.3157894736842" y="807.0" type="line"/>
      <point x="1170.3157894736842" y="0.0" type="line"/>
      <point x="1422.5964912280701" y="0.0" type="line"/>
      <point x="1422.5964912280701" y="1433.982456140351" type="line"/>
      <point x="1170.3157894736842" y="1433.982456140351" type="line"/>
      <point x="1170.3157894736842" y="662.4736842105264" type="line"/>
      <point x="1377.3684210526317" y="807.0877192982456" type="line"/>
      <point x="178.19298245614036" y="807.0877192982456" type="line"/>
      <point x="392.5438596491228" y="662.4736842105264" type="line"/>
      <point x="392.5438596491228" y="1433.982456140351" type="line"/>
      <point x="140.26315789473685" y="1433.982456140351" type="line"/>
    </contour>
  </outline>
</glyph>
<glyph name="I" format="2">
  <advance width="536.2631578947369"/>
  <unicode hex="0049"/>
  <note>
I
</note>
  <anchor x="268.63157894736844" y="19.824561403508767" name="bottom"/>
  <anchor x="302.719298245614" y="0.0" name="ogonek"/>
  <anchor x="268.63157894736844" y="1430.0" name="top"/>
  <anchor x="11.175438596491226" y="1430.0" name="topleft"/>
  <outline>
    <contour>
      <point x="140.26315789473685" y="0.0" type="line"/>
      <point x="396.7543859649123" y="0.0" type="line"/>
      <point x="396.7543859649123" y="1433.982456140351" type="line"/>
      <point x="140.26315789473685" y="1433.982456140351" type="line"/>
    </contour>
  </outline>
</glyph>
<glyph name="J" format="2">
  <advance width="917.4912280701755"/>
  <unicode hex="004A"/>
  <note>
J
</note>
  <anchor x="482.140350877193" y="19.824561403508767" name="bottom"/>
  <anchor x="482.140350877193" y="1430.0" name="top"/>
  <outline>
    <contour>
      <point x="105.75438596491227" y="-34.192982456140356" type="line"/>
      <point x="173.19298245614036" y="-93.57894736842105"/>
      <point x="303.140350877193" y="-151.2280701754386"/>
      <point x="431.1929824561404" y="-151.2280701754386" type="curve" smooth="yes"/>
      <point x="656.3508771929825" y="-151.2280701754386"/>
      <point x="780.9649122807018" y="25.21052631578948"/>
      <point x="780.9649122807018" y="316.7719298245614" type="curve" smooth="yes"/>
      <point x="780.9649122807018" y="1433.982456140351" type="line"/>
      <point x="524.719298245614" y="1433.982456140351" type="line"/>
      <point x="524.719298245614" y="315.3157894736842" type="line" smooth="yes"/>
      <point x="524.719298245614" y="62.24561403508771"/>
      <point x="512.8070175438596" y="3.1929824561403564"/>
      <point x="407.82456140350877" y="3.1929824561403564" type="curve" smooth="yes"/>
      <point x="286.719298245614" y="3.1929824561403564"/>
      <point x="178.6315789473684" y="77.59649122807018"/>
      <point x="105.75438596491227" y="133.4736842105263" type="curve"/>
    </contour>
  </outline>
</glyph>
<glyph name="K" format="2">
  <advance width="1506.157894736842"/>
  <unicode hex="004B"/>
  <note>
K
</note>
  <anchor x="707.0350877192982" y="19.824561403508767" name="bottom"/>
  <anchor x="707.0350877192982" y="1430.0" name="top"/>
  <outline>
    <contour>
      <point x="140.26315789473685" y="0.0" type="line"/>
      <point x="396.7543859649123" y="0.0" type="line"/>
      <point x="396.7543859649123" y="1433.982456140351" type="line"/>
      <point x="140.26315789473685" y="1433.982456140351" type="line"/>
    </contour>
    <contour>
      <point x="381.719298245614" y="462.63157894736844" type="line"/>
      <point x="1315.5087719298244" y="1433.982456140351" type="line"/>
      <point x="1093.578947368421" y="1433.982456140351" type="line"/>
      <point x="259.7543859649123" y="557.1228070175439" type="line"/>
    </contour>
    <contour>
      <point x="1100.6491228070176" y="0.0" type="line"/>
      <point x="1405.6491228070176" y="0.0" type="line"/>
      <point x="707.8245614035088" y="872.0350877192982" type="line"/>
      <point x="525.0877192982456" y="718.3684210526316" type="line"/>
    </contour>
  </outline>
</glyph>
<glyph name="L" format="2">
  <advance width="1194.9649122807018"/>
  <unicode hex="004C"/>
  <note>
L
</note>
  <anchor x="597.859649122807" y="19.824561403508767" name="bottom"/>
  <anchor x="256.1578947368421" y="715.0" name="center"/>
  <anchor x="811.9824561403509" y="796.4035087719299" name="dot"/>
  <anchor x="1122.7719298245615" y="10.0" name="ogonek"/>
  <anchor x="408.8070175438596" y="1430.0" name="top"/>
  <anchor x="-48.228070175438596" y="1430.0" name="topleft"/>
  <anchor x="844.2105263157895" y="1430.0" name="topright"/>
  <outline>
    <contour>
      <point x="140.26315789473685" y="0.0" type="line"/>
      <point x="1090.4561403508771" y="0.0" type="line"/>
      <point x="1090.4561403508771" y="130.26315789473685" type="line"/>
      <point x="190.4561403508772" y="130.26315789473685" type="line"/>
      <point x="400.50877192982455" y="19.228070175438596" type="line"/>
      <point x="400.50877192982455" y="1431.719298245614" type="line"/>
      <point x="140.26315789473685" y="1431.719298245614" type="line"/>
    </contour>
  </outline>
</glyph>
<glyph name="M" format="2">
  <advance width="1785.6842105263158"/>
  <unicode hex="004D"/>
  <note>
M
</note>
  <anchor x="892.9649122807018" y="19.824561403508767" name="bottom"/>
  <anchor x="892.9649122807018" y="1430.0" name="top"/>
  <outline>
    <contour>
      <point x="140.26315789473685" y="0.0" type="line"/>
      <point x="346.719298245614" y="0.0" type="line"/>
      <point x="346.719298245614" y="1249.9298245614036" type="line"/>
      <point x="221.5964912280702" y="1216.298245614035" type="line"/>
      <point x="871.561403508772" y="31.736842105263158" type="line"/>
      <point x="1504.3508771929824" y="1270.3157894736842" type="line"/>
      <point x="1395.4035087719299" y="1208.6140350877192" type="line"/>
      <point x="1395.4035087719299" y="0.0" type="line"/>
      <point x="1645.421052631579" y="0.0" type="line"/>
      <point x="1645.421052631579" y="1433.982456140351" type="line"/>
      <point x="1353.6140350877192" y="1433.982456140351" type="line"/>
      <point x="774.0526315789474" y="305.10526315789474" type="line"/>
      <point x="979.7719298245614" y="332.9824561403509" type="line"/>
      <point x="379.5438596491228" y="1433.982456140351" type="line"/>
      <point x="140.26315789473685" y="1433.982456140351" type="line"/>
    </contour>
  </outline>
</glyph>
<glyph name="N" format="2">
  <advance width="1572.7894736842106"/>
  <unicode hex="004E"/>
  <note>
N
</note>
  <anchor x="786.8947368421053" y="19.824561403508767" name="bottom"/>
  <anchor x="786.8947368421053" y="1430.0" name="top"/>
  <outline>
    <contour>
      <point x="147.2280701754386" y="0.0" type="line"/>
      <point x="351.9473684210526" y="0.0" type="line"/>
      <point x="351.9473684210526" y="1141.0526315789473" type="line"/>
      <point x="220.6315789473684" y="1185.2631578947369" type="line"/>
      <point x="1208.7543859649122" y="0.0" type="line"/>
      <point x="1432.5263157894738" y="0.0" type="line"/>
      <point x="1432.5263157894738" y="1433.982456140351" type="line"/>
      <point x="1226.3157894736842" y="1433.982456140351" type="line"/>
      <point x="1226.3157894736842" y="217.50877192982455" type="line"/>
      <point x="1337.6666666666667" y="250.05263157894737" type="line"/>
      <point x="365.82456140350877" y="1433.982456140351" type="line"/>
      <point x="140.26315789473685" y="1433.982456140351" type="line"/>
    </contour>
  </outline>
</glyph>
<glyph name="O" format="2">
  <advance width="1686.1929824561403"/>
  <unicode hex="004F"/>
  <note>
O
</note>
  <anchor x="843.4736842105264" y="-8.298245614035089" name="bottom"/>
  <anchor x="843.4736842105264" y="715.0" name="center"/>
  <anchor x="986.1929824561404" y="0.0" name="ogonek"/>
  <anchor x="843.4736842105264" y="1430.0" name="top"/>
  <anchor x="34.578947368421055" y="1430.0" name="topleft"/>
  <anchor x="1427.6315789473683" y="1430.0" name="topright"/>
  <outline>
    <contour>
      <point x="843.4736842105264" y="-29.666666666666664" type="curve" smooth="yes"/>
      <point x="1271.1052631578948" y="-29.666666666666664"/>
      <point x="1576.1754385964912" y="282.7368421052632"/>
      <point x="1576.1754385964912" y="711.2456140350877" type="curve" smooth="yes"/>
      <point x="1576.1754385964912" y="1140.2631578947369"/>
      <point x="1269.0877192982457" y="1456.438596491228"/>
      <point x="843.719298245614" y="1456.438596491228" type="curve" smooth="yes"/>
      <point x="419.859649122807" y="1456.438596491228"/>
      <point x="110.26315789473685" y="1139.5087719298247"/>
      <point x="110.26315789473685" y="711.0" type="curve" smooth="yes"/>
      <point x="110.26315789473685" y="282.7368421052632"/>
      <point x="416.5964912280702" y="-29.666666666666664"/>
    </contour>
    <contour>
      <point x="843.4736842105264" y="112.56140350877193" type="curve"/>
      <point x="559.719298245614" y="117.08771929824562"/>
      <point x="371.0526315789474" y="356.1578947368421"/>
      <point x="371.0526315789474" y="712.0" type="curve" smooth="yes"/>
      <point x="371.0526315789474" y="1069.3508771929824"/>
      <point x="560.9824561403509" y="1311.9473684210527"/>
      <point x="843.719298245614" y="1314.9649122807018" type="curve"/>
      <point x="1125.9649122807018" y="1311.9473684210527"/>
      <point x="1316.140350877193" y="1069.1052631578948"/>
      <point x="1316.140350877193" y="711.7543859649123" type="curve" smooth="yes"/>
      <point x="1316.140350877193" y="355.1578947368421"/>
      <point x="1128.4736842105262" y="117.08771929824562"/>
    </contour>
  </outline>
</glyph>
<glyph name="P" format="2">
  <advance width="1216.2631578947369"/>
  <unicode hex="0050"/>
  <note>
P
</note>
  <anchor x="591.7017543859649" y="-40.526315789473685" name="bottom"/>
  <anchor x="591.7017543859649" y="1430.0" name="top"/>
  <outline>
    <contour>
      <point x="140.26315789473685" y="0.0" type="line"/>
      <point x="390.280701754386" y="0.0" type="line"/>
      <point x="390.280701754386" y="629.3508771929825" type="line"/>
      <point x="258.7894736842105" y="527.7894736842105" type="line"/>
      <point x="583.3508771929825" y="527.7894736842105" type="line" smooth="yes"/>
      <point x="731.4035087719299" y="527.7894736842105"/>
      <point x="843.9473684210526" y="558.5438596491229"/>
      <point x="942.8771929824561" y="626.280701754386" type="curve" smooth="yes"/>
      <point x="1043.0877192982457" y="694.7894736842105"/>
      <point x="1108.2456140350878" y="834.6491228070175"/>
      <point x="1108.2456140350878" y="982.6491228070175" type="curve" smooth="yes"/>
      <point x="1108.2456140350878" y="1114.6491228070176"/>
      <point x="1061.5438596491229" y="1229.3333333333333"/>
      <point x="980.578947368421" y="1299.8245614035088" type="curve" smooth="yes"/>
      <point x="872.438596491228" y="1391.7543859649122"/>
      <point x="738.7017543859649" y="1433.982456140351"/>
      <point x="553.9824561403509" y="1433.982456140351" type="curve" smooth="yes"/>
      <point x="140.26315789473685" y="1433.982456140351" type="line"/>
    </contour>
    <contour>
      <point x="390.280701754386" y="550.5087719298245" type="line"/>
      <point x="390.280701754386" y="1417.4912280701753" type="line"/>
      <point x="176.4736842105263" y="1300.2280701754387" type="line"/>
      <point x="536.859649122807" y="1300.2280701754387" type="line" smooth="yes"/>
      <point x="751.8245614035088" y="1300.2280701754387"/>
      <point x="855.719298245614" y="1190.2631578947369"/>
      <point x="855.719298245614" y="969.1929824561404" type="curve" smooth="yes"/>
      <point x="855.719298245614" y="810.0877192982456"/>
      <point x="765.5087719298245" y="668.5087719298245"/>
      <point x="536.859649122807" y="668.5087719298245" type="curve" smooth="yes"/>
      <point x="307.0701754385965" y="668.5087719298245" type="line"/>
    </contour>
  </outline>
</glyph>
<glyph name="Q" format="2">
  <advance width="1686.1929824561403"/>
  <unicode hex="0051"/>
  <note>
Q
</note>
  <anchor x="803.4561403508771" y="65.98245614035088" name="bottom"/>
  <anchor x="803.4561403508771" y="1377.3684210526317" name="top"/>
  <anchor x="843.4736842105264" y="761.8012728070175" name="center"/>
  <anchor x="986.1929824561404" y="44.64912280701754" name="ogonek"/>
  <anchor x="34.578947368421055" y="1478.9534228070174" name="topleft"/>
  <anchor x="1427.6315789473683" y="1478.9534228070174" name="topright"/>
  <outline>
    <contour>
      <point x="1076.3684210526317" y="-382.94736842105266" type="curve" smooth="yes"/>
      <point x="1214.842105263158" y="-382.94736842105266"/>
      <point x="1242.0350877192982" y="-367.2456140350877"/>
      <point x="1233.8245614035088" y="-225.03508771929825" type="curve"/>
      <point x="1191.6842105263158" y="-225.03508771929825"/>
      <point x="1149.298245614035" y="-225.03508771929825"/>
      <point x="1106.9122807017543" y="-225.03508771929825" type="curve" smooth="yes"/>
      <point x="982.1929824561404" y="-225.03508771929825"/>
      <point x="915.578947368421" y="-190.70175438596493"/>
      <point x="915.578947368421" y="-127.78947368421052" type="curve" smooth="yes"/>
      <point x="915.578947368421" y="97.2982456140351" type="line"/>
      <point x="672.0877192982456" y="97.2982456140351" type="line"/>
      <point x="672.0877192982456" y="-122.85964912280701" type="line" smooth="yes"/>
      <point x="672.0877192982456" y="-234.0701754385965"/>
      <point x="744.280701754386" y="-310.49122807017545"/>
      <point x="833.3157894736842" y="-344.43859649122805" type="curve" smooth="yes"/>
      <point x="907.4912280701755" y="-373.43859649122805"/>
      <point x="964.2105263157895" y="-382.94736842105266"/>
    </contour>
    <component base="O" yScale="1.00301" yOffset="44.64912280701754"/>
  </outline>
</glyph>
<glyph name="R" format="2">
  <advance width="1270.5087719298244"/>
  <unicode hex="0052"/>
  <note>
R
</note>
  <anchor x="625.1754385964912" y="19.824561403508767" name="bottom"/>
  <anchor x="625.1754385964912" y="1430.0" name="top"/>
  <outline>
    <contour>
      <point x="140.26315789473685" y="0.0" type="line"/>
      <point x="390.280701754386" y="0.0" type="line"/>
      <point x="390.280701754386" y="698.140350877193" type="line"/>
      <point x="272.36842105263156" y="604.8771929824561" type="line"/>
      <point x="566.2456140350878" y="604.8771929824561" type="line"/>
      <point x="636.1578947368421" y="604.8771929824561" type="line"/>
      <point x="896.0877192982456" y="626.0"/>
      <point x="1108.2456140350878" y="742.719298245614"/>
      <point x="1108.2456140350878" y="1013.5964912280701" type="curve" smooth="yes"/>
      <point x="1108.2456140350878" y="1294.5964912280701"/>
      <point x="881.140350877193" y="1433.982456140351"/>
      <point x="553.9824561403509" y="1433.982456140351" type="curve" smooth="yes"/>
      <point x="140.26315789473685" y="1433.982456140351" type="line"/>
    </contour>
    <contour>
      <point x="321.4035087719298" y="739.3684210526316" type="line"/>
      <point x="390.280701754386" y="636.6491228070175" type="line"/>
      <point x="390.280701754386" y="1407.6842105263158" type="line"/>
      <point x="183.26315789473685" y="1300.2280701754387" type="line"/>
      <point x="536.859649122807" y="1300.2280701754387" type="line" smooth="yes"/>
      <point x="751.8245614035088" y="1300.2280701754387"/>
      <point x="855.719298245614" y="1221.9649122807018"/>
      <point x="855.719298245614" y="1018.0701754385965" type="curve" smooth="yes"/>
      <point x="855.719298245614" y="830.0877192982456"/>
      <point x="765.5087719298245" y="739.3684210526316"/>
      <point x="536.859649122807" y="739.3684210526316" type="curve" smooth="yes"/>
    </contour>
    <contour>
      <point x="463.8771929824561" y="604.8771929824561" type="line"/>
      <point x="549.8771929824561" y="604.8771929824561"/>
      <point x="650.2280701754386" y="606.0526315789474"/>
      <point x="729.8771929824561" y="549.8771929824561" type="curve" smooth="yes"/>
      <point x="775.2280701754386" y="517.0526315789474"/>
      <point x="813.6315789473684" y="488.35087719298247"/>
      <point x="878.8771929824561" y="203.82456140350877" type="curve" smooth="yes"/>
      <point x="892.3859649122807" y="141.5263157894737"/>
      <point x="908.3859649122807" y="68.52631578947368"/>
      <point x="923.140350877193" y="0.0" type="curve"/>
      <point x="1167.2456140350878" y="0.0" type="line"/>
      <point x="1141.7368421052631" y="94.26315789473685"/>
      <point x="1114.7368421052631" y="216.7719298245614"/>
      <point x="1101.4736842105262" y="278.82456140350877" type="curve" smooth="yes"/>
      <point x="1055.2280701754385" y="494.7894736842105"/>
      <point x="998.3157894736842" y="563.7894736842105"/>
      <point x="969.4736842105262" y="591.8771929824561" type="curve" smooth="yes"/>
      <point x="911.859649122807" y="648.2456140350877"/>
      <point x="874.3508771929825" y="651.3157894736842"/>
      <point x="821.9122807017544" y="661.3333333333334" type="curve"/>
    </contour>
  </outline>
</glyph>
<glyph name="S" format="2">
  <advance width="1294.4736842105262"/>
  <unicode hex="0053"/>
  <note>
S
</note>
  <anchor x="647.7368421052631" y="19.824561403508767" name="bottom"/>
  <anchor x="647.7368421052631" y="1430.0" name="top"/>
  <outline>
    <contour>
      <point x="649.7368421052631" y="-34.21052631578947" type="curve" smooth="yes"/>
      <point x="1013.8245614035088" y="-34.21052631578947"/>
      <point x="1186.2105263157894" y="118.75438596491227"/>
      <point x="1186.2105263157894" y="422.8771929824561" type="curve" smooth="yes"/>
      <point x="1186.2105263157894" y="661.3684210526316"/>
      <point x="996.8245614035088" y="770.8421052631579"/>
      <point x="690.1929824561404" y="843.8245614035088" type="curve" smooth="yes"/>
      <point x="436.63157894736844" y="910.4736842105264"/>
      <point x="399.40350877192986" y="993.140350877193"/>
      <point x="399.40350877192986" y="1092.6140350877192" type="curve" smooth="yes"/>
      <point x="399.40350877192986" y="1261.4035087719299"/>
      <point x="508.5964912280702" y="1313.561403508772"/>
      <point x="626.2456140350877" y="1313.561403508772" type="curve" smooth="yes"/>
      <point x="830.0350877192982" y="1313.561403508772"/>
      <point x="909.6315789473684" y="1172.5438596491229"/>
      <point x="905.4035087719299" y="1081.859649122807" type="curve"/>
      <point x="1150.4912280701753" y="1081.859649122807" type="line"/>
      <point x="1139.2456140350878" y="1305.3157894736842"/>
      <point x="923.4912280701755" y="1464.4912280701753"/>
      <point x="640.2280701754386" y="1464.4912280701753" type="curve" smooth="yes"/>
      <point x="317.29824561403507" y="1464.4912280701753"/>
      <point x="153.2982456140351" y="1313.719298245614"/>
      <point x="153.2982456140351" y="1052.4035087719299" type="curve" smooth="yes"/>
      <point x="153.2982456140351" y="847.1578947368421"/>
      <point x="314.1929824561403" y="726.8245614035088"/>
      <point x="600.8421052631579" y="650.8070175438596" type="curve" smooth="yes"/>
      <point x="811.3157894736842" y="593.5263157894736"/>
      <point x="948.0701754385965" y="552.719298245614"/>
      <point x="948.0701754385965" y="373.2280701754386" type="curve" smooth="yes"/>
      <point x="948.0701754385965" y="218.8421052631579"/>
      <point x="846.2456140350877" y="121.45614035087719"/>
      <point x="659.9649122807018" y="121.45614035087719" type="curve" smooth="yes"/>
      <point x="466.280701754386" y="121.45614035087719"/>
      <point x="357.6842105263158" y="245.21052631578948"/>
      <point x="345.63157894736844" y="405.7894736842105" type="curve"/>
      <point x="104.26315789473685" y="405.7894736842105" type="line"/>
      <point x="114.56140350877193" y="141.17543859649123"/>
      <point x="309.0175438596491" y="-34.21052631578947"/>
    </contour>
  </outline>
</glyph>
<glyph name="T" format="2">
  <advance width="1473.1052631578948"/>
  <unicode hex="0054"/>
  <note>
T
</note>
  <anchor x="737.0526315789474" y="19.824561403508767" name="bottom"/>
  <anchor x="737.0526315789474" y="715.0" name="center"/>
  <anchor x="737.0526315789474" y="1430.0" name="top"/>
  <outline>
    <contour>
      <point x="607.9298245614035" y="0.0" type="line"/>
      <point x="865.1754385964912" y="0.0" type="line"/>
      <point x="865.1754385964912" y="1407.7894736842106" type="line"/>
      <point x="616.1578947368421" y="1233.7719298245613" type="line"/>
      <point x="1366.859649122807" y="1233.7719298245613" type="line"/>
      <point x="1366.859649122807" y="1433.982456140351" type="line"/>
      <point x="106.24561403508773" y="1433.982456140351" type="line"/>
      <point x="106.24561403508773" y="1233.7719298245613" type="line"/>
      <point x="856.9473684210526" y="1233.7719298245613" type="line"/>
      <point x="607.9298245614035" y="1407.7894736842106" type="line"/>
    </contour>
  </outline>
</glyph>
<glyph name="U" format="2">
  <advance width="1527.7894736842104"/>
  <unicode hex="0055"/>
  <note>
U
</note>
  <anchor x="764.7719298245614" y="19.824561403508767" name="bottom"/>
  <anchor x="907.3859649122807" y="0.0" name="ogonek"/>
  <anchor x="764.7719298245614" y="1430.0" name="top"/>
  <anchor x="1411.7543859649122" y="1430.0" name="topright"/>
  <outline>
    <contour>
      <point x="763.7719298245614" y="-34.45614035087719" type="curve" smooth="yes"/>
      <point x="1098.3157894736842" y="-34.45614035087719"/>
      <point x="1399.280701754386" y="220.49122807017545"/>
      <point x="1399.280701754386" y="531.6666666666666" type="curve" smooth="yes"/>
      <point x="1399.280701754386" y="1433.982456140351" type="line"/>
      <point x="1192.0877192982457" y="1433.982456140351" type="line"/>
      <point x="1186.859649122807" y="519.1929824561404" type="line" smooth="yes"/>
      <point x="1185.6140350877192" y="294.5964912280702"/>
      <point x="1017.4912280701755" y="109.75438596491227"/>
      <point x="764.2631578947369" y="109.75438596491227" type="curve" smooth="yes"/>
      <point x="533.9473684210526" y="109.75438596491227"/>
      <point x="363.8421052631579" y="261.49122807017545"/>
      <point x="363.8421052631579" y="538.859649122807" type="curve" smooth="yes"/>
      <point x="363.8421052631579" y="1433.982456140351" type="line"/>
      <point x="128.50877192982455" y="1433.982456140351" type="line"/>
      <point x="128.50877192982455" y="546.3508771929825" type="line" smooth="yes"/>
      <point x="128.50877192982455" y="224.4736842105263"/>
      <point x="425.7368421052632" y="-34.45614035087719"/>
    </contour>
  </outline>
</glyph>
<glyph name="V" format="2">
  <advance width="1558.6491228070176"/>
  <unicode hex="0056"/>
  <note>
V
</note>
  <anchor x="779.8245614035088" y="19.824561403508767" name="bottom"/>
  <anchor x="779.8245614035088" y="1430.0" name="top"/>
  <outline>
    <contour>
      <point x="779.0701754385965" y="-30.526315789473685" type="line"/>
      <point x="1456.3859649122808" y="1433.982456140351" type="line"/>
      <point x="1271.8070175438597" y="1433.982456140351" type="line"/>
      <point x="744.2982456140351" y="276.140350877193" type="line"/>
      <point x="868.8421052631579" y="311.45614035087715" type="line"/>
      <point x="358.50877192982455" y="1433.982456140351" type="line"/>
      <point x="102.26315789473685" y="1433.982456140351" type="line"/>
    </contour>
  </outline>
</glyph>
<glyph name="W" format="2">
  <advance width="2114.5438596491226"/>
  <unicode hex="0057"/>
  <note>
W
</note>
  <anchor x="1057.6491228070176" y="7.543859649122808" name="bottom"/>
  <anchor x="1057.6491228070176" y="1431.719298245614" name="top"/>
  <outline>
    <contour>
      <point x="1414.3157894736842" y="-23.80701754385965" type="line"/>
      <point x="2012.280701754386" y="1433.982456140351" type="line"/>
      <point x="1885.982456140351" y="1433.982456140351" type="line"/>
      <point x="1397.7543859649122" y="257.7543859649123" type="line"/>
      <point x="1488.421052631579" y="353.5438596491228" type="line"/>
      <point x="1016.3508771929825" y="1433.982456140351" type="line"/>
      <point x="760.5964912280701" y="1433.982456140351" type="line"/>
    </contour>
    <contour>
      <point x="752.0" y="-23.80701754385965" type="line"/>
      <point x="1120.719298245614" y="876.9298245614035" type="line"/>
      <point x="1072.0" y="1076.7368421052631" type="line"/>
      <point x="735.1754385964912" y="256.2280701754386" type="line"/>
      <point x="831.578947368421" y="345.82456140350877" type="line"/>
      <point x="358.2631578947368" y="1433.982456140351" type="line"/>
      <point x="102.26315789473685" y="1433.982456140351" type="line"/>
    </contour>
    <contour>
      <point x="1142.9473684210527" y="843.578947368421" type="line"/>
      <point x="1375.6842105263158" y="1433.982456140351" type="line"/>
      <point x="1248.3859649122808" y="1433.982456140351" type="line"/>
      <point x="1093.982456140351" y="1043.877192982456" type="line"/>
    </contour>
  </outline>
</glyph>
<glyph name="X" format="2">
  <advance width="1539.157894736842"/>
  <unicode hex="0058"/>
  <note>
X
</note>
  <anchor x="767.8421052631579" y="19.824561403508767" name="bottom"/>
  <anchor x="767.8421052631579" y="1430.0" name="top"/>
  <outline>
    <contour>
      <point x="1120.3157894736842" y="0.0" type="line"/>
      <point x="1437.140350877193" y="0.0" type="line"/>
      <point x="435.43859649122805" y="1427.7543859649122" type="line"/>
      <point x="118.10526315789474" y="1427.7543859649122" type="line"/>
    </contour>
    <contour>
      <point x="113.21052631578948" y="0.0" type="line"/>
      <point x="296.2631578947369" y="0.0" type="line"/>
      <point x="826.9473684210526" y="740.1929824561404" type="line"/>
      <point x="715.6842105263158" y="851.1228070175439" type="line"/>
    </contour>
    <contour>
      <point x="790.8771929824561" y="656.7543859649123" type="line"/>
      <point x="1338.6666666666667" y="1433.982456140351" type="line"/>
      <point x="1156.6140350877192" y="1433.982456140351" type="line"/>
      <point x="678.3684210526316" y="767.6842105263158" type="line"/>
    </contour>
  </outline>
</glyph>
<glyph name="Y" format="2">
  <advance width="1386.017543859649"/>
  <unicode hex="0059"/>
  <note>
Y
</note>
  <anchor x="707.421052631579" y="19.82456140350877" name="bottom"/>
  <anchor x="692.5087719298245" y="1430.0" name="top"/>
  <anchor x="-6.245614035087719" y="1430.0" name="topleft"/>
  <outline>
    <contour>
      <point x="581.3333333333334" y="0.0" type="line"/>
      <point x="837.578947368421" y="0.0" type="line"/>
      <point x="837.578947368421" y="605.3157894736842" type="line"/>
      <point x="1283.7543859649122" y="1433.982456140351" type="line"/>
      <point x="1105.859649122807" y="1433.982456140351" type="line"/>
      <point x="642.6491228070175" y="540.5438596491229" type="line"/>
      <point x="815.1754385964912" y="698.280701754386" type="line"/>
      <point x="402.17543859649123" y="1433.982456140351" type="line"/>
      <point x="101.26315789473685" y="1433.982456140351" type="line"/>
      <point x="581.3333333333334" y="600.7894736842105" type="line"/>
    </contour>
  </outline>
</glyph>
<glyph name="Z" format="2">
  <advance width="1429.5087719298247"/>
  <unicode hex="005A"/>
  <note>
Z
</note>
  <anchor x="714.7543859649123" y="19.824561403508767" name="bottom"/>
  <anchor x="714.7543859649123" y="715.0" name="center"/>
  <anchor x="714.7543859649123" y="1430.0" name="top"/>
  <outline>
    <contour>
      <point x="101.26315789473685" y="0.0" type="line"/>
      <point x="1292.2456140350878" y="0.0" type="line"/>
      <point x="1291.4912280701753" y="183.03508771929825" type="line"/>
      <point x="242.1578947368421" y="183.03508771929825" type="line"/>
      <point x="375.29824561403507" y="18.771929824561404" type="line"/>
      <point x="1326.7543859649122" y="1433.982456140351" type="line"/>
      <point x="170.4561403508772" y="1433.982456140351" type="line"/>
      <point x="170.4561403508772" y="1250.9473684210527" type="line"/>
      <point x="1158.842105263158" y="1250.9473684210527" type="line"/>
      <point x="1050.982456140351" y="1413.2280701754387" type="line"/>
    </contour>
  </outline>
</glyph>
<glyph name="bracketleft" format="2">
  <advance width="683.438596491228"/>
  <unicode hex="005B"/>
  <note>
bracketleft
</note>
  <outline>
    <contour>
      <point x="136.26315789473685" y="-385.2631578947368" type="line"/>
      <point x="580.1929824561404" y="-385.2631578947368" type="line"/>
      <point x="580.1929824561404" y="-215.35087719298247" type="line"/>
      <point x="315.8771929824561" y="-215.35087719298247" type="line"/>
      <point x="315.8771929824561" y="1294.8245614035088" type="line"/>
      <point x="580.1929824561404" y="1294.8245614035088" type="line"/>
      <point x="580.1929824561404" y="1463.7368421052631" type="line"/>
      <point x="136.26315789473685" y="1463.7368421052631" type="line"/>
    </contour>
  </outline>
</glyph>
<glyph name="bracketright" format="2">
  <advance width="683.438596491228"/>
  <unicode hex="005D"/>
  <note>
bracketright
</note>
  <outline>
    <contour>
      <point x="103.24561403508773" y="-385.2631578947368" type="line"/>
      <point x="547.1754385964912" y="-385.2631578947368" type="line"/>
      <point x="547.1754385964912" y="1463.7368421052631" type="line"/>
      <point x="103.24561403508773" y="1463.7368421052631" type="line"/>
      <point x="103.24561403508773" y="1294.8245614035088" type="line"/>
      <point x="368.3157894736842" y="1294.8245614035088" type="line"/>
      <point x="368.3157894736842" y="-215.35087719298247" type="line"/>
      <point x="103.24561403508773" y="-215.35087719298247" type="line"/>
    </contour>
  </outline>
</glyph>
<glyph name="asciicircum" format="2">
  <advance width="1227.9473684210525"/>
  <unicode hex="005E"/>
  <note>
asciicircum
</note>
  <outline>
    <contour>
      <point x="132.26315789473685" y="780.9473684210526" type="line"/>
      <point x="338.7368421052631" y="780.9473684210526" type="line"/>
      <point x="682.9122807017544" y="1322.7368421052631" type="line"/>
      <point x="543.8070175438596" y="1321.701754385965" type="line"/>
      <point x="889.2105263157895" y="780.9473684210526" type="line"/>
      <point x="1095.6842105263158" y="780.9473684210526" type="line"/>
      <point x="681.5964912280701" y="1441.298245614035" type="line"/>
      <point x="544.8421052631579" y="1441.298245614035" type="line"/>
    </contour>
  </outline>
</glyph>
<glyph name="underscore" format="2">
  <advance width="1595.4912280701756"/>
  <unicode hex="005F"/>
  <note>
underscore
</note>
  <outline>
    <contour>
      <point x="88.49122807017544" y="-387.5263157894737" type="line"/>
      <point x="1507.0" y="-387.5263157894737" type="line"/>
      <point x="1507.0" y="-221.3859649122807" type="line"/>
      <point x="88.49122807017544" y="-221.3859649122807" type="line"/>
    </contour>
  </outline>
</glyph>
<glyph name="a" format="2">
  <advance width="1279.7368421052631"/>
  <unicode hex="0061"/>
  <note>
a
</note>
  <anchor x="594.2631578947369" y="2.649122807017541" name="bottom"/>
  <anchor x="1072.4561403508771" y="0.0" name="ogonek"/>
  <anchor x="604.2631578947369" y="1018.4561403508771" name="top"/>
  <outline>
    <contour>
      <point x="564.3333333333334" y="-35.96491228070175" type="curve" smooth="yes"/>
      <point x="797.719298245614" y="-35.96491228070175"/>
      <point x="942.0" y="86.52631578947368"/>
      <point x="996.5087719298245" y="334.140350877193" type="curve"/>
      <point x="930.9298245614035" y="394.7719298245614" type="line"/>
      <point x="925.6491228070175" y="0.0" type="line"/>
      <point x="1171.4736842105262" y="0.0" type="line"/>
      <point x="1171.4736842105262" y="1004.6842105263158" type="line"/>
      <point x="923.9122807017544" y="1004.6842105263158" type="line"/>
      <point x="923.9122807017544" y="592.6491228070175" type="line"/>
      <point x="993.280701754386" y="645.0350877192982" type="line"/>
      <point x="942.2456140350877" y="897.6842105263158"/>
      <point x="791.7368421052631" y="1031.6842105263158"/>
      <point x="560.5964912280701" y="1031.6842105263158" type="curve" smooth="yes"/>
      <point x="273.719298245614" y="1031.6842105263158"/>
      <point x="82.26315789473685" y="813.1754385964912"/>
      <point x="82.26315789473685" y="488.719298245614" type="curve" smooth="yes"/>
      <point x="82.26315789473685" y="172.01754385964912"/>
      <point x="272.1929824561403" y="-35.96491228070175"/>
    </contour>
    <contour>
      <point x="598.7017543859649" y="115.47368421052632" type="curve" smooth="yes"/>
      <point x="417.7543859649123" y="115.47368421052632"/>
      <point x="316.859649122807" y="241.140350877193"/>
      <point x="316.859649122807" y="495.7368421052632" type="curve" smooth="yes"/>
      <point x="316.859649122807" y="750.578947368421"/>
      <point x="417.50877192982455" y="879.4912280701755"/>
      <point x="595.2105263157895" y="879.4912280701755" type="curve" smooth="yes"/>
      <point x="773.6666666666666" y="879.4912280701755"/>
      <point x="895.280701754386" y="711.1929824561404"/>
      <point x="895.280701754386" y="486.2280701754386" type="curve" smooth="yes"/>
      <point x="895.280701754386" y="271.7543859649123"/>
      <point x="778.6666666666666" y="115.47368421052632"/>
    </contour>
  </outline>
</glyph>
<glyph name="b" format="2">
  <advance width="1283.4736842105262"/>
  <unicode hex="0062"/>
  <note>
b
</note>
  <anchor x="646.3508771929825" y="31.526315789473685" name="bottom"/>
  <anchor x="646.3508771929825" y="1519.4736842105262" name="top"/>
  <outline>
    <contour>
      <point x="719.140350877193" y="-30.736842105263158" type="curve" smooth="yes"/>
      <point x="1010.5263157894738" y="-30.736842105263158"/>
      <point x="1201.2105263157896" y="176.49122807017545"/>
      <point x="1201.2105263157896" y="491.4561403508772" type="curve" smooth="yes"/>
      <point x="1201.2105263157896" y="814.421052631579"/>
      <point x="1010.5087719298245" y="1031.6842105263158"/>
      <point x="722.8771929824561" y="1031.6842105263158" type="curve" smooth="yes"/>
      <point x="492.49122807017545" y="1031.6842105263158"/>
      <point x="340.4736842105263" y="897.1754385964912"/>
      <point x="289.43859649122805" y="646.7719298245614" type="curve"/>
      <point x="359.56140350877195" y="592.6491228070175" type="line"/>
      <point x="359.56140350877195" y="1519.4736842105262" type="line"/>
      <point x="113.50877192982456" y="1519.4736842105262" type="line"/>
      <point x="113.50877192982456" y="0.0" type="line"/>
      <point x="356.3157894736842" y="0.0" type="line"/>
      <point x="356.3157894736842" y="394.0175438596491" type="line"/>
      <point x="285.45614035087715" y="340.3859649122807" type="line"/>
      <point x="340.719298245614" y="93.50877192982456"/>
      <point x="484.2456140350877" y="-30.736842105263158"/>
    </contour>
    <contour>
      <point x="684.7719298245614" y="119.45614035087719" type="curve" smooth="yes"/>
      <point x="504.8070175438597" y="119.45614035087719"/>
      <point x="388.1929824561403" y="276.49122807017545"/>
      <point x="388.1929824561403" y="489.719298245614" type="curve" smooth="yes"/>
      <point x="388.1929824561403" y="714.438596491228"/>
      <point x="509.8070175438597" y="881.4912280701755"/>
      <point x="688.2631578947369" y="881.4912280701755" type="curve" smooth="yes"/>
      <point x="865.2105263157895" y="881.4912280701755"/>
      <point x="966.6140350877193" y="752.8245614035088"/>
      <point x="966.6140350877193" y="498.4736842105263" type="curve" smooth="yes"/>
      <point x="966.6140350877193" y="245.36842105263156"/>
      <point x="865.719298245614" y="119.45614035087719"/>
    </contour>
  </outline>
</glyph>
<glyph name="c" format="2">
  <advance width="1040.5087719298247"/>
  <unicode hex="0063"/>
  <note>
c
</note>
  <anchor x="520.7543859649123" y="-11.701754385964911" name="bottom"/>
  <anchor x="610.7543859649123" y="1018.4561403508771" name="top"/>
  <outline>
    <contour>
      <point x="612.5438596491229" y="-35.96491228070175" type="curve" smooth="yes"/>
      <point x="741.6842105263158" y="-35.96491228070175"/>
      <point x="856.578947368421" y="-0.7543859649122807"/>
      <point x="955.0175438596491" y="77.14035087719299" type="curve"/>
      <point x="955.0175438596491" y="251.6315789473684" type="line"/>
      <point x="865.8771929824561" y="171.17543859649123"/>
      <point x="735.4736842105264" y="114.22807017543859"/>
      <point x="622.7543859649122" y="114.22807017543859" type="curve" smooth="yes"/>
      <point x="435.57894736842104" y="114.22807017543859"/>
      <point x="327.57894736842104" y="263.63157894736844"/>
      <point x="327.57894736842104" y="497.50877192982455" type="curve" smooth="yes"/>
      <point x="327.57894736842104" y="738.0701754385965"/>
      <point x="436.57894736842104" y="880.7368421052631"/>
      <point x="622.7543859649123" y="880.7368421052631" type="curve" smooth="yes"/>
      <point x="735.719298245614" y="880.7368421052631"/>
      <point x="866.6315789473684" y="824.5438596491229"/>
      <point x="954.2631578947369" y="744.8421052631579" type="curve"/>
      <point x="954.2631578947369" y="917.8245614035088" type="line"/>
      <point x="855.8245614035088" y="995.719298245614"/>
      <point x="738.1754385964912" y="1031.6842105263158"/>
      <point x="612.5438596491229" y="1031.6842105263158" type="curve" smooth="yes"/>
      <point x="316.8070175438597" y="1031.6842105263158"/>
      <point x="82.26315789473685" y="824.578947368421"/>
      <point x="82.26315789473685" y="497.50877192982455" type="curve" smooth="yes"/>
      <point x="82.26315789473685" y="164.66666666666666"/>
      <point x="317.29824561403507" y="-35.96491228070175"/>
    </contour>
  </outline>
</glyph>
<glyph name="d" format="2">
  <advance width="1282.719298245614"/>
  <unicode hex="0064"/>
  <note>
d
</note>
  <anchor x="629.8245614035088" y="31.526315789473685" name="bottom"/>
  <anchor x="1044.0701754385964" y="1331.701754385965" name="center"/>
  <anchor x="638.1228070175439" y="1519.4736842105262" name="top"/>
  <anchor x="1323.017543859649" y="1519.4736842105262" name="topright"/>
  <outline>
    <contour>
      <point x="564.3333333333334" y="-30.736842105263158" type="curve" smooth="yes"/>
      <point x="798.4736842105264" y="-30.736842105263158"/>
      <point x="943.5087719298245" y="90.49122807017544"/>
      <point x="998.7719298245614" y="338.8771929824561" type="curve"/>
      <point x="926.4035087719299" y="391.7543859649123" type="line"/>
      <point x="926.4035087719299" y="0.0" type="line"/>
      <point x="1169.2105263157896" y="0.0" type="line"/>
      <point x="1169.2105263157896" y="1519.4736842105262" type="line"/>
      <point x="924.6666666666666" y="1519.4736842105262" type="line"/>
      <point x="924.6666666666666" y="592.6491228070175" type="line"/>
      <point x="994.0350877192982" y="646.0175438596491" type="line"/>
      <point x="943.0" y="898.6842105263158"/>
      <point x="791.7368421052631" y="1032.438596491228"/>
      <point x="560.5964912280701" y="1032.438596491228" type="curve" smooth="yes"/>
      <point x="273.719298245614" y="1032.438596491228"/>
      <point x="82.26315789473685" y="816.6842105263158"/>
      <point x="82.26315789473685" y="492.2105263157895" type="curve" smooth="yes"/>
      <point x="82.26315789473685" y="175.73684210526315"/>
      <point x="272.94736842105266" y="-30.736842105263158"/>
    </contour>
    <contour>
      <point x="598.7017543859649" y="120.21052631578948" type="curve" smooth="yes"/>
      <point x="417.7543859649123" y="120.21052631578948"/>
      <point x="316.859649122807" y="244.6140350877193"/>
      <point x="316.859649122807" y="498.4736842105263" type="curve" smooth="yes"/>
      <point x="316.859649122807" y="755.0877192982456"/>
      <point x="417.50877192982455" y="881.4912280701755"/>
      <point x="595.2105263157895" y="881.4912280701755" type="curve" smooth="yes"/>
      <point x="774.421052631579" y="881.4912280701755"/>
      <point x="895.280701754386" y="713.6842105263158"/>
      <point x="895.280701754386" y="487.4561403508772" type="curve" smooth="yes"/>
      <point x="895.280701754386" y="273.4736842105263"/>
      <point x="778.6666666666666" y="120.21052631578948"/>
    </contour>
  </outline>
</glyph>
<glyph name="e" format="2">
  <advance width="1175.438596491228"/>
  <unicode hex="0065"/>
  <note>
e
</note>
  <anchor x="587.4736842105264" y="-25.473684210526315" name="bottom"/>
  <anchor x="762.8421052631579" y="10.0" name="ogonek"/>
  <anchor x="587.4736842105264" y="1018.4561403508771" name="top"/>
  <outline>
    <contour>
      <point x="594.4561403508771" y="-35.96491228070175" type="curve" smooth="yes"/>
      <point x="840.2982456140351" y="-35.96491228070175"/>
      <point x="1007.4912280701755" y="88.54385964912281"/>
      <point x="1073.2105263157894" y="303.82456140350877" type="curve"/>
      <point x="870.4912280701755" y="303.82456140350877" type="line"/>
      <point x="845.4035087719299" y="204.5263157894737"/>
      <point x="737.0701754385965" y="114.22807017543859"/>
      <point x="600.6842105263158" y="114.22807017543859" type="curve" smooth="yes"/>
      <point x="414.29824561403507" y="114.22807017543859"/>
      <point x="330.57894736842104" y="292.17543859649123"/>
      <point x="330.57894736842104" y="494.9824561403509" type="curve" smooth="yes"/>
      <point x="330.57894736842104" y="720.1929824561404"/>
      <point x="432.2280701754386" y="880.4912280701755"/>
      <point x="594.4561403508771" y="880.4912280701755" type="curve" smooth="yes"/>
      <point x="744.1929824561404" y="880.4912280701755"/>
      <point x="836.140350877193" y="745.4035087719299"/>
      <point x="855.8947368421052" y="496.6140350877193" type="curve"/>
      <point x="1098.421052631579" y="496.6140350877193" type="line"/>
      <point x="1070.4736842105262" y="838.1754385964912"/>
      <point x="882.5438596491229" y="1031.6842105263158"/>
      <point x="590.719298245614" y="1031.6842105263158" type="curve" smooth="yes"/>
      <point x="280.6842105263158" y="1031.6842105263158"/>
      <point x="82.26315789473685" y="815.9122807017544"/>
      <point x="82.26315789473685" y="493.70175438596493" type="curve" smooth="yes"/>
      <point x="82.26315789473685" y="175.75438596491227"/>
      <point x="275.1929824561403" y="-35.96491228070175"/>
    </contour>
    <contour>
      <point x="299.2456140350877" y="495.6140350877193" type="line"/>
      <point x="1042.298245614035" y="496.6140350877193" type="line"/>
      <point x="1040.7894736842104" y="623.3859649122807" type="line"/>
      <point x="255.68421052631578" y="623.3859649122807" type="line"/>
    </contour>
  </outline>
</glyph>
<glyph name="f" format="2">
  <advance width="920.2982456140351"/>
  <unicode hex="0066"/>
  <note>
f
</note>
  <anchor x="460.64912280701753" y="31.526315789473685" name="bottom"/>
  <anchor x="460.64912280701753" y="1519.4736842105262" name="top"/>
  <outline>
    <contour>
      <point x="287.719298245614" y="0.0" type="line"/>
      <point x="530.5263157894738" y="0.0" type="line"/>
      <point x="530.5263157894738" y="1036.842105263158" type="line" smooth="yes"/>
      <point x="530.5263157894738" y="1241.3508771929824"/>
      <point x="482.8070175438596" y="1394.2456140350878"/>
      <point x="607.140350877193" y="1394.2456140350878" type="curve" smooth="yes"/>
      <point x="655.1754385964912" y="1394.2456140350878"/>
      <point x="718.2982456140351" y="1382.701754385965"/>
      <point x="718.2982456140351" y="1320.298245614035" type="curve" smooth="yes"/>
      <point x="718.2982456140351" y="1300.8070175438597"/>
      <point x="713.7894736842105" y="1275.8245614035088"/>
      <point x="705.0526315789474" y="1242.140350877193" type="curve"/>
      <point x="863.7017543859649" y="1242.140350877193" type="line"/>
      <point x="873.9298245614035" y="1261.842105263158"/>
      <point x="882.6842105263158" y="1310.2456140350878"/>
      <point x="882.6842105263158" y="1342.982456140351" type="curve" smooth="yes"/>
      <point x="882.6842105263158" y="1477.7368421052631"/>
      <point x="736.719298245614" y="1554.4035087719299"/>
      <point x="580.2280701754386" y="1554.4035087719299" type="curve" smooth="yes"/>
      <point x="358.6140350877193" y="1554.4035087719299"/>
      <point x="287.719298245614" y="1382.438596491228"/>
      <point x="287.719298245614" y="1102.0526315789473" type="curve" smooth="yes"/>
    </contour>
    <contour>
      <point x="77.0" y="820.140350877193" type="line"/>
      <point x="770.6140350877192" y="820.140350877193" type="line"/>
      <point x="770.6140350877192" y="969.578947368421" type="line"/>
      <point x="77.0" y="969.578947368421" type="line"/>
    </contour>
  </outline>
</glyph>
<glyph name="g" format="2">
  <advance width="1274.438596491228"/>
  <unicode hex="0067"/>
  <note>
g
</note>
  <anchor x="636.8421052631579" y="-494.4736842105263" name="bottom"/>
  <anchor x="607.4035087719299" y="1018.4561403508771" name="top"/>
  <outline>
    <contour>
      <point x="618.280701754386" y="-571.438596491228" type="curve" smooth="yes"/>
      <point x="984.8245614035088" y="-571.438596491228"/>
      <point x="1163.421052631579" y="-325.82456140350877"/>
      <point x="1163.421052631579" y="120.40350877192982" type="curve" smooth="yes"/>
      <point x="1163.421052631579" y="1004.6842105263158" type="line"/>
      <point x="916.6140350877193" y="1004.6842105263158" type="line"/>
      <point x="916.6140350877193" y="686.0877192982456" type="line"/>
      <point x="959.5438596491229" y="743.280701754386" type="line"/>
      <point x="891.0526315789474" y="931.859649122807"/>
      <point x="753.0350877192982" y="1031.6842105263158"/>
      <point x="556.3157894736842" y="1031.6842105263158" type="curve" smooth="yes"/>
      <point x="271.70175438596493" y="1031.6842105263158"/>
      <point x="82.50877192982456" y="813.1754385964912"/>
      <point x="82.50877192982456" y="488.719298245614" type="curve" smooth="yes"/>
      <point x="82.50877192982456" y="171.26315789473685"/>
      <point x="271.6842105263158" y="-37.21052631578947"/>
      <point x="560.8070175438596" y="-37.21052631578947" type="curve" smooth="yes"/>
      <point x="762.7894736842105" y="-37.21052631578947"/>
      <point x="898.8245614035088" y="68.17543859649123"/>
      <point x="964.2982456140351" y="249.70175438596493" type="curve"/>
      <point x="922.8771929824561" y="305.89473684210526" type="line"/>
      <point x="919.1052631578948" y="66.49122807017544" type="line"/>
      <point x="919.1052631578948" y="-249.77192982456143"/>
      <point x="809.7719298245614" y="-421.2456140350877"/>
      <point x="595.3157894736842" y="-421.2456140350877" type="curve" smooth="yes"/>
      <point x="419.50877192982455" y="-421.2456140350877"/>
      <point x="346.50877192982455" y="-356.64912280701753"/>
      <point x="319.56140350877195" y="-245.35087719298247" type="curve"/>
      <point x="96.19298245614036" y="-245.35087719298247" type="line"/>
      <point x="164.78947368421052" y="-467.6842105263158"/>
      <point x="334.8070175438596" y="-571.438596491228"/>
    </contour>
    <contour>
      <point x="587.4561403508771" y="114.22807017543859" type="curve" smooth="yes"/>
      <point x="413.2456140350877" y="114.22807017543859"/>
      <point x="317.859649122807" y="240.3859649122807"/>
      <point x="317.859649122807" y="495.7368421052632" type="curve" smooth="yes"/>
      <point x="317.859649122807" y="751.3333333333334"/>
      <point x="414.50877192982455" y="880.4912280701755"/>
      <point x="583.9649122807018" y="880.4912280701755" type="curve" smooth="yes"/>
      <point x="755.1754385964912" y="880.4912280701755"/>
      <point x="872.2982456140351" y="712.7017543859649"/>
      <point x="872.2982456140351" y="486.2280701754386" type="curve" smooth="yes"/>
      <point x="872.2982456140351" y="272.50877192982455"/>
      <point x="760.1754385964912" y="114.22807017543859"/>
    </contour>
  </outline>
</glyph>
<glyph name="h" format="2">
  <advance width="1161.0526315789473"/>
  <unicode hex="0068"/>
  <note>
h
</note>
  <anchor x="578.1578947368421" y="0.0" name="bottom"/>
  <anchor x="248.6140350877193" y="1331.701754385965" name="center"/>
  <anchor x="578.1578947368421" y="1519.4736842105262" name="top"/>
  <outline>
    <contour>
      <point x="113.50877192982456" y="0.0" type="line"/>
      <point x="366.280701754386" y="0.0" type="line"/>
      <point x="366.280701754386" y="580.2105263157895" type="line" smooth="yes"/>
      <point x="366.280701754386" y="742.7368421052631"/>
      <point x="463.40350877192986" y="877.7543859649123"/>
      <point x="606.4035087719299" y="877.7543859649123" type="curve" smooth="yes"/>
      <point x="737.2105263157895" y="877.7543859649123"/>
      <point x="809.7719298245614" y="785.9298245614035"/>
      <point x="809.7719298245614" y="558.8421052631579" type="curve" smooth="yes"/>
      <point x="809.7719298245614" y="0.0" type="line"/>
      <point x="1062.5438596491229" y="0.0" type="line"/>
      <point x="1062.5438596491229" y="614.8771929824561" type="line" smooth="yes"/>
      <point x="1062.5438596491229" y="879.4736842105264"/>
      <point x="920.8947368421052" y="1030.438596491228"/>
      <point x="665.4561403508771" y="1030.438596491228" type="curve" smooth="yes"/>
      <point x="463.719298245614" y="1030.438596491228"/>
      <point x="351.6140350877193" y="925.6140350877193"/>
      <point x="301.9473684210526" y="678.6666666666666" type="curve"/>
      <point x="364.5263157894737" y="529.6140350877192" type="line"/>
      <point x="367.0175438596491" y="1519.4736842105262" type="line"/>
      <point x="113.50877192982456" y="1519.4736842105262" type="line"/>
    </contour>
  </outline>
</glyph>
<glyph name="k" format="2">
  <advance width="1186.5263157894738"/>
  <unicode hex="006B"/>
  <note>
k
</note>
  <anchor x="576.6315789473684" y="0.0" name="bottom"/>
  <anchor x="597.7543859649122" y="1519.4736842105262" name="top"/>
  <outline>
    <contour>
      <point x="113.50877192982456" y="0.0" type="line"/>
      <point x="356.82456140350877" y="0.0" type="line"/>
      <point x="356.82456140350877" y="1519.4736842105262" type="line"/>
      <point x="113.50877192982456" y="1519.4736842105262" type="line"/>
    </contour>
    <contour>
      <point x="834.1754385964912" y="0.0" type="line"/>
      <point x="1115.017543859649" y="0.0" type="line"/>
      <point x="575.1052631578948" y="636.6842105263158" type="line"/>
      <point x="432.45614035087715" y="460.140350877193" type="line"/>
    </contour>
    <contour>
      <point x="310.49122807017545" y="295.4561403508772" type="line"/>
      <point x="1011.561403508772" y="1004.6842105263158" type="line"/>
      <point x="777.578947368421" y="1004.6842105263158" type="line"/>
      <point x="320.42105263157896" y="535.140350877193" type="line"/>
    </contour>
  </outline>
</glyph>
<glyph name="l" format="2">
  <advance width="468.82456140350877"/>
  <unicode hex="006C"/>
  <note>
l
</note>
  <anchor x="181.5263157894737" y="0.0" name="bottom"/>
  <anchor x="237.17543859649123" y="796.2105263157895" name="center"/>
  <anchor x="679.6842105263158" y="796.2105263157895" name="dot"/>
  <anchor x="316.6140350877193" y="1509.7719298245613" name="top"/>
  <anchor x="464.6140350877193" y="1473.0350877192982" name="topright"/>
  <outline>
    <contour>
      <point x="113.50877192982456" y="0.0" type="line"/>
      <point x="355.3157894736842" y="0.0" type="line"/>
      <point x="355.3157894736842" y="1519.4736842105262" type="line"/>
      <point x="113.50877192982456" y="1519.4736842105262" type="line"/>
    </contour>
  </outline>
</glyph>
<glyph name="m" format="2">
  <advance width="1837.2631578947369"/>
  <unicode hex="006D"/>
  <note>
m
</note>
  <anchor x="918.7543859649123" y="0.0" name="bottom"/>
  <anchor x="918.7543859649123" y="1018.4561403508771" name="top"/>
  <outline>
    <contour>
      <point x="107.50877192982456" y="0.0" type="line"/>
      <point x="357.7894736842105" y="0.0" type="line"/>
      <point x="357.7894736842105" y="580.2105263157895" type="line" smooth="yes"/>
      <point x="357.7894736842105" y="743.4912280701755"/>
      <point x="457.1929824561403" y="879.0"/>
      <point x="608.2631578947369" y="879.0" type="curve" smooth="yes"/>
      <point x="733.8070175438596" y="879.0"/>
      <point x="799.1228070175439" y="793.4736842105264"/>
      <point x="799.1228070175439" y="580.719298245614" type="curve" smooth="yes"/>
      <point x="799.1228070175439" y="0.0" type="line"/>
      <point x="1049.4035087719299" y="0.0" type="line"/>
      <point x="1049.4035087719299" y="580.2105263157895" type="line" smooth="yes"/>
      <point x="1049.4035087719299" y="744.2456140350877"/>
      <point x="1143.8070175438597" y="877.4912280701755"/>
      <point x="1295.6315789473683" y="877.4912280701755" type="curve" smooth="yes"/>
      <point x="1420.421052631579" y="877.4912280701755"/>
      <point x="1487.719298245614" y="793.4736842105264"/>
      <point x="1487.719298245614" y="580.719298245614" type="curve" smooth="yes"/>
      <point x="1487.719298245614" y="0.7543859649122807" type="line"/>
      <point x="1738.0" y="0.7543859649122807" type="line"/>
      <point x="1738.0" y="645.8070175438596" type="line" smooth="yes"/>
      <point x="1738.0" y="889.7719298245614"/>
      <point x="1596.877192982456" y="1031.6842105263158"/>
      <point x="1353.701754385965" y="1031.6842105263158" type="curve" smooth="yes"/>
      <point x="1141.859649122807" y="1031.6842105263158"/>
      <point x="1026.2105263157894" y="926.1052631578948"/>
      <point x="980.2982456140351" y="686.1929824561404" type="curve"/>
      <point x="1039.1754385964912" y="708.0877192982456" type="line"/>
      <point x="1015.7543859649122" y="917.438596491228"/>
      <point x="886.3333333333334" y="1031.6842105263158"/>
      <point x="666.3333333333334" y="1031.6842105263158" type="curve" smooth="yes"/>
      <point x="478.9473684210526" y="1031.6842105263158"/>
      <point x="366.3157894736842" y="945.8245614035088"/>
      <point x="314.8771929824561" y="762.0" type="curve"/>
      <point x="356.29824561403507" y="711.7719298245614" type="line"/>
      <point x="357.7894736842105" y="1004.6842105263158" type="line"/>
      <point x="107.50877192982456" y="1004.6842105263158" type="line"/>
    </contour>
  </outline>
</glyph>
<glyph name="n" format="2">
  <advance width="1155.0526315789473"/>
  <unicode hex="006E"/>
  <note>
n
</note>
  <anchor x="573.6666666666666" y="0.0" name="bottom"/>
  <anchor x="573.6666666666666" y="1018.4561403508771" name="top"/>
  <outline>
    <contour>
      <point x="107.50877192982456" y="0.0" type="line"/>
      <point x="360.280701754386" y="0.0" type="line"/>
      <point x="360.280701754386" y="580.2105263157895" type="line" smooth="yes"/>
      <point x="360.280701754386" y="742.7368421052631"/>
      <point x="457.40350877192986" y="877.7543859649123"/>
      <point x="601.1578947368421" y="877.7543859649123" type="curve" smooth="yes"/>
      <point x="731.2105263157895" y="877.7543859649123"/>
      <point x="803.7719298245614" y="785.9298245614035"/>
      <point x="803.7719298245614" y="558.8421052631579" type="curve" smooth="yes"/>
      <point x="803.7719298245614" y="0.0" type="line"/>
      <point x="1056.5438596491229" y="0.0" type="line"/>
      <point x="1056.5438596491229" y="614.8771929824561" type="line" smooth="yes"/>
      <point x="1056.5438596491229" y="879.4736842105264"/>
      <point x="914.8947368421052" y="1031.6842105263158"/>
      <point x="659.4561403508771" y="1031.6842105263158" type="curve" smooth="yes"/>
      <point x="453.1929824561403" y="1031.6842105263158"/>
      <point x="339.57894736842104" y="920.3333333333334"/>
      <point x="295.9473684210526" y="679.421052631579" type="curve"/>
      <point x="357.7894736842105" y="528.859649122807" type="line"/>
      <point x="360.280701754386" y="1004.6842105263158" type="line"/>
      <point x="107.50877192982456" y="1004.6842105263158" type="line"/>
    </contour>
  </outline>
</glyph>
<glyph name="o" format="2">
  <advance width="1199.9122807017543"/>
  <unicode hex="006F"/>
  <note>
o
</note>
  <anchor x="600.4561403508771" y="2.649122807017541" name="bottom"/>
  <anchor x="600.4561403508771" y="499.2280701754386" name="center"/>
  <anchor x="741.8421052631579" y="0.0" name="ogonek"/>
  <anchor x="600.4561403508771" y="1018.4561403508771" name="top"/>
  <anchor x="1200.157894736842" y="998.4561403508771" name="topright"/>
  <outline>
    <contour>
      <point x="599.7017543859649" y="-35.96491228070175" type="curve" smooth="yes"/>
      <point x="914.0" y="-35.96491228070175"/>
      <point x="1117.6491228070176" y="172.52631578947367"/>
      <point x="1117.6491228070176" y="489.96491228070175" type="curve" smooth="yes"/>
      <point x="1117.6491228070176" y="810.6666666666666"/>
      <point x="908.2456140350877" y="1031.6842105263158"/>
      <point x="599.7017543859649" y="1031.6842105263158" type="curve" smooth="yes"/>
      <point x="290.9122807017544" y="1031.6842105263158"/>
      <point x="82.26315789473685" y="810.6666666666666"/>
      <point x="82.26315789473685" y="489.96491228070175" type="curve" smooth="yes"/>
      <point x="82.26315789473685" y="172.5263157894737"/>
      <point x="286.1578947368421" y="-35.96491228070175"/>
    </contour>
    <contour>
      <point x="599.7017543859649" y="114.73684210526315" type="curve" smooth="yes"/>
      <point x="445.6842105263158" y="114.73684210526315"/>
      <point x="342.5438596491228" y="268.7894736842105"/>
      <point x="342.5438596491228" y="493.49122807017545" type="curve" smooth="yes"/>
      <point x="342.5438596491228" y="718.421052631579"/>
      <point x="448.1929824561404" y="881.7368421052631"/>
      <point x="599.7017543859649" y="881.7368421052631" type="curve" smooth="yes"/>
      <point x="751.4561403508771" y="881.7368421052631"/>
      <point x="858.1052631578947" y="712.1754385964912"/>
      <point x="858.1052631578947" y="489.96491228070175" type="curve" smooth="yes"/>
      <point x="858.1052631578947" y="267.7719298245614"/>
      <point x="755.2280701754386" y="114.73684210526315"/>
    </contour>
  </outline>
</glyph>
<glyph name="p" format="2">
  <advance width="1274.421052631579"/>
  <unicode hex="0070"/>
  <note>
p
</note>
  <anchor x="641.0701754385965" y="31.526315789473685" name="bottom"/>
  <anchor x="641.0701754385965" y="998.4561403508771" name="top"/>
  <outline>
    <contour>
      <point x="113.50877192982456" y="-526.0" type="line"/>
      <point x="359.56140350877195" y="-526.0" type="line"/>
      <point x="359.56140350877195" y="406.56140350877195" type="line"/>
      <point x="289.43859649122805" y="352.43859649122805" type="line"/>
      <point x="339.719298245614" y="102.03508771929825"/>
      <point x="490.2280701754386" y="-32.719298245614034"/>
      <point x="718.3508771929825" y="-32.719298245614034" type="curve" smooth="yes"/>
      <point x="1003.719298245614" y="-32.719298245614034"/>
      <point x="1192.157894736842" y="185.5438596491228"/>
      <point x="1192.157894736842" y="507.7543859649123" type="curve" smooth="yes"/>
      <point x="1192.157894736842" y="824.4561403508771"/>
      <point x="1003.7368421052631" y="1031.6842105263158"/>
      <point x="714.6140350877192" y="1031.6842105263158" type="curve" smooth="yes"/>
      <point x="482.7368421052631" y="1031.6842105263158"/>
      <point x="339.96491228070175" y="908.1929824561404"/>
      <point x="285.4561403508772" y="661.3157894736842" type="curve"/>
      <point x="356.3157894736842" y="608.438596491228" type="line"/>
      <point x="356.3157894736842" y="1004.6842105263158" type="line"/>
      <point x="113.50877192982456" y="1004.6842105263158" type="line"/>
    </contour>
    <contour>
      <point x="683.7368421052631" y="118.22807017543859" type="curve" smooth="yes"/>
      <point x="508.29824561403507" y="118.22807017543859"/>
      <point x="388.1929824561403" y="285.5263157894737"/>
      <point x="388.1929824561403" y="510.2456140350877" type="curve" smooth="yes"/>
      <point x="388.1929824561403" y="725.9649122807018"/>
      <point x="503.29824561403507" y="881.4912280701755"/>
      <point x="680.2456140350877" y="881.4912280701755" type="curve" smooth="yes"/>
      <point x="858.9298245614035" y="881.4912280701755"/>
      <point x="957.561403508772" y="757.0877192982456"/>
      <point x="957.561403508772" y="501.49122807017545" type="curve" smooth="yes"/>
      <point x="957.561403508772" y="246.3859649122807"/>
      <point x="859.1754385964912" y="118.22807017543859"/>
    </contour>
  </outline>
</glyph>
<glyph name="q" format="2">
  <advance width="1269.1754385964912"/>
  <unicode hex="0071"/>
  <note>
q
</note>
  <anchor x="635.5964912280701" y="31.526315789473685" name="bottom"/>
  <anchor x="635.5964912280701" y="998.4561403508771" name="top"/>
  <outline>
    <contour>
      <point x="915.6140350877193" y="-526.0" type="line"/>
      <point x="1160.9122807017543" y="-526.0" type="line"/>
      <point x="1160.9122807017543" y="1004.6842105263158" type="line"/>
      <point x="918.1052631578948" y="1004.6842105263158" type="line"/>
      <point x="918.1052631578948" y="605.9473684210526" type="line"/>
      <point x="989.719298245614" y="658.8245614035088" type="line"/>
      <point x="935.2105263157895" y="906.4561403508771"/>
      <point x="792.438596491228" y="1031.6842105263158"/>
      <point x="559.8070175438596" y="1031.6842105263158" type="curve" smooth="yes"/>
      <point x="270.6842105263158" y="1031.6842105263158"/>
      <point x="82.26315789473685" y="822.719298245614"/>
      <point x="82.26315789473685" y="507.7543859649123" type="curve" smooth="yes"/>
      <point x="82.26315789473685" y="185.5438596491228"/>
      <point x="271.4561403508772" y="-32.719298245614034"/>
      <point x="556.0701754385965" y="-32.719298245614034" type="curve" smooth="yes"/>
      <point x="784.9473684210526" y="-32.719298245614034"/>
      <point x="934.7017543859649" y="101.28070175438597"/>
      <point x="984.9824561403509" y="352.43859649122805" type="curve"/>
      <point x="915.6140350877193" y="406.56140350877195" type="line"/>
    </contour>
    <contour>
      <point x="590.6842105263158" y="118.22807017543859" type="curve" smooth="yes"/>
      <point x="416.0" y="118.22807017543859"/>
      <point x="316.859649122807" y="246.3859649122807"/>
      <point x="316.859649122807" y="501.49122807017545" type="curve" smooth="yes"/>
      <point x="316.859649122807" y="754.5964912280701"/>
      <point x="415.49122807017545" y="881.4912280701755"/>
      <point x="594.1754385964912" y="881.4912280701755" type="curve" smooth="yes"/>
      <point x="771.8771929824561" y="881.4912280701755"/>
      <point x="886.9824561403509" y="723.4736842105264"/>
      <point x="886.9824561403509" y="510.2456140350877" type="curve" smooth="yes"/>
      <point x="886.9824561403509" y="285.5263157894737"/>
      <point x="766.8771929824561" y="118.22807017543859"/>
    </contour>
  </outline>
</glyph>
<glyph name="r" format="2">
  <advance width="1018.1754385964912"/>
  <unicode hex="0072"/>
  <note>
r
</note>
  <anchor x="195.31578947368422" y="0.0" name="bottom"/>
  <anchor x="647.7894736842105" y="1018.4561403508771" name="top"/>
  <outline>
    <contour>
      <point x="107.50877192982456" y="0.0" type="line"/>
      <point x="360.280701754386" y="0.0" type="line"/>
      <point x="360.280701754386" y="595.2982456140351" type="line" smooth="yes"/>
      <point x="360.280701754386" y="745.7543859649123"/>
      <point x="455.140350877193" y="878.0"/>
      <point x="587.578947368421" y="878.0" type="curve" smooth="yes"/>
      <point x="650.280701754386" y="878.0"/>
      <point x="768.8421052631579" y="868.140350877193"/>
      <point x="745.1929824561404" y="751.561403508772" type="curve" smooth="yes"/>
      <point x="743.4561403508771" y="733.5438596491229"/>
      <point x="733.4736842105264" y="690.5263157894736"/>
      <point x="714.9824561403509" y="665.4912280701755" type="curve"/>
      <point x="896.4736842105262" y="631.0701754385965" type="line"/>
      <point x="928.6315789473684" y="679.1754385964912"/>
      <point x="940.421052631579" y="762.7543859649123"/>
      <point x="940.421052631579" y="805.0526315789474" type="curve" smooth="yes"/>
      <point x="940.421052631579" y="978.578947368421"/>
      <point x="775.438596491228" y="1031.6842105263158"/>
      <point x="646.6315789473684" y="1031.6842105263158" type="curve" smooth="yes"/>
      <point x="444.4736842105263" y="1031.6842105263158"/>
      <point x="353.5438596491228" y="910.140350877193"/>
      <point x="306.140350877193" y="674.5087719298245" type="curve"/>
      <point x="357.7894736842105" y="526.5964912280701" type="line"/>
      <point x="360.280701754386" y="1004.6842105263158" type="line"/>
      <point x="107.50877192982456" y="1004.6842105263158" type="line"/>
    </contour>
  </outline>
</glyph>
<glyph name="s" format="2">
  <advance width="977.6666666666666"/>
  <unicode hex="0073"/>
  <note>
s
</note>
  <anchor x="463.56140350877195" y="-8.298245614035089" name="bottom"/>
  <anchor x="489.2105263157895" y="1012.9824561403509" name="top"/>
  <outline>
    <contour>
      <point x="471.1578947368421" y="-29.228070175438596" type="curve" smooth="yes"/>
      <point x="752.4561403508771" y="-27.736842105263158"/>
      <point x="900.4035087719299" y="79.57894736842105"/>
      <point x="899.1578947368421" y="289.1929824561403" type="curve" smooth="yes"/>
      <point x="898.6666666666667" y="490.2456140350877"/>
      <point x="724.6491228070175" y="555.3157894736842"/>
      <point x="494.63157894736844" y="603.561403508772" type="curve" smooth="yes"/>
      <point x="311.7894736842105" y="641.8245614035088"/>
      <point x="279.56140350877195" y="690.4736842105264"/>
      <point x="279.56140350877195" y="746.561403508772" type="curve" smooth="yes"/>
      <point x="279.56140350877195" y="839.7368421052631"/>
      <point x="361.70175438596493" y="872.280701754386"/>
      <point x="486.50877192982455" y="873.280701754386" type="curve" smooth="yes"/>
      <point x="617.0350877192982" y="873.5263157894736"/>
      <point x="728.140350877193" y="840.9298245614035"/>
      <point x="841.6842105263158" y="779.2456140350877" type="curve"/>
      <point x="840.438596491228" y="939.4736842105264" type="line"/>
      <point x="723.8421052631579" y="998.1929824561404"/>
      <point x="636.859649122807" y="1031.9298245614036"/>
      <point x="485.50877192982455" y="1031.6842105263158" type="curve" smooth="yes"/>
      <point x="254.6315789473684" y="1030.6842105263158"/>
      <point x="97.26315789473685" y="944.6315789473684"/>
      <point x="98.50877192982456" y="738.3508771929825" type="curve" smooth="yes"/>
      <point x="99.75438596491227" y="557.7017543859649"/>
      <point x="193.17543859649123" y="495.3859649122807"/>
      <point x="417.9122807017544" y="447.4035087719298" type="curve" smooth="yes"/>
      <point x="616.2280701754386" y="405.4035087719298"/>
      <point x="695.6842105263158" y="377.43859649122805"/>
      <point x="695.6842105263158" y="275.42105263157896" type="curve" smooth="yes"/>
      <point x="695.6842105263158" y="167.82456140350877"/>
      <point x="532.5964912280701" y="136.64912280701753"/>
      <point x="462.43859649122805" y="136.64912280701753" type="curve" smooth="yes"/>
      <point x="308.43859649122805" y="135.4035087719298"/>
      <point x="198.75438596491227" y="183.24561403508773"/>
      <point x="83.0" y="264.140350877193" type="curve"/>
      <point x="84.49122807017544" y="84.7017543859649" type="line"/>
      <point x="181.64912280701753" y="5.543859649122808"/>
      <point x="292.36842105263156" y="-30.473684210526315"/>
    </contour>
  </outline>
</glyph>
<glyph name="t" format="2">
  <advance width="824.3859649122807"/>
  <unicode hex="0074"/>
  <note>
t
</note>
  <anchor x="470.0526315789474" y="-10.0" name="bottom"/>
  <anchor x="408.17543859649123" y="555.8070175438596" name="center"/>
  <anchor x="430.0526315789474" y="998.4561403508771" name="top"/>
  <anchor x="818.4035087719299" y="1410.157894736842" name="topright"/>
  <outline>
    <contour>
      <point x="487.6140350877193" y="-29.736842105263158" type="curve" smooth="yes"/>
      <point x="567.2631578947369" y="-29.736842105263158"/>
      <point x="690.3684210526316" y="-11.508771929824562"/>
      <point x="746.6315789473684" y="6.719298245614034" type="curve"/>
      <point x="746.6315789473684" y="158.66666666666666" type="line"/>
      <point x="662.0877192982456" y="130.50877192982455"/>
      <point x="603.0350877192982" y="121.7017543859649"/>
      <point x="555.9298245614035" y="121.7017543859649" type="curve" smooth="yes"/>
      <point x="449.5964912280702" y="121.7017543859649"/>
      <point x="477.7894736842105" y="196.98245614035088"/>
      <point x="477.7894736842105" y="426.45614035087715" type="curve" smooth="yes"/>
      <point x="477.7894736842105" y="856.719298245614" type="line"/>
      <point x="690.5263157894736" y="856.719298245614" type="line"/>
      <point x="690.5263157894736" y="1006.421052631579" type="line"/>
      <point x="477.7894736842105" y="1006.421052631579" type="line"/>
      <point x="477.7894736842105" y="1304.6315789473683" type="line"/>
      <point x="360.3157894736842" y="1304.6315789473683" type="line"/>
      <point x="390.1929824561404" y="1090.8947368421052"/>
      <point x="311.10526315789474" y="1004.421052631579"/>
      <point x="77.0" y="1006.421052631579" type="curve"/>
      <point x="77.0" y="856.719298245614" type="line"/>
      <point x="250.4035087719298" y="856.719298245614" type="line"/>
      <point x="250.4035087719298" y="244.43859649122808" type="line" smooth="yes"/>
      <point x="250.4035087719298" y="100.40350877192982"/>
      <point x="289.1929824561403" y="-29.736842105263158"/>
    </contour>
  </outline>
</glyph>
<glyph name="u" format="2">
  <advance width="1187.0701754385964"/>
  <unicode hex="0075"/>
  <note>
u
</note>
  <anchor x="531.5087719298245" y="-8.298245614035089" name="bottom"/>
  <anchor x="978.3157894736842" y="0.0" name="ogonek"/>
  <anchor x="588.6842105263158" y="1004.6842105263158" name="top"/>
  <anchor x="1334.3333333333333" y="1004.6842105263158" name="topright"/>
  <outline>
    <contour>
      <point x="502.5263157894737" y="-26.50877192982456" type="curve" smooth="yes"/>
      <point x="706.8947368421053" y="-26.50877192982456"/>
      <point x="821.2631578947369" y="117.94736842105263"/>
      <point x="876.2105263157895" y="357.70175438596493" type="curve"/>
      <point x="829.280701754386" y="489.40350877192986" type="line"/>
      <point x="827.5438596491229" y="0.0" type="line"/>
      <point x="1079.561403508772" y="0.0" type="line"/>
      <point x="1079.561403508772" y="1004.6842105263158" type="line"/>
      <point x="827.5438596491229" y="1004.6842105263158" type="line"/>
      <point x="827.5438596491229" y="469.7368421052632" type="line" smooth="yes"/>
      <point x="827.5438596491229" y="271.7543859649123"/>
      <point x="716.4561403508771" y="126.17543859649123"/>
      <point x="531.9473684210526" y="126.17543859649123" type="curve" smooth="yes"/>
      <point x="395.10526315789474" y="126.17543859649123"/>
      <point x="351.03508771929825" y="225.5438596491228"/>
      <point x="351.03508771929825" y="425.4736842105263" type="curve" smooth="yes"/>
      <point x="351.03508771929825" y="1004.6842105263158" type="line"/>
      <point x="98.26315789473685" y="1004.6842105263158" type="line"/>
      <point x="98.26315789473685" y="357.36842105263156" type="line" smooth="yes"/>
      <point x="98.26315789473685" y="118.42105263157895"/>
      <point x="265.57894736842104" y="-26.50877192982456"/>
    </contour>
  </outline>
</glyph>
<glyph name="v" format="2">
  <advance width="1235.578947368421"/>
  <unicode hex="0076"/>
  <note>
v
</note>
  <anchor x="617.9122807017544" y="31.526315789473685" name="bottom"/>
  <anchor x="617.9122807017544" y="998.4561403508771" name="top"/>
  <outline>
    <contour>
      <point x="589.2982456140351" y="-25.75438596491228" type="line"/>
      <point x="654.280701754386" y="-25.75438596491228" type="line"/>
      <point x="1156.5964912280701" y="1004.6842105263158" type="line"/>
      <point x="995.4561403508771" y="1004.6842105263158" type="line"/>
      <point x="646.7368421052631" y="256.2280701754386" type="line"/>
      <point x="702.4561403508771" y="271.10526315789474" type="line"/>
      <point x="348.7894736842105" y="1004.6842105263158" type="line"/>
      <point x="78.98245614035088" y="1004.6842105263158" type="line"/>
    </contour>
  </outline>
</glyph>
<glyph name="w" format="2">
  <advance width="1760.3684210526317"/>
  <unicode hex="0077"/>
  <note>
w
</note>
  <anchor x="880.6842105263158" y="0.0" name="bottom"/>
  <anchor x="880.6842105263158" y="1004.6842105263158" name="top"/>
  <outline>
    <contour>
      <point x="1117.157894736842" y="-21.228070175438596" type="line"/>
      <point x="1183.140350877193" y="-21.228070175438596" type="line"/>
      <point x="1687.859649122807" y="1004.6842105263158" type="line"/>
      <point x="1528.2280701754385" y="1004.6842105263158" type="line"/>
      <point x="1174.5263157894738" y="254.64912280701753" type="line"/>
      <point x="1262.7543859649122" y="249.33333333333331" type="line"/>
      <point x="885.7017543859649" y="1004.6842105263158" type="line"/>
      <point x="616.6491228070175" y="1004.6842105263158" type="line"/>
    </contour>
    <contour>
      <point x="573.7719298245614" y="-21.228070175438596" type="line"/>
      <point x="639.5087719298245" y="-21.228070175438596" type="line"/>
      <point x="939.5087719298245" y="610.3684210526316" type="line"/>
      <point x="859.9473684210526" y="775.280701754386" type="line"/>
      <point x="627.9122807017544" y="254.64912280701753" type="line"/>
      <point x="695.719298245614" y="249.08771929824562" type="line"/>
      <point x="341.56140350877195" y="1004.6842105263158" type="line"/>
      <point x="72.50877192982456" y="1004.6842105263158" type="line"/>
    </contour>
    <contour>
      <point x="972.9122807017544" y="644.719298245614" type="line"/>
      <point x="1144.7894736842104" y="1004.6842105263158" type="line"/>
      <point x="982.421052631579" y="1004.6842105263158" type="line"/>
      <point x="861.0" y="749.140350877193" type="line"/>
    </contour>
  </outline>
</glyph>
<glyph name="x" format="2">
  <advance width="1205.2105263157896"/>
  <unicode hex="0078"/>
  <note>
x
</note>
  <anchor x="603.1052631578948" y="31.526315789473685" name="bottom"/>
  <anchor x="603.1052631578948" y="998.4561403508771" name="top"/>
  <outline>
    <contour>
      <point x="829.4561403508771" y="0.0" type="line"/>
      <point x="1132.9473684210527" y="0.0" type="line"/>
      <point x="378.7719298245614" y="1004.6842105263158" type="line"/>
      <point x="75.28070175438597" y="1004.6842105263158" type="line"/>
    </contour>
    <contour>
      <point x="98.40350877192982" y="0.0" type="line"/>
      <point x="291.70175438596493" y="0.0" type="line"/>
      <point x="635.5438596491229" y="444.6842105263158" type="line"/>
      <point x="542.1578947368421" y="569.3157894736842" type="line"/>
    </contour>
    <contour>
      <point x="662.7368421052631" y="459.140350877193" type="line"/>
      <point x="1088.719298245614" y="1004.6842105263158" type="line"/>
      <point x="894.1578947368421" y="1004.6842105263158" type="line"/>
      <point x="566.1754385964912" y="580.1052631578948" type="line"/>
    </contour>
  </outline>
</glyph>
<glyph name="y" format="2">
  <advance width="1173.719298245614"/>
  <unicode hex="0079"/>
  <note>
y
</note>
  <anchor x="847.5087719298245" y="0.0" name="bottom"/>
  <anchor x="620.3333333333334" y="1004.6842105263158" name="top"/>
  <outline>
    <contour>
      <point x="325.49122807017545" y="-570.1754385964912" type="curve" smooth="yes"/>
      <point x="462.7719298245614" y="-570.1754385964912"/>
      <point x="508.1929824561404" y="-456.70175438596493"/>
      <point x="556.6842105263158" y="-317.7543859649123" type="curve" smooth="yes"/>
      <point x="594.438596491228" y="-211.01754385964912"/>
      <point x="633.9473684210526" y="-98.50877192982456"/>
      <point x="677.6842105263158" y="10.0" type="curve"/>
      <point x="1100.4561403508771" y="1004.6842105263158" type="line"/>
      <point x="940.0701754385965" y="1004.6842105263158" type="line"/>
      <point x="611.4736842105264" y="226.859649122807" type="line"/>
      <point x="718.5964912280701" y="227.10526315789474" type="line"/>
      <point x="339.82456140350877" y="1004.6842105263158" type="line"/>
      <point x="72.26315789473685" y="1004.6842105263158" type="line"/>
      <point x="597.6491228070175" y="-57.45614035087719" type="line"/>
      <point x="572.0" y="134.66666666666666" type="line"/>
      <point x="472.7543859649123" y="-185.3859649122807" type="line" smooth="yes"/>
      <point x="424.6140350877193" y="-330.2280701754386"/>
      <point x="401.96491228070175" y="-458.35087719298247"/>
      <point x="321.7543859649123" y="-458.35087719298247" type="curve" smooth="yes"/>
      <point x="248.140350877193" y="-458.35087719298247"/>
      <point x="227.8421052631579" y="-416.89473684210526"/>
      <point x="226.35087719298247" y="-389.3157894736842" type="curve"/>
      <point x="125.24561403508773" y="-389.3157894736842" type="line"/>
      <point x="131.73684210526315" y="-505.4561403508772"/>
      <point x="197.47368421052633" y="-570.1754385964912"/>
    </contour>
  </outline>
</glyph>
<glyph name="z" format="2">
  <advance width="1089.8245614035088"/>
  <unicode hex="007A"/>
  <note>
z
</note>
  <anchor x="545.1578947368421" y="0.0" name="bottom"/>
  <anchor x="545.1578947368421" y="502.719298245614" name="center"/>
  <anchor x="545.1578947368421" y="1004.6842105263158" name="top"/>
  <outline>
    <contour>
      <point x="72.50877192982456" y="0.0" type="line"/>
      <point x="995.280701754386" y="0.0" type="line"/>
      <point x="995.280701754386" y="152.94736842105263" type="line"/>
      <point x="339.4736842105263" y="152.94736842105263" type="line"/>
      <point x="336.36842105263156" y="42.40350877192982" type="line"/>
      <point x="1012.8245614035088" y="1004.6842105263158" type="line"/>
      <point x="117.24561403508773" y="1004.6842105263158" type="line"/>
      <point x="117.24561403508773" y="852.9824561403509" type="line"/>
      <point x="735.7894736842105" y="852.9824561403509" type="line"/>
      <point x="748.2105263157895" y="961.5263157894736" type="line"/>
    </contour>
  </outline>
</glyph>
<glyph name="braceleft" format="2">
  <advance width="806.0"/>
  <unicode hex="007B"/>
  <note>
braceleft
</note>
  <outline>
    <contour>
      <point x="702.7543859649122" y="-380.5263157894737" type="curve"/>
      <point x="702.7543859649122" y="-208.63157894736844" type="line"/>
      <point x="506.1578947368421" y="-237.75438596491227"/>
      <point x="438.1929824561404" y="-172.98245614035088"/>
      <point x="438.1929824561404" y="53.1578947368421" type="curve" smooth="yes"/>
      <point x="438.1929824561404" y="352.4561403508772" type="line" smooth="yes"/>
      <point x="438.1929824561404" y="408.70175438596493"/>
      <point x="418.42105263157896" y="449.70175438596493"/>
      <point x="372.36842105263156" y="491.2280701754386" type="curve"/>
      <point x="418.42105263157896" y="534.2631578947369"/>
      <point x="438.1929824561404" y="574.2631578947369"/>
      <point x="438.1929824561404" y="629.0" type="curve" smooth="yes"/>
      <point x="438.1929824561404" y="1026.561403508772" type="line" smooth="yes"/>
      <point x="438.1929824561404" y="1245.4035087719299"/>
      <point x="512.9473684210526" y="1317.4736842105262"/>
      <point x="702.7543859649122" y="1287.1052631578948" type="curve"/>
      <point x="702.7543859649122" y="1460.2456140350878" type="line"/>
      <point x="430.4561403508772" y="1486.6842105263158"/>
      <point x="258.82456140350877" y="1342.4561403508771"/>
      <point x="258.82456140350877" y="1091.8245614035088" type="curve" smooth="yes"/>
      <point x="258.82456140350877" y="629.0" type="line" smooth="yes"/>
      <point x="258.82456140350877" y="583.7368421052631"/>
      <point x="240.29824561403507" y="577.1578947368421"/>
      <point x="94.50877192982456" y="492.4736842105263" type="curve"/>
      <point x="238.03508771929825" y="407.82456140350877"/>
      <point x="258.82456140350877" y="397.719298245614"/>
      <point x="258.82456140350877" y="352.4561403508772" type="curve" smooth="yes"/>
      <point x="258.82456140350877" y="-11.350877192982455" type="line" smooth="yes"/>
      <point x="258.82456140350877" y="-264.9824561403509"/>
      <point x="429.2105263157895" y="-406.4561403508772"/>
    </contour>
  </outline>
</glyph>
<glyph name="bar" format="2">
  <advance width="548.5263157894736"/>
  <unicode hex="007C"/>
  <note>
bar
</note>
  <outline>
    <contour>
      <point x="172.26315789473685" y="-300.0" type="line"/>
      <point x="376.2631578947369" y="-300.0" type="line"/>
      <point x="376.2631578947369" y="1664.0" type="line"/>
      <point x="172.26315789473685" y="1664.0" type="line"/>
    </contour>
  </outline>
</glyph>
<glyph name="braceright" format="2">
  <advance width="806.7543859649122"/>
  <unicode hex="007D"/>
  <note>
braceright
</note>
  <outline>
    <contour>
      <point x="103.24561403508773" y="-380.5263157894737" type="line"/>
      <point x="377.5438596491228" y="-406.4561403508772"/>
      <point x="547.1754385964912" y="-264.9824561403509"/>
      <point x="547.1754385964912" y="-11.350877192982455" type="curve" smooth="yes"/>
      <point x="547.1754385964912" y="352.4561403508772" type="line" smooth="yes"/>
      <point x="547.1754385964912" y="397.96491228070175"/>
      <point x="567.4736842105264" y="406.82456140350877"/>
      <point x="712.2456140350878" y="491.4736842105263" type="curve"/>
      <point x="564.2105263157895" y="577.4035087719299"/>
      <point x="547.1754385964912" y="584.2280701754386"/>
      <point x="547.1754385964912" y="629.0" type="curve" smooth="yes"/>
      <point x="547.1754385964912" y="1091.8245614035088" type="line" smooth="yes"/>
      <point x="547.1754385964912" y="1342.4561403508771"/>
      <point x="376.29824561403507" y="1486.6842105263158"/>
      <point x="103.24561403508773" y="1460.2456140350878" type="curve"/>
      <point x="103.24561403508773" y="1287.1052631578948" type="line"/>
      <point x="294.8070175438597" y="1317.4736842105262"/>
      <point x="368.3157894736842" y="1245.6491228070176"/>
      <point x="368.3157894736842" y="1026.561403508772" type="curve" smooth="yes"/>
      <point x="368.3157894736842" y="629.0" type="line" smooth="yes"/>
      <point x="368.3157894736842" y="573.0175438596491"/>
      <point x="388.0877192982456" y="534.5087719298245"/>
      <point x="434.140350877193" y="491.2280701754386" type="curve"/>
      <point x="388.0877192982456" y="449.4561403508772"/>
      <point x="368.3157894736842" y="408.94736842105266"/>
      <point x="368.3157894736842" y="352.4561403508772" type="curve" smooth="yes"/>
      <point x="368.3157894736842" y="53.1578947368421" type="line" smooth="yes"/>
      <point x="368.3157894736842" y="-172.98245614035088"/>
      <point x="300.35087719298247" y="-237.75438596491227"/>
      <point x="103.24561403508773" y="-208.63157894736844" type="curve"/>
    </contour>
  </outline>
</glyph>
<glyph name="asciitilde" format="2">
  <advance width="1397.3859649122808"/>
  <unicode hex="007E"/>
  <note>
asciitilde
</note>
  <outline>
    <contour>
      <point x="894.0701754385965" y="538.1052631578948" type="curve" smooth="yes"/>
      <point x="1037.8947368421052" y="538.1052631578948"/>
      <point x="1194.017543859649" y="633.3859649122807"/>
      <point x="1263.3684210526317" y="685.438596491228" type="curve"/>
      <point x="1157.4035087719299" y="845.6666666666666" type="line"/>
      <point x="1076.3157894736842" y="788.421052631579"/>
      <point x="976.7894736842105" y="751.1228070175439"/>
      <point x="892.8070175438596" y="751.1228070175439" type="curve" smooth="yes"/>
      <point x="818.3333333333333" y="751.1228070175439"/>
      <point x="767.3508771929825" y="785.8771929824561"/>
      <point x="728.6491228070175" y="806.6140350877193" type="curve" smooth="yes"/>
      <point x="639.0" y="855.5964912280701"/>
      <point x="569.5964912280701" y="882.3508771929825"/>
      <point x="494.57894736842104" y="882.3508771929825" type="curve" smooth="yes"/>
      <point x="388.57894736842104" y="882.3508771929825"/>
      <point x="248.10526315789474" y="817.1578947368421"/>
      <point x="134.01754385964912" y="707.859649122807" type="curve"/>
      <point x="235.26315789473685" y="558.5964912280701" type="line"/>
      <point x="340.9824561403509" y="635.2456140350877"/>
      <point x="428.49122807017545" y="666.578947368421"/>
      <point x="495.0877192982456" y="666.578947368421" type="curve" smooth="yes"/>
      <point x="554.9122807017544" y="666.578947368421"/>
      <point x="616.859649122807" y="636.280701754386"/>
      <point x="678.4912280701755" y="604.578947368421" type="curve" smooth="yes"/>
      <point x="770.9298245614035" y="553.578947368421"/>
      <point x="824.1228070175439" y="538.1052631578948"/>
    </contour>
  </outline>
</glyph>
<glyph name=".notdef" format="2">
  <advance width="1235.0"/>
  <unicode hex="007F"/>
  <note>
.notdef
</note>
  <outline>
    <contour>
      <point x="53.719298245614034" y="-344.5438596491228" type="line"/>
      <point x="1181.280701754386" y="-344.5438596491228" type="line"/>
      <point x="1181.280701754386" y="1415.2280701754387" type="line"/>
      <point x="53.719298245614034" y="1415.2280701754387" type="line"/>
    </contour>
    <contour>
      <point x="268.280701754386" y="-142.68421052631578" type="line"/>
      <point x="268.280701754386" y="1213.3684210526317" type="line"/>
      <point x="968.719298245614" y="1213.3684210526317" type="line"/>
      <point x="968.719298245614" y="-142.68421052631578" type="line"/>
    </contour>
  </outline>
</glyph>
<glyph name="Euro" format="2">
  <advance width="1785.9298245614036"/>
  <unicode hex="0080"/>
  <note>
Euro
</note>
  <outline>
    <contour>
      <point x="1060.3508771929824" y="-37.140350877192986" type="curve" smooth="yes"/>
      <point x="1336.3508771929824" y="-37.140350877192986"/>
      <point x="1528.9122807017543" y="111.9298245614035"/>
      <point x="1641.6666666666667" y="354.0175438596491" type="curve"/>
      <point x="1429.8947368421052" y="354.0175438596491" type="line"/>
      <point x="1344.4912280701753" y="164.26315789473685"/>
      <point x="1189.8245614035088" y="106.33333333333333"/>
      <point x="1068.842105263158" y="106.33333333333333" type="curve" smooth="yes"/>
      <point x="799.5087719298245" y="106.33333333333333"/>
      <point x="621.561403508772" y="378.7894736842105"/>
      <point x="621.561403508772" y="704.5438596491229" type="curve" smooth="yes"/>
      <point x="621.561403508772" y="1045.6842105263158"/>
      <point x="821.1578947368421" y="1302.7543859649122"/>
      <point x="1057.122807017544" y="1302.7543859649122" type="curve" smooth="yes"/>
      <point x="1188.0877192982457" y="1302.7543859649122"/>
      <point x="1363.2105263157894" y="1225.122807017544"/>
      <point x="1420.1929824561403" y="1050.6315789473683" type="curve"/>
      <point x="1627.701754385965" y="1050.6315789473683" type="line"/>
      <point x="1536.2105263157896" y="1286.4035087719299"/>
      <point x="1340.3684210526317" y="1445.4736842105262"/>
      <point x="1061.1052631578948" y="1445.4736842105262" type="curve" smooth="yes"/>
      <point x="672.2456140350878" y="1445.4736842105262"/>
      <point x="377.4736842105263" y="1155.2280701754387"/>
      <point x="378.2280701754386" y="705.0350877192982" type="curve" smooth="yes"/>
      <point x="378.2280701754386" y="267.56140350877195"/>
      <point x="665.2456140350877" y="-37.140350877192986"/>
    </contour>
    <contour>
      <point x="144.26315789473685" y="486.63157894736844" type="line"/>
      <point x="1086.7543859649122" y="486.63157894736844" type="line"/>
      <point x="1122.421052631579" y="629.8421052631579" type="line"/>
      <point x="182.42105263157896" y="629.8421052631579" type="line"/>
    </contour>
    <contour>
      <point x="193.26315789473685" y="766.6842105263158" type="line"/>
      <point x="1136.0" y="766.6842105263158" type="line"/>
      <point x="1171.9298245614036" y="909.140350877193" type="line"/>
      <point x="232.17543859649123" y="909.140350877193" type="line"/>
    </contour>
  </outline>
</glyph>
<glyph name="sterling" format="2">
  <advance width="1333.0877192982457"/>
  <unicode hex="00A3"/>
  <note>
sterling
</note>
  <outline>
    <contour>
      <point x="387.42105263157896" y="101.7719298245614" type="curve" smooth="yes"/>
      <point x="550.7719298245614" y="101.7719298245614"/>
      <point x="765.1052631578948" y="268.280701754386"/>
      <point x="765.1052631578948" y="481.4035087719298" type="curve" smooth="yes"/>
      <point x="765.1052631578948" y="644.421052631579"/>
      <point x="678.4736842105262" y="712.8421052631579"/>
      <point x="553.0350877192982" y="808.5263157894736" type="curve" smooth="yes"/>
      <point x="415.63157894736844" y="913.6842105263158"/>
      <point x="403.70175438596493" y="1031.2280701754387"/>
      <point x="403.70175438596493" y="1116.3508771929824" type="curve" smooth="yes"/>
      <point x="403.70175438596493" y="1259.4035087719299"/>
      <point x="509.96491228070175" y="1324.2456140350878"/>
      <point x="642.0" y="1324.2456140350878" type="curve" smooth="yes"/>
      <point x="807.0701754385965" y="1324.2456140350878"/>
      <point x="921.9473684210526" y="1207.0350877192982"/>
      <point x="924.4912280701755" y="1073.8245614035088" type="curve"/>
      <point x="1131.6666666666667" y="1073.8245614035088" type="line"/>
      <point x="1117.3684210526317" y="1318.2456140350878"/>
      <point x="942.9824561403509" y="1462.719298245614"/>
      <point x="655.2280701754386" y="1462.719298245614" type="curve" smooth="yes"/>
      <point x="356.0701754385965" y="1462.719298245614"/>
      <point x="172.82456140350877" y="1288.6315789473683"/>
      <point x="172.82456140350877" y="1056.7719298245613" type="curve" smooth="yes"/>
      <point x="172.82456140350877" y="866.4035087719299"/>
      <point x="288.1578947368421" y="773.6315789473684"/>
      <point x="413.5964912280702" y="690.4035087719299" type="curve" smooth="yes"/>
      <point x="521.8245614035088" y="618.4035087719299"/>
      <point x="529.4736842105264" y="565.7368421052631"/>
      <point x="529.4736842105264" y="468.859649122807" type="curve" smooth="yes"/>
      <point x="529.4736842105264" y="334.3859649122807"/>
      <point x="340.9473684210526" y="210.73684210526315"/>
      <point x="160.71929824561403" y="208.4561403508772" type="curve"/>
      <point x="260.12280701754383" y="78.22807017543859"/>
      <point x="290.50877192982455" y="101.7719298245614"/>
    </contour>
    <contour>
      <point x="160.71929824561403" y="0.0" type="line"/>
      <point x="1185.0877192982457" y="0.0" type="line"/>
      <point x="1185.0877192982457" y="208.4561403508772" type="line"/>
      <point x="160.71929824561403" y="208.4561403508772" type="line"/>
    </contour>
    <contour>
      <point x="158.4561403508772" y="625.5087719298245" type="line"/>
      <point x="1033.9122807017543" y="625.5087719298245" type="line"/>
      <point x="1033.9122807017543" y="771.4561403508771" type="line"/>
      <point x="158.4561403508772" y="771.4561403508771" type="line"/>
    </contour>
  </outline>
</glyph>
<glyph name="currency" format="2">
  <advance width="1344.719298245614"/>
  <unicode hex="00A4"/>
  <note>
currency
</note>
  <outline>
    <contour>
      <point x="250.05263157894737" y="186.49122807017545" type="line"/>
      <point x="402.719298245614" y="339.1578947368421" type="line"/>
      <point x="477.89473684210526" y="285.1929824561404"/>
      <point x="571.3157894736842" y="253.21052631578948"/>
      <point x="671.9824561403509" y="253.21052631578948" type="curve" smooth="yes"/>
      <point x="772.6491228070175" y="253.21052631578948"/>
      <point x="866.0701754385965" y="285.1929824561404"/>
      <point x="941.2456140350878" y="339.1578947368421" type="curve"/>
      <point x="1094.6666666666667" y="186.49122807017545" type="line"/>
      <point x="1199.701754385965" y="291.5263157894737" type="line"/>
      <point x="1047.0350877192982" y="444.9473684210526" type="line"/>
      <point x="1101.0" y="520.8771929824561"/>
      <point x="1132.982456140351" y="613.5438596491229"/>
      <point x="1132.982456140351" y="714.2105263157895" type="curve" smooth="yes"/>
      <point x="1132.982456140351" y="814.8771929824561"/>
      <point x="1101.0" y="908.2982456140351"/>
      <point x="1047.0350877192982" y="983.4736842105264" type="curve"/>
      <point x="1199.701754385965" y="1136.140350877193" type="line"/>
      <point x="1093.9122807017543" y="1241.9298245614036" type="line"/>
      <point x="941.2456140350878" y="1089.2631578947369" type="line"/>
      <point x="866.0701754385965" y="1143.2280701754387"/>
      <point x="772.6491228070175" y="1175.2105263157896"/>
      <point x="671.9824561403509" y="1175.2105263157896" type="curve" smooth="yes"/>
      <point x="572.0701754385965" y="1175.2105263157896"/>
      <point x="478.64912280701753" y="1143.2280701754387"/>
      <point x="402.719298245614" y="1089.2631578947369" type="curve"/>
      <point x="250.05263157894737" y="1241.1754385964912" type="line"/>
      <point x="145.01754385964912" y="1136.140350877193" type="line"/>
      <point x="297.6842105263158" y="983.4736842105264" type="line"/>
      <point x="242.96491228070175" y="908.2982456140351"/>
      <point x="210.98245614035088" y="814.8771929824561"/>
      <point x="210.98245614035088" y="714.2105263157895" type="curve" smooth="yes"/>
      <point x="210.98245614035088" y="613.5438596491229"/>
      <point x="242.96491228070175" y="520.8771929824561"/>
      <point x="296.9298245614035" y="444.9473684210526" type="curve"/>
      <point x="145.01754385964912" y="292.280701754386" type="line"/>
    </contour>
    <contour>
      <point x="671.9824561403509" y="409.140350877193" type="curve" smooth="yes"/>
      <point x="503.33333333333337" y="409.140350877193"/>
      <point x="366.9122807017544" y="545.561403508772"/>
      <point x="366.9122807017544" y="714.2105263157895" type="curve" smooth="yes"/>
      <point x="366.9122807017544" y="882.859649122807"/>
      <point x="503.33333333333337" y="1019.280701754386"/>
      <point x="671.9824561403509" y="1019.280701754386" type="curve" smooth="yes"/>
      <point x="840.6315789473684" y="1019.280701754386"/>
      <point x="977.0526315789474" y="882.859649122807"/>
      <point x="977.0526315789474" y="714.2105263157895" type="curve" smooth="yes"/>
      <point x="977.0526315789474" y="545.561403508772"/>
      <point x="840.6315789473684" y="409.140350877193"/>
    </contour>
  </outline>
</glyph>
<glyph name="brokenbar" format="2">
  <advance width="548.5263157894736"/>
  <unicode hex="00A6"/>
  <note>
brokenbar
</note>
  <outline>
    <contour>
      <point x="172.26315789473685" y="-300.0" type="line"/>
      <point x="376.2631578947369" y="-300.0" type="line"/>
      <point x="376.2631578947369" y="486.64912280701753" type="line"/>
      <point x="172.26315789473685" y="486.64912280701753" type="line"/>
    </contour>
    <contour>
      <point x="172.26315789473685" y="905.3508771929825" type="line"/>
      <point x="376.2631578947369" y="905.3508771929825" type="line"/>
      <point x="376.2631578947369" y="1664.0" type="line"/>
      <point x="172.26315789473685" y="1664.0" type="line"/>
    </contour>
  </outline>
</glyph>
<glyph name="section" format="2">
  <advance width="1379.0877192982457"/>
  <unicode hex="00A7"/>
  <note>
section
</note>
  <outline>
    <contour>
      <point x="675.6666666666666" y="-433.35087719298247" type="curve" smooth="yes"/>
      <point x="982.8421052631579" y="-433.35087719298247"/>
      <point x="1170.578947368421" y="-301.12280701754383"/>
      <point x="1170.578947368421" y="-79.19298245614036" type="curve" smooth="yes"/>
      <point x="1170.578947368421" y="115.24561403508771"/>
      <point x="1057.561403508772" y="212.7719298245614"/>
      <point x="786.9122807017544" y="256.5263157894737" type="curve"/>
      <point x="774.9473684210526" y="127.2982456140351" type="line"/>
      <point x="1095.5964912280701" y="181.2982456140351"/>
      <point x="1243.8245614035088" y="302.280701754386"/>
      <point x="1243.8245614035088" y="527.2105263157895" type="curve" smooth="yes"/>
      <point x="1243.8245614035088" y="723.8771929824561"/>
      <point x="1130.3859649122808" y="847.859649122807"/>
      <point x="853.3859649122807" y="937.140350877193" type="curve" smooth="yes"/>
      <point x="624.3508771929825" y="1011.5964912280701"/>
      <point x="526.140350877193" y="1053.877192982456"/>
      <point x="526.140350877193" y="1118.122807017544" type="curve" smooth="yes"/>
      <point x="526.140350877193" y="1232.842105263158"/>
      <point x="584.4736842105264" y="1327.5964912280701"/>
      <point x="684.421052631579" y="1327.5964912280701" type="curve" smooth="yes"/>
      <point x="799.5964912280701" y="1327.5964912280701"/>
      <point x="844.438596491228" y="1223.3508771929824"/>
      <point x="841.4561403508771" y="1037.7894736842104" type="curve"/>
      <point x="1161.3333333333333" y="1037.7894736842104" type="line"/>
      <point x="1161.3333333333333" y="1108.877192982456" type="line" smooth="yes"/>
      <point x="1161.3333333333333" y="1343.8070175438597"/>
      <point x="994.3508771929825" y="1472.5263157894738"/>
      <point x="696.421052631579" y="1472.5263157894738" type="curve" smooth="yes"/>
      <point x="391.2456140350877" y="1472.5263157894738"/>
      <point x="193.50877192982455" y="1336.5438596491229"/>
      <point x="193.50877192982455" y="1120.122807017544" type="curve" smooth="yes"/>
      <point x="193.50877192982455" y="940.9298245614035"/>
      <point x="299.8070175438597" y="857.8947368421052"/>
      <point x="637.5263157894736" y="772.6842105263158" type="curve"/>
      <point x="575.4561403508771" y="911.6315789473684" type="line"/>
      <point x="298.49122807017545" y="882.140350877193"/>
      <point x="135.26315789473685" y="732.9122807017544"/>
      <point x="135.26315789473685" y="511.96491228070175" type="curve" smooth="yes"/>
      <point x="135.26315789473685" y="298.5438596491228"/>
      <point x="247.24561403508773" y="200.2982456140351"/>
      <point x="615.6842105263158" y="78.28070175438597" type="curve" smooth="yes"/>
      <point x="757.3859649122807" y="32.03508771929825"/>
      <point x="842.9473684210526" y="-17.75438596491228"/>
      <point x="842.9473684210526" y="-73.19298245614036" type="curve" smooth="yes"/>
      <point x="842.9473684210526" y="-191.66666666666669"/>
      <point x="787.140350877193" y="-288.42105263157896"/>
      <point x="679.6666666666666" y="-288.42105263157896" type="curve" smooth="yes"/>
      <point x="555.5087719298245" y="-288.42105263157896"/>
      <point x="500.1578947368421" y="-173.43859649122805"/>
      <point x="505.3859649122807" y="9.140350877192986" type="curve"/>
      <point x="182.50877192982455" y="9.140350877192986" type="line"/>
      <point x="182.50877192982455" y="-62.70175438596492" type="line" smooth="yes"/>
      <point x="182.50877192982455" y="-288.87719298245617"/>
      <point x="377.49122807017545" y="-433.35087719298247"/>
    </contour>
    <contour>
      <point x="686.421052631579" y="289.8070175438596" type="curve" smooth="yes"/>
      <point x="557.8947368421053" y="289.8070175438596"/>
      <point x="447.89473684210526" y="398.859649122807"/>
      <point x="447.89473684210526" y="525.9649122807018" type="curve" smooth="yes"/>
      <point x="447.89473684210526" y="655.8245614035088"/>
      <point x="556.6491228070175" y="761.3684210526316"/>
      <point x="686.6666666666666" y="761.3684210526316" type="curve" smooth="yes"/>
      <point x="817.438596491228" y="761.3684210526316"/>
      <point x="931.438596491228" y="653.578947368421"/>
      <point x="931.438596491228" y="525.719298245614" type="curve" smooth="yes"/>
      <point x="931.438596491228" y="400.10526315789474"/>
      <point x="814.438596491228" y="289.8070175438596"/>
    </contour>
  </outline>
</glyph>
<glyph name="copyright" format="2">
  <advance width="1809.7894736842106"/>
  <unicode hex="00A9"/>
  <note>
copyright
</note>
  <outline>
    <contour>
      <point x="903.6491228070175" y="-19.45614035087719" type="curve" smooth="yes"/>
      <point x="1107.4035087719299" y="-19.45614035087719"/>
      <point x="1301.122807017544" y="58.578947368421055"/>
      <point x="1447.578947368421" y="192.78947368421052" type="curve" smooth="yes"/>
      <point x="1596.3157894736842" y="329.7894736842105"/>
      <point x="1670.5263157894738" y="507.05263157894734"/>
      <point x="1670.5263157894738" y="705.2631578947369" type="curve" smooth="yes"/>
      <point x="1670.5263157894738" y="911.0350877192982"/>
      <point x="1594.561403508772" y="1083.4912280701753"/>
      <point x="1449.3157894736842" y="1217.982456140351" type="curve" smooth="yes"/>
      <point x="1303.5964912280701" y="1353.4561403508771"/>
      <point x="1115.6315789473683" y="1429.982456140351"/>
      <point x="903.6491228070175" y="1429.982456140351" type="curve" smooth="yes"/>
      <point x="701.2105263157895" y="1429.982456140351"/>
      <point x="516.438596491228" y="1362.1929824561403"/>
      <point x="367.2280701754386" y="1219.7368421052631" type="curve" smooth="yes"/>
      <point x="220.98245614035088" y="1080.4912280701753"/>
      <point x="139.01754385964912" y="899.719298245614"/>
      <point x="139.01754385964912" y="705.2631578947369" type="curve" smooth="yes"/>
      <point x="139.01754385964912" y="510.7543859649123"/>
      <point x="216.24561403508773" y="332.280701754386"/>
      <point x="366.9824561403509" y="192.03508771929825" type="curve" smooth="yes"/>
      <point x="512.4561403508771" y="56.29824561403509"/>
      <point x="702.438596491228" y="-19.45614035087719"/>
    </contour>
    <contour>
      <point x="903.421052631579" y="308.03508771929825" type="curve" smooth="yes"/>
      <point x="1110.842105263158" y="308.03508771929825"/>
      <point x="1245.140350877193" y="428.7368421052631"/>
      <point x="1257.2105263157894" y="608.280701754386" type="curve"/>
      <point x="1102.7543859649122" y="608.280701754386" type="line"/>
      <point x="1091.4561403508771" y="499.2105263157895"/>
      <point x="1021.5438596491229" y="440.10526315789474"/>
      <point x="910.1754385964912" y="440.10526315789474" type="curve" smooth="yes"/>
      <point x="763.5263157894736" y="440.10526315789474"/>
      <point x="691.561403508772" y="538.3333333333334"/>
      <point x="691.561403508772" y="703.2631578947369" type="curve" smooth="yes"/>
      <point x="691.561403508772" y="866.719298245614"/>
      <point x="760.8070175438596" y="973.421052631579"/>
      <point x="910.1754385964912" y="973.421052631579" type="curve" smooth="yes"/>
      <point x="1017.5438596491229" y="973.421052631579"/>
      <point x="1078.4736842105262" y="916.280701754386"/>
      <point x="1094.4912280701753" y="822.5087719298245" type="curve"/>
      <point x="1248.2105263157894" y="822.5087719298245" type="line"/>
      <point x="1235.3859649122808" y="990.0526315789474"/>
      <point x="1113.0877192982457" y="1104.4912280701753"/>
      <point x="912.1754385964912" y="1104.4912280701753" type="curve" smooth="yes"/>
      <point x="678.6491228070175" y="1104.4912280701753"/>
      <point x="523.140350877193" y="948.140350877193"/>
      <point x="523.140350877193" y="702.5087719298245" type="curve" smooth="yes"/>
      <point x="523.140350877193" y="463.36842105263156"/>
      <point x="668.4035087719299" y="308.03508771929825"/>
    </contour>
    <contour>
      <point x="903.6491228070175" y="129.7719298245614" type="curve" smooth="yes"/>
      <point x="739.859649122807" y="129.7719298245614"/>
      <point x="586.578947368421" y="193.5438596491228"/>
      <point x="469.56140350877195" y="302.0701754385965" type="curve" smooth="yes"/>
      <point x="345.5263157894737" y="416.6140350877193"/>
      <point x="289.0" y="558.1929824561404"/>
      <point x="289.0" y="705.2631578947369" type="curve" smooth="yes"/>
      <point x="289.0" y="863.3333333333334"/>
      <point x="347.5263157894737" y="998.4035087719299"/>
      <point x="471.0526315789474" y="1112.438596491228" type="curve" smooth="yes"/>
      <point x="588.8245614035088" y="1221.719298245614"/>
      <point x="731.1228070175439" y="1282.2456140350878"/>
      <point x="903.6491228070175" y="1282.2456140350878" type="curve" smooth="yes"/>
      <point x="1071.421052631579" y="1282.2456140350878"/>
      <point x="1228.982456140351" y="1216.4561403508771"/>
      <point x="1345.0" y="1110.6842105263158" type="curve" smooth="yes"/>
      <point x="1467.280701754386" y="999.4035087719299"/>
      <point x="1521.7894736842106" y="856.8245614035088"/>
      <point x="1521.7894736842106" y="705.2631578947369" type="curve" smooth="yes"/>
      <point x="1521.7894736842106" y="541.9122807017544"/>
      <point x="1468.017543859649" y="413.10526315789474"/>
      <point x="1347.4912280701753" y="304.0701754385965" type="curve" smooth="yes"/>
      <point x="1229.4736842105262" y="197.5438596491228"/>
      <point x="1072.438596491228" y="129.7719298245614"/>
    </contour>
  </outline>
</glyph>
<glyph name="ordfeminine" format="2">
  <advance width="897.9649122807018"/>
  <unicode hex="00AA"/>
  <note>
ordfeminine
</note>
  <outline>
    <contour>
      <point x="425.859649122807" y="784.0175438596491" type="curve" smooth="yes"/>
      <point x="511.5438596491228" y="784.0175438596491"/>
      <point x="602.1052631578947" y="842.1228070175439"/>
      <point x="627.0350877192982" y="917.8070175438596" type="curve"/>
      <point x="627.0350877192982" y="793.8070175438596" type="line"/>
      <point x="760.6140350877192" y="793.8070175438596" type="line"/>
      <point x="760.6140350877192" y="1441.719298245614" type="line"/>
      <point x="625.0350877192982" y="1441.719298245614" type="line"/>
      <point x="625.0350877192982" y="1316.2105263157896" type="line"/>
      <point x="602.0877192982456" y="1395.6315789473683"/>
      <point x="511.03508771929825" y="1456.4736842105262"/>
      <point x="420.859649122807" y="1456.4736842105262" type="curve" smooth="yes"/>
      <point x="232.5263157894737" y="1456.4736842105262"/>
      <point x="109.63157894736842" y="1319.7719298245613"/>
      <point x="109.63157894736842" y="1118.122807017544" type="curve" smooth="yes"/>
      <point x="109.63157894736842" y="919.719298245614"/>
      <point x="235.5263157894737" y="784.0175438596491"/>
    </contour>
    <contour>
      <point x="432.859649122807" y="905.9122807017544" type="curve" smooth="yes"/>
      <point x="333.0" y="905.9122807017544"/>
      <point x="268.42105263157896" y="992.4912280701755"/>
      <point x="268.42105263157896" y="1126.0877192982457" type="curve" smooth="yes"/>
      <point x="268.42105263157896" y="1252.4736842105262"/>
      <point x="331.2456140350877" y="1334.578947368421"/>
      <point x="429.859649122807" y="1334.578947368421" type="curve" smooth="yes"/>
      <point x="526.0" y="1334.578947368421"/>
      <point x="588.3508771929825" y="1250.7543859649122"/>
      <point x="588.3508771929825" y="1116.877192982456" type="curve" smooth="yes"/>
      <point x="588.3508771929825" y="987.2456140350877"/>
      <point x="527.0" y="905.9122807017544"/>
    </contour>
    <contour>
      <point x="110.14035087719299" y="614.2280701754386" type="line"/>
      <point x="783.7894736842105" y="614.2280701754386" type="line"/>
      <point x="783.7894736842105" y="707.2631578947369" type="line"/>
      <point x="110.14035087719299" y="707.2631578947369" type="line"/>
    </contour>
  </outline>
</glyph>
<glyph name="logicalnot" format="2">
  <advance width="1141.982456140351"/>
  <unicode hex="00AC"/>
  <note>
logicalnot
</note>
  <outline>
    <contour>
      <point x="1160.8245614035088" y="315.35087719298247" type="line"/>
      <point x="1360.0526315789473" y="315.35087719298247" type="line"/>
      <point x="1360.0526315789473" y="887.9473684210526" type="line"/>
      <point x="142.24561403508773" y="887.9473684210526" type="line"/>
      <point x="142.24561403508773" y="692.4035087719299" type="line"/>
      <point x="1160.8245614035088" y="692.4035087719299" type="line"/>
    </contour>
  </outline>
</glyph>
<glyph name="registered" format="2">
  <advance width="1809.7894736842106"/>
  <unicode hex="00AE"/>
  <note>
registered
</note>
  <outline>
    <contour>
      <point x="903.6491228070175" y="-19.45614035087719" type="curve" smooth="yes"/>
      <point x="1107.4035087719299" y="-19.45614035087719"/>
      <point x="1301.122807017544" y="58.578947368421055"/>
      <point x="1447.578947368421" y="192.78947368421052" type="curve" smooth="yes"/>
      <point x="1596.3157894736842" y="329.7894736842105"/>
      <point x="1670.5263157894738" y="507.05263157894734"/>
      <point x="1670.5263157894738" y="705.2631578947369" type="curve" smooth="yes"/>
      <point x="1670.5263157894738" y="911.0350877192982"/>
      <point x="1594.561403508772" y="1083.4912280701753"/>
      <point x="1449.3157894736842" y="1217.982456140351" type="curve" smooth="yes"/>
      <point x="1303.5964912280701" y="1353.4561403508771"/>
      <point x="1115.6315789473683" y="1429.982456140351"/>
      <point x="903.6491228070175" y="1429.982456140351" type="curve" smooth="yes"/>
      <point x="701.2105263157895" y="1429.982456140351"/>
      <point x="516.438596491228" y="1362.1929824561403"/>
      <point x="367.2280701754386" y="1219.7368421052631" type="curve" smooth="yes"/>
      <point x="220.98245614035088" y="1080.4912280701753"/>
      <point x="139.01754385964912" y="899.719298245614"/>
      <point x="139.01754385964912" y="705.2631578947369" type="curve" smooth="yes"/>
      <point x="139.01754385964912" y="510.7543859649123"/>
      <point x="216.24561403508773" y="332.280701754386"/>
      <point x="366.9824561403509" y="192.03508771929825" type="curve" smooth="yes"/>
      <point x="512.4561403508771" y="56.29824561403509"/>
      <point x="702.438596491228" y="-19.45614035087719"/>
    </contour>
    <contour>
      <point x="903.6491228070175" y="129.7719298245614" type="curve" smooth="yes"/>
      <point x="739.859649122807" y="129.7719298245614"/>
      <point x="586.578947368421" y="193.5438596491228"/>
      <point x="469.56140350877195" y="302.0701754385965" type="curve" smooth="yes"/>
      <point x="345.5263157894737" y="416.6140350877193"/>
      <point x="289.0" y="558.1929824561404"/>
      <point x="289.0" y="705.2631578947369" type="curve" smooth="yes"/>
      <point x="289.0" y="863.3333333333334"/>
      <point x="347.5263157894737" y="998.4035087719299"/>
      <point x="471.0526315789474" y="1112.438596491228" type="curve" smooth="yes"/>
      <point x="588.8245614035088" y="1221.719298245614"/>
      <point x="731.1228070175439" y="1282.2456140350878"/>
      <point x="903.6491228070175" y="1282.2456140350878" type="curve" smooth="yes"/>
      <point x="1071.421052631579" y="1282.2456140350878"/>
      <point x="1228.982456140351" y="1216.4561403508771"/>
      <point x="1345.0" y="1110.6842105263158" type="curve" smooth="yes"/>
      <point x="1467.280701754386" y="999.4035087719299"/>
      <point x="1521.7894736842106" y="856.8245614035088"/>
      <point x="1521.7894736842106" y="705.2631578947369" type="curve" smooth="yes"/>
      <point x="1521.7894736842106" y="541.9122807017544"/>
      <point x="1468.017543859649" y="413.10526315789474"/>
      <point x="1347.4912280701753" y="304.0701754385965" type="curve" smooth="yes"/>
      <point x="1229.4736842105262" y="197.5438596491228"/>
      <point x="1072.438596491228" y="129.7719298245614"/>
    </contour>
    <contour>
      <point x="630.421052631579" y="344.35087719298247" type="line"/>
      <point x="770.3684210526316" y="344.35087719298247" type="line"/>
      <point x="770.3684210526316" y="643.6666666666666" type="line"/>
      <point x="902.3684210526316" y="643.6666666666666" type="line"/>
      <point x="1058.7368421052631" y="344.35087719298247" type="line"/>
      <point x="1214.877192982456" y="344.35087719298247" type="line"/>
      <point x="1038.8245614035088" y="666.3333333333334" type="line"/>
      <point x="1126.1052631578948" y="704.7368421052631"/>
      <point x="1195.5087719298247" y="773.5438596491229"/>
      <point x="1195.5087719298247" y="873.1754385964912" type="curve" smooth="yes"/>
      <point x="1195.5087719298247" y="1014.3859649122807"/>
      <point x="1088.0701754385964" y="1092.6666666666667"/>
      <point x="863.7894736842105" y="1092.6666666666667" type="curve" smooth="yes"/>
      <point x="630.421052631579" y="1092.6666666666667" type="line"/>
    </contour>
    <contour>
      <point x="770.3684210526316" y="748.2280701754386" type="line"/>
      <point x="770.3684210526316" y="981.8771929824561" type="line"/>
      <point x="889.3684210526316" y="981.6315789473684" type="line" smooth="yes"/>
      <point x="1008.1929824561404" y="980.6315789473684"/>
      <point x="1060.0350877192982" y="954.578947368421"/>
      <point x="1060.0350877192982" y="868.1929824561404" type="curve" smooth="yes"/>
      <point x="1060.0350877192982" y="791.5438596491229"/>
      <point x="1009.438596491228" y="748.2280701754386"/>
      <point x="893.6140350877193" y="748.2280701754386" type="curve" smooth="yes"/>
    </contour>
  </outline>
</glyph>
<glyph name="degree" format="2">
  <advance width="849.3333333333334"/>
  <unicode hex="00B0"/>
  <note>
degree
</note>
  <outline>
    <contour>
      <point x="423.280701754386" y="865.7368421052631" type="curve" smooth="yes"/>
      <point x="580.6666666666666" y="865.7368421052631"/>
      <point x="708.3157894736842" y="992.6315789473684"/>
      <point x="708.3157894736842" y="1149.5087719298247" type="curve" smooth="yes"/>
      <point x="708.3157894736842" y="1305.3859649122808"/>
      <point x="580.6666666666666" y="1432.280701754386"/>
      <point x="424.7894736842105" y="1432.280701754386" type="curve" smooth="yes"/>
      <point x="267.1578947368421" y="1432.280701754386"/>
      <point x="141.01754385964912" y="1306.140350877193"/>
      <point x="141.01754385964912" y="1149.5087719298247" type="curve" smooth="yes"/>
      <point x="141.01754385964912" y="991.8771929824561"/>
      <point x="267.1578947368421" y="865.7368421052631"/>
    </contour>
    <contour>
      <point x="424.7894736842105" y="967.8421052631579" type="curve" smooth="yes"/>
      <point x="324.0877192982456" y="967.8421052631579"/>
      <point x="243.87719298245614" y="1048.8070175438597"/>
      <point x="243.87719298245614" y="1149.5087719298247" type="curve" smooth="yes"/>
      <point x="243.87719298245614" y="1249.2105263157894"/>
      <point x="324.0877192982456" y="1329.421052631579"/>
      <point x="424.7894736842105" y="1329.421052631579" type="curve" smooth="yes"/>
      <point x="525.2456140350877" y="1329.421052631579"/>
      <point x="605.4561403508771" y="1249.2105263157894"/>
      <point x="605.4561403508771" y="1149.5087719298247" type="curve" smooth="yes"/>
      <point x="605.4561403508771" y="1048.8070175438597"/>
      <point x="525.2456140350877" y="967.8421052631579"/>
    </contour>
  </outline>
</glyph>
<glyph name="plusminus" format="2">
  <advance width="1141.982456140351"/>
  <unicode hex="00B1"/>
  <note>
plusminus
</note>
  <outline>
    <contour>
      <point x="457.0877192982456" y="327.36842105263156" type="line"/>
      <point x="631.6666666666666" y="327.36842105263156" type="line"/>
      <point x="631.6666666666666" y="550.8421052631579" type="line"/>
      <point x="938.0350877192982" y="550.8421052631579" type="line"/>
      <point x="938.0350877192982" y="784.6666666666666" type="line"/>
      <point x="631.6666666666666" y="784.6666666666666" type="line"/>
      <point x="631.6666666666666" y="1007.8947368421053" type="line"/>
      <point x="457.0877192982456" y="1007.8947368421053" type="line"/>
      <point x="457.0877192982456" y="784.6666666666666" type="line"/>
      <point x="150.71929824561403" y="784.6666666666666" type="line"/>
      <point x="150.71929824561403" y="550.8421052631579" type="line"/>
      <point x="457.0877192982456" y="550.8421052631579" type="line"/>
    </contour>
    <contour>
      <point x="150.47368421052633" y="85.63157894736844" type="line"/>
      <point x="937.0350877192982" y="85.63157894736844" type="line"/>
      <point x="937.0350877192982" y="318.70175438596493" type="line"/>
      <point x="150.47368421052633" y="318.70175438596493" type="line"/>
    </contour>
  </outline>
</glyph>
<glyph name="paragraph" format="2">
  <advance width="1281.438596491228"/>
  <unicode hex="00B6"/>
  <note>
paragraph
</note>
  <outline>
    <contour>
      <point x="514.0175438596491" y="0.0" type="line"/>
      <point x="696.7543859649122" y="0.0" type="line"/>
      <point x="696.7543859649122" y="1277.859649122807" type="line"/>
      <point x="838.1929824561404" y="1277.859649122807" type="line"/>
      <point x="838.1929824561404" y="0.0" type="line"/>
      <point x="1019.6842105263158" y="0.0" type="line"/>
      <point x="1019.6842105263158" y="1277.859649122807" type="line"/>
      <point x="1145.6842105263158" y="1277.859649122807" type="line"/>
      <point x="1145.6842105263158" y="1446.982456140351" type="line"/>
      <point x="582.2982456140351" y="1446.982456140351" type="line" smooth="yes"/>
      <point x="319.89473684210526" y="1446.982456140351"/>
      <point x="137.26315789473685" y="1276.6140350877192"/>
      <point x="137.26315789473685" y="1035.7368421052631" type="curve" smooth="yes"/>
      <point x="137.26315789473685" y="810.8245614035088"/>
      <point x="296.2105263157895" y="636.7368421052631"/>
      <point x="514.0175438596491" y="627.2280701754386" type="curve"/>
    </contour>
  </outline>
</glyph>
<glyph name="ordmasculine" format="2">
  <advance width="919.1228070175439"/>
  <unicode hex="00BA"/>
  <note>
ordmasculine
</note>
  <outline>
    <contour>
      <point x="459.43859649122805" y="788.3157894736842" type="curve" smooth="yes"/>
      <point x="657.438596491228" y="788.3157894736842"/>
      <point x="803.1052631578948" y="915.9649122807018"/>
      <point x="803.1052631578948" y="1118.877192982456" type="curve" smooth="yes"/>
      <point x="803.1052631578948" y="1322.0350877192982"/>
      <point x="658.1929824561404" y="1452.6842105263158"/>
      <point x="459.43859649122805" y="1452.6842105263158" type="curve" smooth="yes"/>
      <point x="259.9298245614035" y="1452.6842105263158"/>
      <point x="117.52631578947368" y="1322.7894736842106"/>
      <point x="117.52631578947368" y="1118.877192982456" type="curve" smooth="yes"/>
      <point x="117.52631578947368" y="914.9649122807018"/>
      <point x="260.9298245614035" y="788.3157894736842"/>
    </contour>
    <contour>
      <point x="459.1929824561404" y="911.719298245614" type="curve" smooth="yes"/>
      <point x="355.140350877193" y="911.719298245614"/>
      <point x="275.56140350877195" y="990.2456140350877"/>
      <point x="275.56140350877195" y="1118.877192982456" type="curve" smooth="yes"/>
      <point x="275.56140350877195" y="1247.7543859649122"/>
      <point x="355.89473684210526" y="1329.280701754386"/>
      <point x="459.1929824561404" y="1329.280701754386" type="curve" smooth="yes"/>
      <point x="562.4912280701755" y="1329.280701754386"/>
      <point x="644.3157894736842" y="1247.7543859649122"/>
      <point x="644.3157894736842" y="1118.877192982456" type="curve" smooth="yes"/>
      <point x="644.3157894736842" y="990.2456140350877"/>
      <point x="562.4912280701755" y="911.719298245614"/>
    </contour>
    <contour>
      <point x="118.21052631578948" y="614.2280701754386" type="line"/>
      <point x="799.4035087719299" y="614.2280701754386" type="line"/>
      <point x="799.4035087719299" y="707.2631578947369" type="line"/>
      <point x="118.21052631578948" y="707.2631578947369" type="line"/>
    </contour>
  </outline>
</glyph>
<glyph name="AE" format="2">
  <advance width="2092.6491228070176"/>
  <unicode hex="00C6"/>
  <note>
AE
</note>
  <anchor x="1081.298245614035" y="19.824561403508767" name="bottom"/>
  <anchor x="1081.298245614035" y="1430.0" name="top"/>
  <outline>
    <contour>
      <point x="101.26315789473685" y="0.0" type="line"/>
      <point x="280.8771929824561" y="0.0" type="line"/>
      <point x="1237.4035087719299" y="1433.982456140351" type="line"/>
      <point x="1058.7894736842106" y="1433.982456140351" type="line"/>
    </contour>
    <contour>
      <point x="539.3684210526316" y="421.5964912280702" type="line"/>
      <point x="1288.2456140350878" y="421.5964912280702" type="line"/>
      <point x="1288.2456140350878" y="565.561403508772" type="line"/>
      <point x="539.3684210526316" y="565.561403508772" type="line"/>
    </contour>
    <contour>
      <point x="1093.122807017544" y="0.0" type="line"/>
      <point x="1977.157894736842" y="0.0" type="line"/>
      <point x="1977.157894736842" y="143.21052631578948" type="line"/>
      <point x="1141.842105263158" y="143.21052631578948" type="line"/>
      <point x="1349.6140350877192" y="11.75438596491228" type="line"/>
      <point x="1349.6140350877192" y="792.6140350877193" type="line"/>
      <point x="1218.3157894736842" y="657.140350877193" type="line"/>
      <point x="1977.157894736842" y="657.140350877193" type="line"/>
      <point x="1977.157894736842" y="800.3508771929825" type="line"/>
      <point x="1204.2280701754387" y="800.3508771929825" type="line"/>
      <point x="1349.6140350877192" y="666.6491228070175" type="line"/>
      <point x="1349.6140350877192" y="1423.2456140350878" type="line"/>
      <point x="1099.842105263158" y="1290.7719298245613" type="line"/>
      <point x="1977.157894736842" y="1290.7719298245613" type="line"/>
      <point x="1977.157894736842" y="1433.982456140351" type="line"/>
      <point x="1093.122807017544" y="1433.982456140351" type="line"/>
    </contour>
  </outline>
</glyph>
<glyph name="Thorn" format="2">
  <advance width="1224.9298245614036"/>
  <unicode hex="00DE"/>
  <note>
Thorn
</note>
  <anchor x="613.0877192982456" y="19.824561403508767" name="bottom"/>
  <anchor x="613.0877192982456" y="1430.0" name="top"/>
  <outline>
    <contour>
      <point x="278.49122807017545" y="300.35087719298247" type="line"/>
      <point x="549.4561403508771" y="300.35087719298247" type="line" smooth="yes"/>
      <point x="723.8947368421052" y="300.35087719298247"/>
      <point x="876.5087719298245" y="340.3157894736842"/>
      <point x="955.5263157894738" y="401.57894736842104" type="curve" smooth="yes"/>
      <point x="1072.6666666666667" y="492.2456140350877"/>
      <point x="1116.6666666666667" y="587.2982456140351"/>
      <point x="1116.6666666666667" y="746.0" type="curve" smooth="yes"/>
      <point x="1116.6666666666667" y="889.7017543859649"/>
      <point x="1081.9122807017543" y="974.2631578947369"/>
      <point x="985.5087719298245" y="1062.1754385964912" type="curve" smooth="yes"/>
      <point x="906.2456140350878" y="1135.1929824561403"/>
      <point x="743.140350877193" y="1182.6491228070176"/>
      <point x="550.4561403508771" y="1182.6491228070176" type="curve" smooth="yes"/>
      <point x="277.49122807017545" y="1182.6491228070176" type="line"/>
      <point x="277.49122807017545" y="1048.6491228070176" type="line"/>
      <point x="482.8070175438596" y="1048.6491228070176" type="line" smooth="yes"/>
      <point x="768.7017543859649" y="1048.6491228070176"/>
      <point x="873.8421052631579" y="976.7719298245614"/>
      <point x="873.8421052631579" y="744.0" type="curve" smooth="yes"/>
      <point x="873.8421052631579" y="508.2280701754386"/>
      <point x="768.7017543859649" y="434.35087719298247"/>
      <point x="482.8070175438596" y="434.35087719298247" type="curve" smooth="yes"/>
      <point x="278.49122807017545" y="434.35087719298247" type="line"/>
    </contour>
    <contour>
      <point x="140.26315789473685" y="0.0" type="line"/>
      <point x="390.280701754386" y="0.0" type="line"/>
      <point x="390.280701754386" y="1433.982456140351" type="line"/>
      <point x="140.26315789473685" y="1433.982456140351" type="line"/>
    </contour>
  </outline>
</glyph>
